<svg xmlns="http://www.w3.org/2000/svg" width="220" viewBox="0 0 17 30">
    <defs>
        <filter id="rg11yecv6a">
            <feColorMatrix in="SourceGraphic" values="0 0 0 0 0.000000 0 0 0 0 0.000000 0 0 0 0 0.000000 0 0 0 0.040000 0"/>
        </filter>
    </defs>
    <g fill="none" fill-rule="evenodd">
        <g filter="url(#rg11yecv6a)" transform="translate(-446 -22)">
            <g>
                <path fill="#000" fill-rule="nonzero" d="M16.627 6.949c-.31-.27-.787-.23-1.167-.215-.095.004-.19.007-.285.008.302-.374.416-.905.136-1.327-.255-.384-.743-.346-1.15-.356-.885-.02-1.768-.083-2.652-.112-.528-.018-1.054-.02-1.581-.017.085-.726-.083-1.51-.086-2.244-.003-.61.093-1.25.044-1.856-.066-.821-.925-.884-1.61-.804-.83.096-.956.76-.931 1.494.037 1.109-.07 2.257.054 3.36-.46-.014-.921-.018-1.382-.003-.818.027-1.632.117-2.448.174-.38.027-.764.028-1.139.098-.68.128-1.29.679-.803 1.376.021.03.045.058.069.084-.195.014-.386.036-.57.073-.677.136-1.14.631-1.058 1.35.105.929 1.054.968 1.804.986.096.712.067 1.44.112 2.154.058.913.127 1.825.19 2.737.134 1.894.358 3.78.57 5.667.204 1.834.375 3.672.586 5.505.092.807.223 1.605.343 2.407.083.553.166 1.1.644 1.452.5.37 1.19.54 1.784.689.767.191 1.559.298 2.348.346.775.048 1.552.017 2.328-.01.673-.023 1.37-.072 2-.321 1.359-.537 1.353-1.902 1.438-3.16.124-1.832.161-3.67.287-5.502.147-2.146.324-4.288.456-6.435.063-1.038.125-2.078.222-3.114.082-.875.192-1.746.203-2.624.339.002.697-.012 1-.148.616-.277.76-1.263.244-1.712zM7.882 2.245c-.012-.509-.266-1.527.35-1.716.23-.07.873-.101 1.067.067.266.232.07.924.055 1.21-.053 1.028-.045 2.107.059 3.13l-.546.01c-.026 0-.051.002-.077.003-.355-.021-.71-.041-1.064-.056.123-.869.177-1.776.156-2.648zM2.378 5.9c.272-.1.575-.11.86-.135 1.19-.104 2.365-.328 3.56-.376 1.408-.056 2.815.081 4.223.098.688.008 1.377.008 2.065-.006.047-.001.096-.004.146-.007l.264.014c.38.024 1.225-.082 1.298.407.1.665-.533.757-1.013.754-1.259-.008-2.514-.012-3.773.023-2.425.067-4.851.095-7.273-.092-.449-.035-.881-.485-.357-.68zm.93 12.902c-.202-1.703-.41-3.406-.575-5.114-.09-.927-.19-1.854-.273-2.781-.058-.64-.091-1.267-.255-1.882 2.436.044 4.888-.159 7.324-.222.186 1.071-.153 2.331-.59 3.287-.538 1.173-1.415 2.19-2.31 3.11-1.037 1.066-2.68 2.15-3.32 3.602zm1.879 9.825c-.375-.151-.63-.31-.74-.715-.066-.243-.088-.496-.126-.743-.136-.877-.271-1.75-.37-2.633-.178-1.588-.346-3.176-.53-4.763.437-1.05.992-1.876 1.836-2.68.866-.825 1.751-1.601 2.529-2.513.786-.922 1.486-1.941 1.82-3.116.22-.773.473-1.84.213-2.669.876-.018 1.751-.003 2.626.007.55.8.611 1.935.64 2.873.03 1.04-.107 2.075-.41 3.071-.585 1.92-1.8 3.461-2.912 5.097-1.055 1.55-1.847 3.19-1.903 5.094-.027.93.134 1.82.376 2.716.148.544.314 1.18.663 1.658-1.259-.03-2.553-.217-3.712-.684zm9.232-15.318c-.116 1.727-.211 3.455-.348 5.181-.138 1.737-.27 3.474-.366 5.213-.043.786-.077 1.573-.131 2.358-.05.71-.03 1.549-.282 2.226-.464 1.25-2.698 1.011-3.77 1.027-.091.002-.182.002-.274.002-.406-.653-.58-1.418-.749-2.161-.253-1.114-.31-2.277-.092-3.402.365-1.877 1.529-3.413 2.607-4.945 1.099-1.56 2.026-3.202 2.362-5.1.167-.94.196-1.896.096-2.845-.073-.696-.152-1.442-.508-2.056l.72.003c.362 0 .724-.007 1.085-.007-.008 1.501-.25 3.01-.35 4.506zM16.215 8.1c-.348.3-.838.099-1.236.073-.578-.038-1.171-.006-1.751.005-1.204.024-2.406.08-3.61.115-1.946.055-3.892.137-5.838.203-.463.016-.927.029-1.391.025-.427-.004-1.091.072-1.468-.14-.39-.218-.332-.788.05-.995.28-.151.667-.15.975-.16.81-.025 1.621-.038 2.43-.044.823-.007 1.704.036 2.537-.08.957.018 1.914.023 2.873.016.74-.005 1.481-.01 2.222.001.407.006.813.016 1.22.033.39.016.8.102 1.19.047.046-.007.091-.017.136-.03.387.01.774.01 1.155.03.313.016.57.077.634.406.036.186.019.368-.128.495z" transform="translate(446 22)"/>
            </g>
        </g>
    </g>
</svg>
