<svg xmlns="http://www.w3.org/2000/svg" width="240" viewBox="0 0 30 28">
    <defs>
        <filter id="brhp19qkna">
            <feColorMatrix in="SourceGraphic" values="0 0 0 0 0.000000 0 0 0 0 0.000000 0 0 0 0 0.000000 0 0 0 0.040000 0"/>
        </filter>
    </defs>
    <g fill="none" fill-rule="evenodd">
        <g filter="url(#brhp19qkna)" transform="translate(-124 -23)">
            <g fill="#000" fill-rule="nonzero">
                <path d="M28.742 14.399c-.645-1.188-1.496-2.213-2.426-3.182-.345-.36-.767-.695-1.28-.749-.209-.022-.404.031-.584.123.145-.291.271-.586.38-.864.447-1.146.76-2.325.874-3.552.115-1.244.077-2.54-.196-3.763-.19-.85-.667-1.734-1.521-2.048-.24-.087-.476-.127-.708-.13l-.064-.018c-1.28-.374-2.608-.034-3.839.364-1.52.493-3.01 1.061-4.518 1.587-1.446.504-2.947.869-4.291 1.628-.586.331-1.142.713-1.728 1.043-.773.436-1.596.743-2.412 1.083-1.206.504-2.483 1.06-3.55 1.832C.94 9.155.118 11.977.01 14.283c-.063 1.357.159 2.88.943 4.02.577.84 1.662 1.4 2.676 1.214.022.698.154 1.402.303 2.02.524 2.164 1.641 3.92 3.52 5.141 2.15 1.397 4.58 1.563 6.998.87 1.27-.363 2.452-.936 3.653-1.476 1.463-.66 2.942-1.276 4.44-1.849 1.338-.512 2.708-.94 4.027-1.504.978-.418 2.073-.904 2.74-1.777 1.394-1.827.4-4.756-.568-6.543zm-4.33-5.185c-.17.479-.358.954-.575 1.414-.354-.241-.907-.27-1.295-.097-.491.222-.675.982-1.2 1.058-.47.068-.79-.122-1.168.269-.219.226-.368.544-.394.862-.227-.11-.435-.234-.608-.355-.11-.078-.212-.162-.308-.251-.014-.57.04-1.205.545-1.524.575-.364 1.223.267 1.71-.344.268-.338.323-.731.841-.779.312-.028.613.117.926.087.497-.047 1.16-.976 1.624-.63-.032.097-.064.193-.098.29zm-.723 1.712c-.142.266-.307.515-.47.766-.549.582-1.105 1.16-1.857 1.417-.433.027-.925-.103-1.368-.292.175-.414.324-.882.863-.92.315-.023.58.122.885-.033.296-.15.415-.472.632-.7.43-.455.813-.24 1.315-.238zm1.471-4.959c-.072.866-.259 1.703-.511 2.526-.386-.303-1.058.13-1.392.385-.47.36-.83.11-1.35.16-.398.039-.697.247-.9.585-.198.333-.271.54-.723.505-.18-.015-.337-.076-.523-.059-.344.031-.659.21-.874.48-.25.316-.377.738-.385 1.16-.347-.467-.558-1.027-.66-1.624-.103-.603-.105-1.202-.032-1.793.284.241.78.313 1.09.239.774-.186 1.231-.991 1.703-1.57.129-.158.27-.356.45-.459.333-.191.523-.066.804.1.298.178.584.214.912.082.357-.144.61-.446.938-.638.515-.302.96-.027 1.455-.105l-.002.026zm-.792-4.892c.46.474.651 1.238.728 1.898.1.859.137 1.73.091 2.594-.615-.231-1.284-.22-1.836.166-.355.249-.72.713-1.207.518-.298-.12-.454-.361-.809-.337-.59.04-.968.645-1.294 1.07-.228.298-.46.615-.74.867-.302.272-1.145.553-1.436.07.038-.222.087-.442.144-.66.578.148 1.115-.167 1.273-.77.118-.449-.076-1.07-.557-1.17.133-.285.273-.564.417-.837.862.568 2.216.287 2.691-.673.187-.378.157-.83.004-1.212-.115-.29-.376-.69-.7-.825.558-.541 1.255-1.088 2.014-1.143.437.08.87.224 1.217.444zM18.07 7.04c.133-.463.303-.917.495-1.36.042.012.084.024.12.038.194.08.273.276.276.476.008.508-.407.888-.891.846zm1.16-2.714c.438-.805.951-1.565 1.586-2.227l.011-.012c.214.2.466.308.616.607.16.32.209.715.031 1.039-.48.873-1.433.771-2.245.593zm-1.617-2.4c1.31-.51 2.69-1.163 4.091-1.347.121-.016.253-.027.394-.03-1.242.654-2.278 2.188-2.873 3.191-.306.517-.568 1.052-.804 1.6-.024.013-.046.033-.058.06-.023.052-.028.094-.021.127-.095.226-.185.454-.271.684-.203-.121-.455-.106-.712-.177-.508-.14-1.015-.468-1.387-.84-.629-.626-.946-1.383-1.069-2.219.911-.328 1.808-.697 2.71-1.049zM11.627 4.08c.71-.283 1.439-.507 2.196-.74.263-.082.525-.17.785-.26.007.774.329 1.513.827 2.131.362.45.825.789 1.34 1.043.317.156.774.324 1.164.316l-.062.172c-.4 1.13-.754 2.213-.67 3.43.077 1.13.563 2.17 1.52 2.801.197.131.43.253.678.355-1.72-.195-3.495.02-5.215.351-1.917.005-3.911-.525-5.534-1.461-.458-1.367-.448-2.741.008-4.133.563-1.715 1.503-3.034 2.963-4.005zM6.533 6.717c1.196-.542 2.318-1.15 3.443-1.825-.798.877-1.351 2.057-1.678 3.09-.253.801-.374 1.664-.35 2.505.013.429.04 1.028.267 1.458-1.643-1.07-2.791-2.543-3.736-4.251.678-.342 1.37-.667 2.054-.977zM3.64 18.914c-.357-.08-.723-.104-1.071-.225-.517-.181-.902-.556-1.185-1.02-.609-1.002-.81-2.228-.793-3.386.016-1.158.257-2.31.68-3.385.45-1.142 1.022-2.018 2.105-2.623.276-.154.557-.304.84-.45.89 1.996 2.396 3.673 4.274 4.779 1.04.612 2.197 1 3.378 1.222.303.056.613.106.926.142l-.53.119c-2.474.558-5.29.99-7.422 2.47-.81.562-1.133 1.427-1.202 2.357zm7.116-.435c.735.627 2.057.216 2.475-.634.106.102.21.206.31.316.508.558.96 1.193 1.315 1.876-.197.035-.37.237-.449.405-.134.283-.125.626-.034.921.088.288.26.565.53.709.17.09.467.127.67.034.034.186.06.373.075.561.023.287.02.565-.003.835-.315.2-.612.25-.976.12-.43-.155-.549-.433-.724-.832-.2-.456-.502-.68-1.005-.626-.52.056-1.084.255-1.527-.189-.23-.23-.29-.589-.445-.864-.334-.585-.92-.591-1.53-.573-.574.018-1.002-.062-1.405-.514-.177-.2-.33-.42-.541-.587-.495-.392-1.117-.304-1.698-.433-.933-.206-1-1.063-.38-1.678.345-.34.76-.598 1.137-.899.027-.01.054-.019.083-.027.762-.222 1.567-.327 2.36-.304.661.02 1.307.136 1.918.343-.522.546-.813 1.478-.156 2.04zm.35-1.97c.654.247 1.264.6 1.807 1.052-.201.25-.38.502-.679.67-.381.213-.92.239-1.27-.057-.517-.439-.246-1.223.142-1.664zm3.826 3.677c.238.48.427.983.554 1.5-.143.033-.268.111-.433.025-.182-.095-.307-.305-.376-.493-.075-.202-.11-.444-.053-.655.053-.196.179-.271.308-.377zM4.754 22.56c-.503-1.41-1.196-3.825-.056-5.091.196-.217.45-.38.72-.521-.386.279-.699.62-.769 1.097-.19 1.285 1.247 1.29 2.082 1.487.68.16.883.83 1.424 1.194.274.184.587.262.913.278.441.021 1.04-.146 1.385.189.447.436.373 1.072 1.012 1.369.274.127.595.192.898.18.443-.016.893-.292 1.158.199.284.524.413.91 1.028 1.123.307.106.703.146 1.01.018-.043.201-.096.398-.161.591-.077-.13-.207-.23-.4-.274-.44-.102-.671.16-.967.382-.082-.242-.18-.449-.485-.51-.47-.095-.74.23-1.023.529-.23-.355-.483-.68-.961-.698-.38-.014-.611.245-.836.51-.09-.14-.202-.264-.355-.34-.167-.084-.2-.039-.352-.068-.322-.061-.301.017-.34-.229-.056-.342.01-.823-.457-.889-.265-.037-.54.225-.771.047-.229-.176-.068-.55-.084-.82-.024-.385-.272-.847-.712-.782-.196.029-.364.181-.504.311-.09.085-.166.196-.263.273-.23.185-.203.128-.389-.006-.328-.235-.61-.66-1.032-.27-.341.314-.418.98-.403 1.43-.118-.228-.222-.464-.31-.709zm4.769 4.265c-1.34-.44-2.634-1.22-3.583-2.292.016-.044.034-.086.058-.119.121-.16.538-.247.692-.114.112.097.154.333.246.456.217.292.496.323.837.332.278.007.358-.004.567.192.166.156.13.174.224.32.09.14.155.265.303.36.317.204.606.036.936-.032.558-.114.477.335.824.62.248.204.49.154.784.123.321-.033.457.075.733.167.138.046.27.063.415.037.188-.034.386-.217.569-.218.266-.002.351.175.404.372-1.33.235-2.683.232-4.01-.204zm4.584.088l-.17.036c-.063-.282-.15-.542-.458-.665-.179-.07-.352-.05-.532.003-.09.028-.174.087-.265.11-.639.165-.323.01-.658-.084-.2-.057-.325-.093-.539-.074-.104.01-.289.085-.395.06-.357-.082-.311-.26-.447-.465-.203-.306-.41-.393-.787-.338-.42.062-.705.302-1.062-.173-.123-.163-.167-.312-.358-.415-.195-.106-.371-.073-.575-.1-.289-.038-.59-.11-.771-.362-.076-.104-.108-.243-.178-.352-.412-.643-.9-.257-1.138.244l-.044-.052c-.253-.434-.324-.956-.234-1.462.066-.364.183-.894.699-.393.092.09.128.228.25.293.287.156.571-.088.771-.278.193-.184.3-.445.553-.285.246.157.137.427.145.686.008.265.065.501.327.62.122.054.248.053.378.043.272-.021.372-.175.583.056.271.297-.113.623.126.928.083.106.213.147.34.169.355.06.602.044.767.451.07.176.27.251.419.112.164-.153.295-.436.479-.552.449-.283.75.217.988.537.072.096.214.142.308.04.202-.222.332-.411.627-.506.385-.123.352.128.453.427.047.14.186.193.316.13.261-.129 1.01-.9 1.057-.1.003.046.022.086.05.117-.27.561-.622 1.09-1.025 1.594zm9.583-3.843c-2.456.955-4.801 2.186-7.261 3.122-.449.17-.905.329-1.367.467.572-.66.909-1.56 1.063-2.404.265-1.45-.084-2.924-.735-4.222-1.321-2.635-3.815-4.432-6.782-4.337 1.08-.316 2.182-.556 3.278-.811.347-.081.694-.165 1.04-.248.868-.023 1.743.05 2.577.16 1.73.224 3.473.608 5.043 1.396 1.488.747 2.505 1.77 3.181 3.306.257.585.46 1.192.59 1.818.103.486.066.981.121 1.462l-.748.29zm5.36-3.516c-.245.919-.962 1.484-1.751 1.932-.722.41-1.482.743-2.25 1.053.02-.361-.08-.768-.14-1.06-.14-.687-.368-1.345-.652-1.983-.701-1.575-1.73-2.705-3.26-3.479-1.59-.804-3.34-1.23-5.095-1.464-.6-.08-1.208-.158-1.817-.189.568-.13 1.139-.251 1.713-.351.545-.095 1.09-.165 1.637-.215.196-.01.392-.022.591-.026.646-.013 1.292.002 1.938 0 .963-.002 1.802-.119 2.576-.738.386-.31.724-.68 1.06-1.043.295-.321.602-.759 1.004-.947.593-.277 1.008.342 1.364.752.323.37.654.736.96 1.122 1.366 1.726 2.73 4.358 2.122 6.636z" transform="translate(124 23)"/>
                <path d="M7.703 17.4c-.465.489-.514 1.228.032 1.564.452.388 1.134.46 1.655.154.645-.38.803-1.258.265-1.807-.53-.54-1.452-.437-1.952.089zm1.918.742c-.002.76-.94 1-1.513.742-.26-.118-.428-.295-.51-.493-.02-.076-.026-.159-.01-.25.053-.316.303-.524.575-.655.56-.271 1.46-.126 1.458.656zM12.17 21.559c.66.336 1.737.101 1.816-.766.037-.406-.2-.766-.57-.92-.346-.145-.745-.081-1.113-.002-.04.007-.078.015-.117.025l-.113.025c-.02.005-.033.015-.043.026-.11.043-.213.1-.301.172-.549.45-.05 1.19.442 1.44zm.006-1.394c.082-.03.168-.053.256-.07.544.01 1.298.03 1.134.73-.146.623-1.037.573-1.441.288-.431-.304-.46-.758.05-.948zM5.199 20.877c.035.083.109.107.18.094.012 0 .024-.002.037-.005l.026-.006c.206-.047.211-.347.027-.423-.209-.087-.36.134-.28.32l.01.02zM6.173 20.505c.075-.029.13-.082.141-.166.01-.08-.026-.156-.094-.199-.024-.015-.054-.032-.08-.038l-.038-.005c-.165-.039-.306.137-.224.303.05.105.193.143.295.105zM6.108 21.402c.01.077.05.144.119.184.084.05.167.037.252 0 .143-.063.189-.264.114-.391-.046-.078-.163-.12-.247-.077-.142.004-.258.135-.238.284zM7.323 21.013c.245 0 .246-.385 0-.385s-.247.385 0 .385zM9.35 21.94c.014.14.097.225.238.24l.016.002c.087.01.18-.056.221-.128.049-.083.043-.177 0-.26-.017-.034-.044-.068-.077-.086l-.015-.007c-.083-.043-.176-.049-.259 0-.071.042-.136.135-.127.223l.002.016zM9.576 22.845c-.155.067-.155.343 0 .41.099.043.184.058.28-.003.067-.043.128-.117.125-.202-.004-.088-.054-.154-.125-.201-.095-.062-.18-.047-.28-.004zM10.566 23.548c.139.06.28-.02.327-.159.023-.067.027-.135.009-.204-.022-.081-.105-.15-.191-.146-.117.005-.2.065-.262.162-.08.123-.01.293.117.347zM10.688 22.893l.025.014c.211.14.461-.183.272-.356-.061-.055-.13-.092-.214-.09-.033.001-.055.006-.084.016-.029.008-.054.023-.076.042l-.012.008c-.084.06-.132.176-.07.271.04.063.097.093.16.095zM12.626 23.606l.018-.005c.233-.062.233-.414 0-.476l-.018-.004c-.156-.042-.316.078-.316.242 0 .164.16.284.316.243zM11.347 23.648c.087.087.246.094.331 0 .086-.095.093-.241 0-.335l-.038-.039c-.087-.087-.246-.094-.332 0-.086.095-.093.241 0 .335l.039.039zM8.573 22.006c.019.065.068.122.134.138.057.013.106 0 .149-.027.03-.013.057-.032.083-.057.057-.057.082-.146.059-.225l-.005-.016c-.035-.122-.203-.219-.319-.13l-.012.009c-.091.07-.121.147-.105.26.002.016.01.032.016.048zM6.702 20.507c.121 0 .237-.107.232-.234-.006-.126-.102-.233-.232-.233-.121 0-.238.107-.232.233.006.127.102.234.232.234zM4.84 19.66c-.089.005-.166.054-.2.137-.047.11 0 .21.089.276l.016.012c.048.036.141.036.19 0l.016-.012c.079-.059.129-.146.1-.25-.024-.09-.116-.166-.211-.162zM22.544 3.703c.072.566.382 1.014.985.843.658-.187.904-.851.848-1.48-.045-.507-.307-1.289-.922-1.306-.887-.026-1.052 1.278-.926 1.913.002.012.008.022.015.03zm1.055-1.518c.42.267.505 1.128.33 1.548-.094.229-.36.492-.625.491-.245-.001-.377-.25-.447-.455-.06-.173-.092-.351-.096-.528.101-.577.305-1.394.838-1.056zM18.473 9.678c-.13 0-.255.116-.249.251.006.136.11.25.25.25.13 0 .254-.114.248-.25-.006-.136-.11-.25-.249-.25zM19.433 8.93c-.056-.087-.16-.135-.262-.107-.094.026-.175.124-.17.225.01.233.306.317.432.118l.005-.008c.04-.063.04-.156 0-.22l-.005-.008zM19.859 9.308l.037.028c-.05-.054-.144-.084-.216-.057-.02.007-.047.016-.065.029-.087.064-.141.162-.11.274.027.1.127.184.232.18.098-.005.183-.06.22-.15.05-.117.003-.236-.098-.304zM20.707 8.09l-.013.001c-.139.015-.224.1-.238.24l-.001.013c-.01.1.07.197.155.233.09.038.207.022.275-.053.06-.066.09-.159.065-.247-.027-.099-.135-.198-.243-.187zM21.214 7.037c-.098-.021-.2.037-.238.129-.038.089-.012.173.05.237.082.11.246.133.348.03.048-.048.06-.1.068-.164.014-.117-.115-.24-.228-.232zM22.142 7.586c-.086.004-.17.047-.214.124-.052.09-.044.231.039.303l.01.009c.1.088.23.088.33 0l.01-.01c.076-.064.089-.186.052-.272-.037-.088-.128-.159-.227-.154zM22.068 8.44c-.07.003-.125.035-.162.087-.055.027-.095.08-.104.144-.012.092.04.17.123.203.074.041.159.05.238-.001.097-.062.131-.171.104-.28-.021-.086-.11-.157-.199-.153zM23.151 7.935c-.131 0-.257.116-.25.253.005.137.11.253.25.253.131 0 .257-.116.251-.253-.006-.137-.11-.253-.251-.253zM22.969 7.508c.136.093.32.02.388-.121.08-.166-.068-.333-.233-.278h-.01c-.033.003-.064.007-.096.017-.177.055-.196.282-.05.382zM24.16 6.542c-.083.004-.162.045-.204.118-.058.1-.029.203.037.288L24 6.96c.069.089.249.088.317 0l.009-.01c.06-.078.088-.165.048-.26-.035-.084-.122-.151-.215-.147zM24.005 7.536c-.283 0-.284.443 0 .443.282 0 .283-.443 0-.443z" transform="translate(124 23)"/>
            </g>
        </g>
    </g>
</svg>
