<svg xmlns="http://www.w3.org/2000/svg" width="50" height="26" viewBox="0 0 50 26">
    <defs>
        <filter id="09qla69hga">
            <feColorMatrix in="SourceGraphic" values="0 0 0 0 0.984314 0 0 0 0 0.984314 0 0 0 0 0.984314 0 0 0 1.000000 0"/>
        </filter>
    </defs>
    <g fill="none" fill-rule="evenodd">
        <g filter="url(#09qla69hga)" transform="translate(-78 -11)">
            <g>
                <g fill="#000" fill-rule="nonzero">
                    <path d="M.761 24.501L0 24.46V.002h50v24.471h-1.035c-5.502.042-47.643.056-48.204.028zm4.411-1.086c0-.138-3.922-3.89-4.051-3.89-.144 0-.158 3.767-.014 3.89.129.124 4.065.124 4.065 0zm43.75-11.177V1.033H1.078l-.043 7.699-.029 7.699 3.606 3.547 3.606 3.533 20.345-.028 20.36-.04V12.237z" transform="translate(78 12) matrix(1 0 0 -1 0 24.759)"/>
                    <path d="M6.609 18.149L6.609 17.6 26.509 17.6 46.408 17.6 46.408 18.149 46.408 18.699 26.509 18.699 6.609 18.699zM6.609 15.194L6.609 14.712 18.894 14.712 31.179 14.712 31.179 15.194 31.179 15.675 18.894 15.675 6.609 15.675zM6.609 12.238L6.609 11.688 14.296 11.688 21.983 11.688 21.983 12.238 21.983 12.787 14.296 12.787 6.609 12.787zM6.61 7.77V5.776l9.74.028 9.728.04.042 1.967.043 1.952H6.61V7.77zm5.603.069v-.963H7.759V8.801h4.454v-.962zm12.787 0v-.963H13.362V8.801H25v-.962zM37.213 3.439L37.213 2.889 41.811 2.889 46.408 2.889 46.408 3.439 46.408 3.989 41.81 3.989 37.212 3.989 37.212 3.439z" transform="translate(78 12) matrix(1 0 0 -1 0 24.759)"/>
                </g>
            </g>
        </g>
    </g>
</svg>
