<svg xmlns="http://www.w3.org/2000/svg" width="240" viewBox="0 0 23 30">
    <defs>
        <filter id="2z225l5sha">
            <feColorMatrix in="SourceGraphic" values="0 0 0 0 0.000000 0 0 0 0 0.000000 0 0 0 0 0.000000 0 0 0 0.040000 0"/>
        </filter>
    </defs>
    <g fill="none" fill-rule="evenodd">
        <g filter="url(#2z225l5sha)" transform="translate(-533 -22)">
            <g fill="#000" fill-rule="nonzero">
                <path d="M22.014 15.836c-.087-.715-.47-1.352-1.127-1.835-.143-.104-.296-.2-.45-.293-.137-.082-.52-.215-.589-.337-.142-.25.284-.806.337-1.084.249-1.291-.355-3.086-2.038-3.528-.046-.013-.09-.016-.131-.017-.238-1.355-1.788-3.28-3.614-3.326-.086-.002-.157.014-.216.04-.32-.582-.88-1.087-1.537-1.406.51-1.094 1.587-1.956 2.677-2.69.527-.355 1.341-1.093.212-1.331-.984-.208-1.892.767-2.37 1.326-.376.44-.673.924-.992 1.392-.214.315-.417.637-.472.992-.89-.16-1.756.04-2.374.527-.517.304-.916.748-1.145 1.24-1.87.24-3.705 1.548-4.656 2.82-.436.584-.915 1.715-.691 2.548-.434.183-.735.595-.944.931-.394.633-.508 1.318-.21 1.993.046.104.25.324.216.43-.027.087-.35.222-.433.277-.306.203-.576.436-.802.7-.456.532-.67 1.178-.624 1.826.08 1.153.839 2.258 2.226 2.562-.032 1.051.305 2.095.458 3.135.166 1.13.316 2.26.486 3.39.127.845.445 1.548 1.26 2.114.887.615 2.006.962 3.102 1.25 2.359.618 4.96.668 7.372.23.984-.177 2.06-.412 2.784-1.02.756-.633.984-1.565 1.169-2.403.516-2.344.444-4.754.67-7.123.082-.002.162-.008.24-.023 1.711-.324 2.358-2.046 2.206-3.307zM13.22 1.798c.293-.366.617-.72 1.013-1.015.148-.11 1.155-.808 1.353-.383.09.193-.051.267-.232.41-.685.538-1.46.97-2.078 1.572-.43.419-.945.928-1.087 1.48-.1-.032-.199-.061-.298-.085.19-.692.87-1.405 1.33-1.979zm-4.663 4.07c.147-.508.562-1.033 1.092-1.402.902-.416 2.097-.327 2.966.3.827.597 1.392 1.708.742 2.54-.753.964-2.84 1.324-3.927.558-.644-.454-1.072-1.312-.873-1.996zm-4.77 3.58c.292-.82.938-1.523 1.686-2.11.687-.538 1.635-1.177 2.574-1.462-.104.374-.11.761.004 1.128.42 1.352 1.848 2.12 3.541 1.88 1.417-.2 2.783-.982 2.877-2.23.014-.182-.001-.363-.038-.54 1.464.086 3.255 2.137 2.897 3.284-.208.664-1.226.668-1.711 1.166-.438.449-.464 1.022-.395 1.568.068.533.495 1.78-.382 2.03-.437.124-.857-.204-1.04-.488-.304-.473-.272-1.05-.31-1.568-.04-.521-.078-1.15-.504-1.575-.415-.413-1.042-.418-1.535-.09-1.09.722-.699 2.06-.778 3.05-.042.523-.143 1.137-.525 1.576-.583.672-1.552.408-1.997-.219-.88-1.238.005-2.963.212-4.272.057-.357.095-.82-.273-1.085-.427-.308-1.042-.149-1.461.074-.644.342-1.047.888-1.636 1.278-.519.344-1.095.433-1.313-.204-.13-.382-.025-.82.107-1.19zm1.836 18.575c-1.045-.522-1.433-1.19-1.588-2.146-.174-1.079-.345-2.158-.537-3.234-.179-1.002-.502-1.98-.717-2.975.65.055 1.331.005 1.974-.105-.079 1.54.32 3.136.56 4.65.129.805.289 1.61.403 2.416.07.497.1 1.04.22 1.54-.107-.047-.212-.095-.315-.146zm.79.34c.116-.476-.16-1.072-.23-1.524-.12-.786-.275-1.568-.436-2.349-.19-.913-.404-1.823-.55-2.742-.118-.74-.165-1.48-.244-2.222l.058-.01c.23-.046.456-.11.679-.174.113-.033.574-.24.7-.2.19.058.428.566.6.722.109.098.224.186.345.266-.002.273-.046.55-.041.818.006.407.038.813.054 1.22.03.776.02 1.551.079 2.326.058.757.2 1.508.296 2.262.088.683.072 1.402.26 2.074-.534-.126-1.066-.277-1.57-.467zm2.264.616l-.345-.071c.004-.01.01-.02.011-.03.122-.76-.08-1.578-.196-2.334-.12-.794-.274-1.583-.334-2.382-.06-.812-.068-1.626-.133-2.438-.037-.452-.005-.952-.055-1.426.633.322 1.391.437 2.14.382-.09 1.437-.036 2.875-.01 4.314.014.743.016 1.485.07 2.227.046.634-.027 1.316.082 1.945-.415-.046-.825-.108-1.23-.187zm3.588-2.318c-.061.854-.194 1.746-.108 2.601-.612.016-1.225-.002-1.832-.054.207-.62.03-1.361-.023-1.987-.061-.742-.07-1.484-.087-2.227-.035-1.448-.066-2.897-.175-4.343.64-.083 1.26-.29 1.776-.598.257-.154.444-.36.68-.532.184-.132.286-.118.373-.043-.313 1.484-.35 3.007-.444 4.51-.055.89-.097 1.782-.16 2.673zm2.227.115c-.029.414-.05.828-.09 1.24-.035.349-.123.704-.118 1.054-.543.086-1.094.144-1.648.174.208-1.734.163-3.515.252-5.256.045-.886.13-1.77.158-2.656.015-.492.094-1.025.096-1.538.015.014.032.028.05.042.529.416 1.388.516 2.11.509-.134.556-.283 1.1-.347 1.675-.09.811-.155 1.623-.232 2.435-.074.774-.178 1.546-.231 2.321zm1.772-.447c-.03.377-.052.755-.088 1.132-.037.394-.152.812-.098 1.204-.155.053-.32.1-.493.143-.268.067-.54.125-.813.178.196-.57.16-1.224.193-1.796.046-.806.13-1.607.203-2.411.074-.82.144-1.641.204-2.462.047-.644.188-1.326.194-1.981.606-.029 1.217-.142 1.759-.366-.096.562-.344 1.138-.446 1.686-.144.767-.233 1.54-.338 2.31-.106.786-.214 1.573-.277 2.363zm2.014-1.88c-.11.963-.261 1.936-.621 2.861-.212.544-.585.9-1.091 1.154.196-.575.138-1.254.166-1.826.043-.857.13-1.709.223-2.562.094-.863.166-1.73.288-2.59.058-.415.121-.83.219-1.239.03-.13.061-.25.068-.368.076-.037.151-.076.223-.118.279-.163.516-.516.825-.587.079-.018.162-.025.247-.028-.588 1.694-.348 3.563-.547 5.303zm1.479-6.03c-.595.179-1.259-.139-1.803.152-.245.132-.393.344-.616.496-.318.216-.723.347-1.117.433-.678.15-1.721.223-2.35-.094-.463-.233-.65-.751-1.3-.62-.485.098-.776.477-1.16.703-.723.426-1.792.583-2.642.376-.42-.103-.792-.3-1.09-.56-.227-.2-.316-.448-.523-.654-.522-.52-1.195-.162-1.812.031-1.341.421-3.348.715-4.106-.562-.386-.65-.449-1.479-.053-2.134.18-.298.452-.542.745-.768.245-.188.585-.348.763-.584.368-.49-.189-.786-.403-1.216-.264-.532-.057-1.798.712-2.171.178.271.473.48.928.581.788.175 1.497-.328 1.977-.77.307-.282 1.665-1.872 1.882-.917.056.242-.111.575-.181.812-.159.536-.33 1.072-.446 1.615-.163.775-.282 1.612.082 2.36.581 1.198 2.406 1.821 3.561.708 1.066-1.027.781-2.431.622-3.646-.05-.382-.093-.959.333-1.224 1.121-.697 1.126 1.12 1.13 1.534.004.726.015 1.575.703 2.117.486.383 1.247.53 1.838.213.716-.384.817-1.144.714-1.777-.156-.956-.576-1.834.73-2.343.623-.244 1.001-.6 1.126-1.074 1.525.494 1.513 2.42 1.08 3.441-.456 1.071.947 1.26 1.59 1.99.844.961.617 3.091-.914 3.552z" transform="translate(533 22)"/>
                <path d="M5.654 15.112c-.457-.274-.95-.001-1.24.35-.058.07-.123.171-.18.287-.239.374-.324.823.098 1.1.501.329 1.172.079 1.479-.351.297-.417.35-1.082-.157-1.386zm-.551 1.563c-.225.077-.485.062-.653-.058-.162-.374-.134-.695.138-1.047.288-.371 1.004-.639 1.14.009.084.397-.202.95-.625 1.096zM16.475 15c-.657-.005-1.199.32-1.345.712-.183.32-.108.706.286.976.824.564 2.182.324 2.545-.403.33-.662-.483-1.277-1.486-1.285zm1.041 1.156c-.273.52-1.167.715-1.82.345-.144-.082-.242-.181-.3-.287-.117-.506.235-1 1.131-.942.682.045 1.236.416.99.884zM11.477 16.091c-.538-.248-.923.045-1.164.46-.239.275-.363.648-.212.999.247.576 1.073.539 1.513.225.605-.431.557-1.364-.137-1.684zm-.195 1.505c-.331.161-.85.166-.984-.245-.043-.129-.04-.26-.006-.385.222-.394.475-.867 1.021-.597.535.264.475.98-.031 1.227z" transform="translate(533 22)"/>
            </g>
        </g>
    </g>
</svg>
