<svg xmlns="http://www.w3.org/2000/svg" xmlns:xlink="http://www.w3.org/1999/xlink" width="40" height="24" viewBox="0 0 40 24">
    <defs>
        <path id="zf7nls49eb" d="M0 0.064L31 0.064 31 17.769 0 17.769z"/>
        <path id="and1metqqd" d="M0.084 0.071L10.985 0.071 10.985 2.977 0.084 2.977z"/>
        <filter id="izeyofk3pa">
            <feColorMatrix in="SourceGraphic" values="0 0 0 0 0.984314 0 0 0 0 0.984314 0 0 0 0 0.984314 0 0 0 1.000000 0"/>
        </filter>
    </defs>
    <g fill="none" fill-rule="evenodd">
        <g filter="url(#izeyofk3pa)" transform="translate(-18 -13)">
            <g>
                <path fill="#000" d="M26.056 12.11c0-3.01-2.516-5.477-5.574-5.467-3.044.01-5.544 2.468-5.545 5.45-.002 3.02 2.487 5.481 5.552 5.491 3.059.01 5.567-2.456 5.567-5.473zM6 4.667h29v2.293c-1.105.24-2.177.426-3.22.712-.921.252-1.74.73-2.414 1.414-.688.696-1.055 1.512-1.048 2.504.019 2.473.006 4.946.006 7.419v.545H6V4.666z" transform="translate(18 14)"/>
                <g transform="translate(18 14) translate(0 -.297)">
                    <mask id="xyib32c8lc" fill="#fff">
                        <use xlink:href="#zf7nls49eb"/>
                    </mask>
                    <path fill="#000" d="M0 0.064L31 0.064 31 2.502 2.392 2.502 2.392 17.769 0 17.769z" mask="url(#xyib32c8lc)"/>
                </g>
                <g transform="translate(18 14) translate(29 19.553)">
                    <mask id="ir9owr8gie" fill="#fff">
                        <use xlink:href="#and1metqqd"/>
                    </mask>
                    <path fill="#000" d="M.145.07c3.613 1.69 7.173 1.697 10.75.01.262.906-.034 1.524-1.03 2.038-.964.498-2.042.727-3.156.809-1.497.111-2.987.062-4.419-.382-.324-.1-.648-.214-.948-.356C.243 1.667-.063 1.097.145.07" mask="url(#ir9owr8gie)"/>
                </g>
                <path fill="#000" d="M30.076 13.598c2.296 1.742 7.47 1.768 9.79.037.284.604.108 1.308-.456 1.768-.713.583-1.594.842-2.515 1-1.643.28-3.273.238-4.865-.264-.356-.113-.705-.263-1.025-.443-.905-.51-1.15-1.074-.929-2.098" transform="translate(18 14)"/>
                <path fill="#000" d="M30.078 16.575c3.27 1.74 6.529 1.748 9.81.011.262.664.063 1.365-.592 1.85-.9.667-1.969.928-3.082 1.045-1.498.156-2.976.08-4.393-.45-.321-.12-.637-.271-.922-.453-.82-.524-1.036-1.101-.821-2.003M20.796 13.011c-.462-.046-.93-.01-1.402-.01.178 1.055.938 1.637 2.265 1.185l.268 1.075c-1.305.719-3.231.247-3.915-1.552-.204-.536-.39-.877-1.012-.672l.1-.659c.238-.153.729.145.583-.521l-.506-.082.117-.647c.432.09.563-.188.698-.582.525-1.533 1.835-2.195 3.468-1.797.164.04.325.1.54.166l-.23 1.126c-.658-.143-1.318-.401-1.892.111-.236.21-.379.553-.564.836l.079.12h2.22l-.124.707H19.29c-.114.372-.037.514.285.505.592-.016 1.186-.004 1.791-.004.062.558-.119.74-.57.695zM34.964 11.572h.739l-.041.213h-.732c-.038.112-.012.155.095.153.197-.005.394-.002.596-.002.02.169-.04.224-.19.21-.154-.014-.31-.003-.466-.003.059.319.312.494.753.358l.09.324c-.435.217-1.076.075-1.303-.468-.068-.162-.13-.265-.337-.203l.034-.199c.079-.046.242.044.193-.157l-.168-.025.039-.195c.144.027.187-.057.232-.176.175-.463.61-.663 1.154-.543.055.012.108.03.18.05l-.077.34c-.219-.043-.438-.12-.63.034-.078.064-.125.167-.187.252l.026.037m4.594-.448c-.355-.345-.786-.653-1.237-.846-1.708-.73-3.487-.8-5.29-.433-.936.192-1.831.494-2.534 1.193-.66.657-.663 1.47-.008 2.127.214.215.468.402.73.55 1.179.668 2.476.82 3.999.875.419-.049 1.046-.082 1.657-.203.995-.195 1.957-.502 2.686-1.28.574-.614.598-1.398-.003-1.983" transform="translate(18 14)"/>
            </g>
        </g>
    </g>
</svg>
