<svg xmlns="http://www.w3.org/2000/svg" width="126" height="142" viewBox="0 0 126 142">
    <path fill="#fff" fill-rule="evenodd" d="M116.885.132c.115-.276.551-.076.457.202-1.37 4.038-2.645 8.106-3.871 12.191 2.682-2.621 5.258-5.37 7.723-8.24.489-.573 1.313.252.828.817-2.931 3.415-6.006 6.646-9.224 9.689l-.474 1.602c-.198.675-1.112.494-1.157-.09-1.9 1.736-3.85 3.408-5.85 5.015 6.063-2.969 11.837-6.407 17.51-10.192.214-.143.467.19.274.354-6.785 5.754-14.519 10.219-22.732 13.609-1.444 1.044-2.911 2.056-4.403 3.036-8.643 9.495-18.717 17.718-28.839 25.837-.293.235-.654.119-.838-.105-1.667 2.173-3.321 4.354-4.962 6.544 2.723.366 5.432.664 8.13.892 2.127-1.041 4.274-2.048 6.431-3.034 4.63-9.104 10.673-16.883 18.29-23.631-.042-.258.06-.55.364-.656.222-.077.443-.156.663-.236.58-.5 1.17-.993 1.768-1.48.442-.36 1.012-.074 1.16.324 3.718-1.575 7.252-3.478 10.823-5.467.17-.096.296.15.147.264-3.784 3-8.097 5.218-12.535 7.003-7.742 6.676-13.628 14.274-18.452 22.87 4.652-2.095 9.343-4.117 14.006-6.195-.04-.078-.04-.175.036-.26 4.21-4.713 9.47-8.47 15.037-11.825-.025-.043-.034-.096-.016-.153 2.357-7.585 6.848-14.508 12.06-20.542.468-.542 1.244.234.796.773-5.139 6.178-8.863 12.841-12.447 19.936l.181-.358c1.631-.971 3.287-1.91 4.948-2.831 1.037-1.693 2.04-3.416 3-5.21 2.093-3.908 4.832-6.228 8.61-8.412.637-.369 1.191.606.574.995-2.523 1.583-5.07 3.14-6.837 5.63-1.182 1.66-1.974 3.592-2.95 5.377-.079.145-.158.29-.239.435 3.257-1.777 6.507-3.506 9.609-5.29.777-.446 1.482.745.705 1.187-3.765 2.15-7.711 4.21-11.642 6.344-1.443 2.285-3.124 4.447-5.129 6.205-.118.1-.317-.033-.224-.176 1.052-1.613 2.087-3.198 3.097-4.792-6.772 3.747-13.38 7.809-18.8 13.034l.465-.44c8.307-3.716 16.513-7.636 24.239-12.486.725-.456 1.38.69.667 1.152-5.56 3.584-11.359 6.697-17.281 9.572 6.37-1.81 12.778-3.493 19.255-4.822.337-.07.476.43.143.53-4.364 1.337-8.75 2.59-13.14 3.835 4.184.843 8.43.798 12.604-.1.73-.157 1.04.8.311.937-4.55.85-8.954.688-13.396-.478-.114-.03-.171-.097-.185-.172-5.084 1.441-10.172 2.873-15.23 4.411l2.159-.644c-2.386 1.08-4.784 2.139-7.185 3.19 1.934.063 3.864.144 5.798.24.61.03.601.85 0 .805-2.778-.21-5.548-.45-8.32-.722l1.462.14c-2.667 1.164-5.337 2.321-8.002 3.492-.372.704-.738 1.415-1.099 2.133 6.165.267 12.289.147 18.417-.405 2.638-2.268 5.178-4.63 7.575-7.119.232-.24.563.112.357.362-1.773 2.16-3.705 4.187-5.753 6.11 8.132-3.797 16.493-7.126 25.154-9.529.672-.188.946.832.285 1.04-4.446 1.395-8.855 2.837-13.223 4.392 5.072-.223 10.031-.982 14.905-2.429.699-.208.997.89.3 1.088-5.036 1.43-10.134 2.094-15.37 1.829-.208-.01-.276-.214-.208-.353l-.949.34c-3.42 1.239-6.815 2.552-10.18 3.972 5.413-.605 10.835-1.557 16.294-2.882.815-.197 1.159 1.14.344 1.338-6.474 1.546-13.006 2.627-19.56 3.19-5.63 4.907-11.97 9.161-18.234 13.328 6.254.442 12.831-2.526 18.593-4.363 5.79-1.844 11.55-3.782 17.381-5.501.298-.088.399.34.127.448-2.853 1.13-5.732 2.193-8.629 3.211 3.806.307 7.52.117 11.333-.242.524-.05.634.686.124.762-4.156.632-8.367.424-12.499-.214l.116.018c-4.311 1.501-8.657 2.908-13.004 4.295-5.063 1.615-9.72 3.289-14.938 2.515-3.065 2.039-6.096 4.067-9 6.152-.135.095-.265.02-.318-.097-2.616 4.091-5.726 7.842-9.77 11.104-.145.117-.351-.08-.208-.205 5.975-5.282 9.749-11.759 12.982-18.617-.718-2.206-1.05-4.455-1.03-6.864.004-.38.434-.361.462 0 .163 1.954.54 3.883 1.101 5.72 1.729-3.75 3.325-7.6 5.055-11.418-1.061-.09-2.122-.196-3.182-.317-5.733 2.606-11.399 5.352-16.894 8.438-3.478 4.864-6.871 9.782-10.155 14.774 7.396-3.154 13.51-7.743 18.21-14.381.155-.22.519-.014.366.213-4.655 6.982-11.365 12.696-19.298 15.654-.1.038-.192.046-.272.033-2.577 3.954-5.084 7.957-7.512 12.018 2.735-2.328 5.733-4.283 8.713-6.376 5.573-3.912 10.352-8.532 14.954-13.561.197-.216.583.08.407.32-3.388 4.557-7.386 8.573-11.795 12.095-5.058 4.038-10.56 7.292-14.862 12.254-.1.115-.209.188-.32.225-.728 1.263-1.445 2.532-2.155 3.807 11.082-4.645 21.15-11.408 32.935-14.24 1.92-.462 3.847-.857 5.774-1.214 6.463-3.95 13.015-7.797 19.736-11.264.553-.284 1.04.557.49.86-6.783 3.734-13.64 7.33-20.433 11.053l1.68-.914c9.164-1.61 18.336-2.49 27.146-5.52 2.025-3.701 5.219-6.987 7.857-10.295.476-.602 1.328.039.851.626-2.486 3.069-4.829 6.578-7.747 9.331 1.708-.622 3.403-1.328 5.08-2.141.613-.296 1.152.625.535.924-11.79 5.7-24.346 6.225-36.98 8.69-13.555 2.642-24.596 10.495-37.402 14.967l-.227.412c15.069-2.918 30.527-4.123 45.99-4.048 6.014-2.69 12.032-5.364 18.065-8.018.8-.352 1.59-.709 2.374-1.056l-.376-.07c-.301-.058-.17-.503.123-.452.355.06.71.116 1.064.169 3.567-1.55 7.08-2.814 11.152-2.538.648.044.657 1.046 0 1.016-3.248-.15-6.376.618-9.424 1.749 7.51.878 14.762.139 22.18-1.781.74-.191 1.048.937.315 1.14-7.71 2.134-15.669 2.313-23.515 1.035-3.081 1.223-6.084 2.759-9.05 4.025-4.539 1.938-9.092 3.847-13.643 5.757l2.295-.964c8.305.086 16.608.537 24.848 1.286 1.489-.222 2.987-.427 4.496-.606-.035-.135.008-.285.174-.374 4.547-2.455 9.269-4.608 14.175-6.29.64-.218.912.77.279.99-4.835 1.682-9.53 3.598-14.077 5.933l.816-.413c2.984-.32 6.014-.524 9.11-.541.682-.002.68 1.14 0 1.142-3.476.01-6.858.254-10.178.628 4.141.435 8.263.941 12.359 1.512.578.08.332.97-.243.89-5.66-.779-11.285-1.366-16.886-1.782-15.099 2.196-29.176 6.088-45.333 1.399-.365-.106-.21-.707.155-.609 14.328 3.8 27.113 1.1 40.319-1.109-13.864-.794-27.607-.577-41.429.317.486.049.981.065 1.485.047.349-.012.349.446 0 .452-1.093.018-2.14-.111-3.13-.388-8.727.595-17.487 1.457-26.33 2.5l1.411-.167c-4.36 7.982-8.39 16.203-12.005 24.727-.19.447-.66.52-1.055.372-.006 2.769-1.981 5.337-4.783 6.063-.178.048-.245-.207-.075-.263 2.819-.927 4.594-3.478 4.391-6.343l.012.226c-.164-.2-.233-.46-.116-.742 1.924-4.691 3.986-9.32 6.174-13.888-.087-.03-.16-.109-.173-.243-.156-1.512-.4-3.01-.624-4.512-.002-.007-.002-.014-.003-.022-.503.87-1.005 1.74-1.504 2.612.265 1.285.532 2.568.77 3.858.06.325-.38.462-.442.139-.216-1.167-.412-2.339-.606-3.511-.26.454-.518.908-.776 1.363.254 1.653.505 3.306.771 4.957.062.383-.43.534-.476.158-.26-2.186-.544-4.37-.818-6.554l.244 1.931-.723 1.283c.23 1.762.459 3.523.686 5.286.042.322-.36.375-.396.06-.242-2.217-.482-4.432-.722-6.647l.187 1.738c-.285.51-.57 1.02-.853 1.53.324 2.083.625 4.169.934 6.253.05.341-.39.48-.434.145-.334-2.529-.678-5.055-.984-7.586l.21 1.68-.905 1.641c.37 2.07.738 4.14 1.107 6.212.044.248-.302.35-.342.104-.356-2.233-.71-4.467-1.064-6.7l.113.722c-.536.978-1.07 1.958-1.6 2.94.205 1.313.486 2.6.87 3.878.087.297-.303.434-.385.13-.312-1.165-.56-2.35-.73-3.553-.589 1.094-1.175 2.19-1.757 3.29.151.44.38.844.7 1.207.126.142-.09.324-.194.166-.258-.39-.462-.778-.606-1.183-.72 1.36-1.434 2.723-2.142 4.091l.469-.903c1.64-1.164 3.836-1.716 5.698-1.942.356-.041.358.547 0 .584-2.344.234-4.094 1.2-6.131 2.192l-.036.069c-.082.16-.238.181-.365.125l-.036.017c-.108.05-.22-.08-.133-.175l.001-.001c-.04-.077-.047-.174.003-.274.806-1.586 1.623-3.166 2.45-4.74-.028-.236-.038-.482-.028-.74.002-.079.112-.079.112 0 0 .18.01.357.027.53.605-1.15 1.216-2.294 1.833-3.436-.067-.675-.108-1.355-.12-2.04-.005-.154.175-.147.187 0 .044.544.097 1.082.163 1.615.89-1.644 1.792-3.28 2.705-4.908l-.074-.598c-.028-.22.252-.32.288-.095l.039.247c.295-.528.593-1.055.893-1.582l-.07-.65c-.018-.163.238-.198.26-.04l.037.293c.241-.425.484-.85.727-1.273l-.113-.893c-.03-.227.252-.33.288-.098l.084.544c.254-.442.51-.884.768-1.326l-.193-1.144c-.036-.204.24-.294.282-.088l.162.8c.893-1.53 1.795-3.051 2.708-4.567l.006-.193c.006-.129.117-.179.2-.148l.704-1.164.002-.004-.07-.658c-.021-.19.236-.245.31-.104l.018.055.034.229.626-1.024c-1.677-3.423-3.292-6.87-4.844-10.34-.078-.001-.161-.023-.246-.07-6.234-3.394-10.854-8.385-14.163-14.609-.13-.24.237-.455.369-.215 3.064 5.63 7.81 10.184 13.359 13.359-3.18-7.211-6.09-14.524-8.727-21.94-4.306-5.074-7.307-10.83-9.026-17.2-.028-.1.13-.144.161-.043 1.76 5.6 4.485 10.664 8.159 15.233C6.166 66.924 4.06 60.16 2.176 53.31c-.059-.221.281-.312.347-.095 5.654 18.592 12.674 36.579 21.133 54.063.024-.23.353-.264.38-.012.04.34.08.682.118 1.023l.427-.692c.748-1.205 1.503-2.407 2.263-3.604l-.064-.69c-.022-.242.314-.297.342-.058l.03.268c1.647-2.589 3.324-5.159 5.028-7.711-.006-.412-.01-.824-.01-1.236-1.579-2.214-3.7-4.094-5.056-6.47-1.881-3.298-2.916-7.015-3.933-10.667-.095-.342.409-.481.513-.146 1.418 4.558 2.896 9.252 6.007 12.916.512.602 1.046 1.16 1.578 1.709.055-.3.113-.598.171-.896-2.456-9.127-4.557-18.37-6.267-27.685-2.632-1.681-5.092-3.294-7.232-5.674-2.493-2.768-4.627-5.778-7.656-8.015-.292-.216-.023-.705.29-.496 2.612 1.757 4.659 4.038 6.781 6.338 2.13 2.306 4.473 3.98 6.953 5.655l.313-.89-.053-.307c-.537-3.104-1.03-6.215-1.479-9.333l-.03.144c-.128.6-1.005.343-.89-.253.167-.864.35-1.724.545-2.58-.224-1.66-.436-3.321-.634-4.984-.081.125-.228.2-.415.136C15.031 40.8 9.483 36.834 5.191 31.273c-.084-.108.102-.25.19-.145 2.217 2.642 4.76 4.928 7.571 6.816-1.554-4.1-2.833-8.348-3.777-12.617-.052-.241.299-.335.376-.1 1.477 4.467 2.994 8.906 4.59 13.335.021.058.03.113.028.163 2.404 1.478 4.99 2.675 7.723 3.567.052.017.097.041.133.07-.295-2.495-.559-4.994-.793-7.494-3.746-5.02-6.298-10.648-8.056-16.606-.05-.174.216-.243.273-.073 1.832 5.309 4.457 10.137 7.61 14.754-.113-1.286-.217-2.573-.313-3.86-.29.047-.607-.113-.574-.479.085-.975.199-1.94.341-2.897-.138-2.168-.252-4.337-.343-6.507-.007-.149.211-.142.225 0 .15 1.495.306 2.989.467 4.48.636-3.257 1.625-6.412 3.006-9.51.073-.165.352-.045.294.122-1.474 4.294-2.458 8.716-2.873 13.225.27 2.341.554 4.677.853 7.008.025.06.032.12.025.176.424 3.318.881 6.628 1.37 9.93 2.857-10.817 7.281-21.12 8.399-32.424.015-.151.238-.158.234 0-.284 12.153-5.295 23.303-8.256 34.927.524 3.425 1.084 6.842 1.68 10.252 1.611-4.951 2.968-9.979 4.059-15.094.074-.354.573-.2.511.147-1.003 5.78-2.399 11.417-4.215 16.956.193 1.079.39 2.156.59 3.233l.334.225c.482.329.317.972-.07 1.175 1.046 5.531 2.193 11.047 3.446 16.553l-.034-.627c-.24-6.049.477-11.88 1.984-17.756.049-.19.344-.104.313.078-1.144 6.782-1.714 13.569-1.033 20.417.16 1.613.415 3.204.708 4.786.217-.984.443-1.964.68-2.94.967-6.938 2.945-13.756 5.911-20.076-.367-3.753-.238-7.458.332-11.2.042-.268.436-.204.41.064-.317 3.236-.315 6.451-.03 9.668.517-1.034 1.06-2.053 1.632-3.057 2.015-4.657 4.262-9.239 6.733-13.761.107-.196.395-.022.293.174-1.75 3.31-3.37 6.666-4.865 10.067 1.95-2.948 4.151-5.724 6.604-8.278.4-2.301.716-4.597.939-6.883.021-.217.346-.226.344 0-.04 1.976-.167 3.963-.372 5.957l.066-.067c.17-.17.408.082.258.263l-.398.492c-.523 4.706-1.475 9.451-2.742 14.194.117-.024.247.09.158.21l-.34.463c-1.99 7.275-4.709 14.54-7.755 21.643 2.958-4.148 5.988-8.252 9.084-12.312.016-.021.051 0 .037.02-3.248 4.308-6.401 8.671-9.464 13.087-1.096 2.533-2.232 5.045-3.39 7.529 5.868-9.608 12.223-18.946 18.92-28.043-.088-.178-.093-.397.047-.622.411-.664.819-1.33 1.222-1.998-.234-.053-.444-.228-.476-.518-.741-6.839-.912-13.693-1.17-20.533-.303.147-.737.07-.868-.338-1.592-4.918-2.911-9.894-3.976-14.925-.927 4.011-2.141 7.95-4.186 11.574-2.782 4.937-7.835 7.486-11.235 11.632-2.101 3.238-4.513 6.27-7.234 9.09-.1.107-.252-.051-.156-.163 1.928-2.189 3.701-4.479 5.318-6.867-.277-.133-.462-.453-.269-.795.815-1.439 1.889-2.64 3.08-3.737 1.728-3.047 3.223-6.239 4.482-9.572-.244.262-.701.247-.782-.23-.992-5.88-.846-11.657.372-17.472.046-.225.328-.128.294.095-.844 5.713-.734 11.402.258 17.08.007.04.01.079.011.116l.122-.33.29-.809c.172-.495.942-.28.768.22-1.176 3.347-2.598 6.537-4.267 9.567 2.309-1.895 4.809-3.635 6.622-6.048 3.172-4.223 4.922-9.252 6.313-14.314-.645-3.14-1.19-6.3-1.64-9.48-.031-.222.301-.324.352-.096.56 2.577 1.157 5.144 1.787 7.701.244-.93.478-1.858.711-2.778.024-.091.16-.052.147.04-.222 1.143-.446 2.29-.686 3.434 1.399 5.624 2.958 11.203 4.659 16.76l-.357-1.181c-.325-7.98-.846-15.939-2.61-23.831-.061-.276.356-.391.432-.117 4.081 15.11 3.27 30.84 4.56 46.307l-.04-.522c.385-.646.767-1.294 1.146-1.943-.068.003-.136-.071-.086-.147l1.283-1.956c-.205-.121-.346-.346-.287-.635 1.828-8.78 2.061-17.601 1.972-26.454-.044-.054-.08-.12-.102-.2-1.878-6.439-3.032-12.853-3.883-19.486-.016-.14.223-.168.247-.033.888 5.284 2.186 10.545 3.68 15.713-.068-3.886-.162-7.778-.173-11.675 0-.17.26-.167.27 0 .117 1.874.237 3.746.352 5.617 2.322-5.627 4.272-11.386 5.671-17.367.153-.658 1.092-.38.935.276-1.511 6.369-3.603 12.443-6.524 18.21l-.012.022c.16 2.68.306 5.357.407 8.032l.12.394c.06.197.014.362-.088.481.284 8.332.115 16.638-1.35 24.931 4.927-8.894 9.225-18.069 13.086-27.59.091-.226.445-.141.368.103-3.341 10.26-7.739 20.102-12.979 29.466 5.816-7.567 11.849-14.967 18.013-22.218.225-6.352 1.939-12.5 4.638-18.381.08-.175.4-.109.328.08-2.071 5.42-3.103 10.9-3.478 16.554 1.828-2.135 3.667-4.258 5.513-6.368l.016-.048c2.74-7.003 6.189-13.716 9.9-20.304.019-.037.075-.002.056.032-2.803 5.803-5.251 11.721-7.646 17.674 3.773-4.274 7.578-8.497 11.396-12.673.137-.147.337.068.216.22C93.47 19.668 86.77 27.91 80.16 36.183c5.73-2.87 11.21-6.11 16.415-9.714l.143-.1c.179-.197.356-.395.533-.593-.168-.334-.086-.837.365-1.02.278-.112.555-.225.832-.34 3.829-4.419 7.334-9.13 10.387-14.24.117-.195.424-.019.31.178-2.804 4.848-6.014 9.341-9.523 13.57.397-.169.792-.34 1.186-.513 3.818-2.877 7.477-5.962 10.963-9.25 1.473-4.77 3.203-9.433 5.114-14.03zM7.226 137.423c-.191-.227.15-.467.335-.241.937 1.146 2.136 2.013 3.53 2.624.165.072.044.338-.124.276-1.503-.579-2.738-1.46-3.74-2.659zm5.535-5.23c-.02-.054.066-.078.088-.024.234.586.474 1.17.722 1.752.05.11-.112.176-.152.064-.21-.602-.43-1.198-.658-1.792zM23.73 110l-.78 1.306c.135.895.324 2.12.452 2.845l.005.031.028-.01.043-.016c.118-.04.232.032.298.137.322.503-.182 1.061-.618.664-.288-.26-.284-.794-.322-1.169-.126-1.17-.25-2.342-.374-3.513l.167 1.574-.699 1.182c.009.263.023.526.043.788l.049.522c.015.128.131 1.239.22 1.936l.005.048.01-.01c.039-.034.09-.053.149-.043l.062.02c.028.01.054.024.08.035.102.047.194.14.188.275-.012.244-.05.316-.228.45-.07.053-.186.053-.258 0-.49-.376-.458-1.161-.53-1.774-.068-.564-.104-1.128-.114-1.694l-.892 1.528c.087-.044.198-.018.219.113.25 1.514.478 3.036.796 4.538l-.053-.259c.818-1.698 1.654-3.388 2.506-5.07-.028-.146-.01-.307.07-.472l.719-1.47-.427-.85.135 1.035c.066.49-.49.579-.526.091-.057-.772-.124-1.542-.196-2.312-.077-.152-.152-.304-.227-.456zm-.323 4.182l-.013.006c-.324.112-.188.677.14.57-.015.004-.053-.171-.105-.456l-.022-.12zm2.37-7.567c-.455.744-.906 1.489-1.356 2.235.555 1.134 1.117 2.266 1.684 3.395l-.511-1.025.409-.835c-.25-1.346-.317-2.685-.207-4.076zm.301 3.186l.003.425.282-.576-.024-.148-.012-.002c-.125 0-.248.1-.249.301zm6.116-13.391l-.757 1.17c-.732 1.138-1.458 2.278-2.179 3.422.068.07.037.218-.09.218-.015 0-.03-.002-.043-.007-.634 1.007-1.265 2.018-1.892 3.031l.064.562-.048-.016c-.146-.034-.308.066-.293.3l.027.464-.041-.505-.026-.29-.834 1.357c.052.032.088.096.084.193-.052 1.003-.008 1.984.134 2.953l.039.24.04.005c.016.003.032.009.046.016 1.995-4.068 4.047-8.252 6.076-12.523-.172-.098-.299-.276-.305-.532l-.002-.058zm-4.897 8.396c.093.045.164.139.173.284.032.57.068 1.138.09 1.708.014.393-.474.39-.492 0l.482-.082c-.091-.574-.165-1.152-.233-1.731l-.02-.179zm6.973-11.57l-.583.882-.097.148c.185.703.37 1.405.557 2.107l-.484-1.835.607-1.301zm11.093-27.352l-.327.391c-2.44 2.886-5.096 5.46-8.295 7.742l.034-.024c-.887 2.904-1.696 5.837-2.428 8.795-.568 3.512-.872 7.144-.901 10.919l.04.153c.514-.762 1.031-1.523 1.55-2.282 3.847-8.361 7.482-16.997 10.327-25.694zm-31.193.397c-.018-.216.339-.265.37-.05.497 3.446.95 6.902 1.347 10.364 1.719-2.794 2.89-5.865 3.45-9.176.1-.576.911-.325.826.24-.548 3.697-1.939 7.034-4.165 9.923.486 4.339.882 8.69 1.17 13.045.043.628-.884.612-.938 0-.722-8.11-1.365-16.233-2.06-24.346zm106.142 16.875c.785-.328 1.228.7.454 1.007-6.25 2.458-12.633 3.368-19.378 2.734-.287-.027-.296-.441 0-.428 6.545.267 12.937-.822 18.924-3.313zm-27.898-20.38l-.57.04c-5.536.373-11.086.373-16.627-.03-.764 1.557-1.5 3.148-2.215 4.769-2.314 5.255-4.608 10.298-7.503 14.92 2.677-1.917 5.401-3.818 8.135-5.732l-.073-.013c-.687-.139-.394-1.176.29-1.038.345.07.69.127 1.037.174 5.963-4.183 11.938-8.446 17.526-13.09zM49.697 49.203l-.38.489c-3.874 5.041-7.084 10.194-9.58 15.575l.025.192c.04.308-.137.53-.34.605-.793 2.184-1.538 4.386-2.236 6.604 3-2.34 5.967-4.98 8.527-7.866 1.658-5.197 3.028-10.411 3.984-15.6zm11.306 11.632c-2.126 2.843-4.227 5.7-6.3 8.578 4.291-2.714 8.737-5.135 13.27-7.391-2.557-.352-5.111-.793-7.66-1.328zm13.803-.368l-.715.318c-.547.243-1.093.487-1.638.732.605.04 1.21.076 1.813.108l.171-.37.297-.636.072-.152zm18.923-30.906l-.178.112c-4.556 2.843-9.327 5.401-14.314 7.667-3.973 4.98-7.911 9.975-11.787 15.006 9.17-7.172 18.256-14.492 26.28-22.785zM88.918 2.417c.443-.743 1.572-.085 1.164.67-1.641 3.058-3.815 5.765-6.42 8.083-1.26 1.12-2.609 2.12-4.047 3.005-.899.556-4.053 1.367-3.334 2.89.007.017-.014.036-.026.02-.194-.215-.394-.424-.601-.625-1.365 2.282-2.87 4.467-4.516 6.563-1.777 7.707-4.556 15.159-8.612 21.972-.133.219-.44.026-.335-.198 3.064-6.59 5.603-13.116 7.414-19.9l-.105.126c-.17.202-.441-.09-.282-.292.219-.278.436-.558.65-.84 1.101-4.312 1.906-8.733 2.363-13.346.058-.603.998-.608.936 0-.378 3.77-.951 7.528-1.75 11.231 2.723-3.879 5.026-8.032 6.9-12.437.238-.558 1.057-.076.805.483-.768 1.704-1.602 3.362-2.502 4.973 5.05-3.355 9.119-7.051 12.298-12.378zm17.665 33.692c.593-.15.837.71.25.873-5.42 1.516-10.93 2.952-16.45 4.104-.22.047-.302-.247-.092-.317 5.343-1.756 10.83-3.263 16.292-4.66zm16.787-20.817c.29-.466 1.023-.037.733.432-2.044 3.298-3.877 6.71-5.483 10.248-.112.25-.533.068-.436-.187 1.408-3.665 3.124-7.161 5.186-10.493z"/>
</svg>
