<svg xmlns="http://www.w3.org/2000/svg" width="170" viewBox="0 0 22 30">
    <defs>
        <filter id="60vfftedaa">
            <feColorMatrix in="SourceGraphic" values="0 0 0 0 0.000000 0 0 0 0 0.000000 0 0 0 0 0.000000 0 0 0 0.200000 0"/>
        </filter>
    </defs>
    <g fill="none" fill-rule="evenodd">
        <g filter="url(#60vfftedaa)" transform="translate(-218 -22)">
            <g>
                <path fill="#000" fill-rule="nonzero" d="M21.775 12.306c-.272-.376-.734-.528-1.176-.632.215-.688.26-1.496.295-2.195.042-.83-.032-1.671-.214-2.484-.14-.631-.324-1.358-.683-1.91-.193-.298-.422-.447-.695-.507.076-.99-.53-2.708-1.476-3.143-.435-.2-.901-.044-1.339.07-.61.159-1.258.25-1.78.622-.114.081-.147.199-.087.325.287.606.379 1.234.567 1.852-.416-.12-.846-.197-1.256-.335.145-.279.074-.676.144-.98.063-.273.095-.518.044-.796-.02-.1-.132-.17-.23-.171-.377-.007-.734-.138-1.11-.155-.14-.007-.325-.032-.494-.025.162-.304.513-.712.437-1.065-.074-.343-.511-.398-.808-.457-.61-.121-1.239-.216-1.853-.308-.42-.063-.636.13-.848.48-.183.3-.36.705-.477 1.135-.36.031-.737.254-1.061.372-.3.11-.625.19-.924.315-.19-.3-.421-.584-.69-.723-.392-.202-.753-.02-1.136.104-.71.228-1.365.51-2.047.81-.124.054-.134.215-.085.318.392.817.673 1.585.888 2.448l-.225.001c-.202.004-.46-.025-.655.05-.407.156-.523.727-.614 1.093-.066.265-.11.535-.14.807-.491.093-2.309.512-2.001 1.234.136.32.36.616.495.946.123.301.234.607.34.914.22.63.426 1.233.727 1.825l-.08.03c-.376.072-.737.19-.924.56-.25.494-.083 1.14.003 1.651.149.887.221 1.785.35 2.675.25 1.72.79 3.353 1.175 5.042.404 1.766.703 3.556 1.104 5.325.184.81.157 2.958 1.567 2.517.25-.078.462-.237.688-.359.44-.237.917-.407 1.39-.565.84-.279 1.7-.488 2.577-.62 1.891-.286 3.868-.237 5.722.238 1.148.295 2.798 1.211 3.73.056.812-1.006.84-2.652 1.04-3.855.304-1.827.6-3.655.907-5.48.298-1.769.518-3.574.946-5.318.138-.562.351-1.21-.028-1.732zM19.574 5.38c.065.082.126.182.182.31.258.59.424 1.237.53 1.869.234 1.387-.036 2.652-.16 4.01-.462-.094-.926-.16-1.329-.076.096-.876.053-1.757-.021-2.635-.083-.987-.042-2.047-.248-3.023l.035-.005c.263-.049.74-.22 1.01-.45zm-.87.082c-.468.192-.84-.077-1.258-.24l.085-.03c.199-.065.457-.04.664-.061.416-.041.767-.105 1.054.005-.193.106-.383.26-.544.326zm-2.039 10.471c-.267.675-.64 1.259-1.12 1.743.195-1.087-.07-2.274-.021-3.375.053-1.203.442-2.32.644-3.49.019 0 .038-.002.058-.004.303-.035.654-.198.946-.384.015.322-.202.751-.276 1.016-.163.589-.315 1.18-.41 1.784-.144.911-.176 1.852.18 2.71zm-1.456-.1l.005.164c-.128-.467-.296-.903-.441-1.24-.157-.362-.321-.702-.675-.848-.149-.9.361-1.85.604-2.697.093-.323.182-.68.377-.935.248.245.546.474.89.525-.417.984-.658 2.108-.756 3.152-.06.624-.029 1.255-.004 1.88zm-1.064 1.35c-.105-.714-.226-1.564-.676-2.162.224-.112.488-.298.647-.507.226.263.323.682.427 1 .169.517.287 1.058.309 1.602.017.418-.08.812-.127 1.22-.182.116-.378.219-.581.315.067-.487.073-.978.001-1.467zm-1.207-.154c-.088-.439-.205-.88-.382-1.293-.118-.274-.294-.512-.452-.76.388.142.808.26 1.197.12l.047-.02c.162.674.366 1.324.469 2.014.087.585.043 1.148-.047 1.724-.241.091-.49.167-.741.227.196-.615.024-1.438-.091-2.012zm-1.776 1.04c.039.356.082.806.274 1.138-.256-.005-.51-.027-.763-.062-.348-1.398-.025-2.947.114-4.354.149-1.504.383-3.1.847-4.554.312.022.778-.165 1.07-.404 0 .027 0 .054-.002.084-.026.38-.22.8-.342 1.156-.532 1.547-1.073 3.151-1.218 4.785-.064.726-.058 1.486.02 2.212zm-.91 1.003l-.079-.015c-.227-.05-.448-.113-.664-.185.007-.013.014-.026.019-.04.487-1.453.39-3.154.19-4.697.085-.705.092-1.426.215-2.127.11-.63.269-1.263.452-1.877.072-.241.145-.556.333-.746.153.295.387.66.699.798-.269.62-.388 1.29-.521 1.949-.172.846-.35 1.682-.45 2.54-.168 1.42-.487 2.973-.193 4.4zM7.53 10.496c.34-.112.656-.365.832-.672.02.04.04.082.055.129.185.55.263 1.17.387 1.737.187.855.34 1.718.431 2.588.153 1.459.2 2.988-.202 4.412-.422-.18-.816-.408-1.18-.678.3-2.482.165-5.063-.323-7.516zm-.067 7.203c-.297-.263-.57-.558-.813-.887-.13-.175-.251-.355-.367-.538.117-1.601.307-3.227.09-4.825-.043-.31-.098-.624-.176-.928-.031-.119-.049-.221-.051-.311.378.162.777.384 1.182.334.138 1.254.227 2.513.281 3.774.048 1.123-.188 2.265-.146 3.381zM6.196 9.97c.063-.118.19-.204.403-.274.488-.161 1.175-.396 1.572-.097-.354.32-.66.722-1.21.607-.27-.056-.505-.18-.765-.237zm2.85.646c-.112-.55-.187-1.367-.808-1.602-.048-.018-.098-.032-.149-.043.451-1.394.041-2.851-.338-4.235.376.183.803.326 1.203.231.214 1.357.334 2.703.44 4.074.083 1.085.165 2.242.032 3.335-.121-.587-.258-1.17-.38-1.76zM7.769 4.438c.421-.259.901-.448 1.386-.532.216-.037.402-.014.565.05-.226.241-.428.513-.756.637-.415.157-.794-.066-1.195-.155zm1.398.455c.318-.142.665-.422.882-.734.25.22.436.545.595.862.33.657.488 1.36.557 2.087.05.516.148 1.12.025 1.638-.588 0-.906.219-1.118.759-.144.368-.249.773-.331 1.181-.01-.51-.02-1.022-.06-1.532-.103-1.384-.06-2.938-.55-4.261zm1.087-2.211c.037-.37.127-.734.266-1.08.066.018.135.03.209.036.44.04.967-.093 1.354-.361-.1.181-.222.37-.262.461-.224.503-.338 1.073-.421 1.613-.12.777-.07 1.536.025 2.3-.12-.402-.282-.79-.496-1.16-.179-.31-.403-.625-.69-.842.049-.31-.016-.655.015-.967zm6.542 2.896c.1 1.339.151 2.646-.167 3.964l-.11-.008c-.255-.024-.514-.069-.765-.073.261-.516.2-1.275.17-1.807-.028-.506-.073-1.14-.388-1.57.184-.378.376-.753.571-1.126.06-.114.032-.26-.087-.327-.155-.086-.317-.155-.483-.215.104-.547-.048-1.13-.26-1.661.346.216.741.393 1.128.39.093.344.253.675.325 1.028.058.28.075.571.113.856-.063.156-.062.348-.047.549zm-1.372 3.907c-.166.031-.326.094-.476.21-.384.299-.551.795-.676 1.241-.063.223-.151.471-.24.732.08-.846.188-1.69.37-2.517.21-.945.556-1.836.961-2.705.067.46.14.912.14 1.386 0 .538-.15 1.119-.08 1.653zm.297.451c.251-.019.957.01 1.21.12.037.016.069.036.097.058-.43.229-.802.504-1.308.294-.052-.021-.478-.296-.482-.292.124-.098.28-.164.483-.18zm-.31-4.691c-.625 1.21-1.176 2.448-1.464 3.783-.34 1.573-.352 3.188-.242 4.786 0 .007.003.012.005.018-.59-.033-1.269.204-1.81.48.04-.17.08-.34.125-.51.26-.975.584-1.932.9-2.892.11-.339.254-.67.304-1.026.023-.173.033-.36-.027-.527-.073-.206-.238-.229-.343-.383-.115-.17-.012-.606.033-.783.072-.283.192-.55.292-.824.246-.673.468-1.351.72-2.022.463.142 1.025.09 1.506-.1zm-1.636 9.047c-.2.22-.36.491-.696.572-.393.094-.757-.16-1.14-.178-.012-.022-.024-.044-.034-.066.572-.126 1.153-.394 1.737-.351.048.003.091.012.133.023zm-1.019-6.806c-.152.37-.442.945-.298 1.37-.237-.052-.503-.08-.742-.095.146-.399.083-.933.022-1.38.178-.816.323-1.67.725-2.399.118-.213.272-.48.492-.604.018-.01.037-.019.055-.027.09.495.388.8.774.953-.44.672-.724 1.446-1.028 2.182zm-.164 1.974c-.277.132-.599.52-.935.473-.259-.037-.632-.471-.796-.652.023-.012.047-.023.073-.032.327-.109.775.03 1.102.08.245.037.44.032.556.131zm-.83 5.557c.075.189.18.361.276.557.211.428.328.898.417 1.363.087.451.136.912.132 1.37-.002.28-.052.553-.047.828-.193.03-.387.05-.581.062-.07-.276-.2-.539-.254-.825-.087-.459-.091-.93-.097-1.396-.01-.667.046-1.315.154-1.959zm5.184-1.67c.126-.787.336-1.582.59-2.339.116-.348.36-.844.08-1.182-.158-.19-.423-.243-.683-.265.117-.233.167-.502.235-.755.16-.592.238-1.18.26-1.792.016-.495-.053-.946-.086-1.436-.006-.089-.013-.15-.014-.197.306.208.625.436.99.462-.052.99.065 2.03.115 3.015.027.531.076 1.057.053 1.59-.017.396-.074.794-.078 1.191-.23.131-.426.342-.568.668-.397.914-.61 1.905-.908 2.86-.072-.6-.086-1.194.014-1.82zm1.05-11.195c.257.314.443.773.556 1.077.16.433.209.874.293 1.32-.067.003-.136.009-.207.017-.457.052-1.012.004-1.448.153l-.01.004c-.018-.221-.067-.441-.12-.639-.083-.305-.196-.694-.413-.966.556-.12.967-.574 1.348-.966zm-1.63-.14c.39-.095.894-.33 1.284-.149l.037.02c-.298.321-.626.711-1.042.838-.519.158-.967-.159-1.441-.337.36-.19.76-.274 1.161-.372zM13.95 4.469c.432.144.89.214 1.32.358-.827.167-1.67.505-2.063-.532.247-.028.485.088.743.174zm-.286-1.962c-.015.272-.12.526-.16.793-.02.13.057.371-.026.482-.076.102-.208.06-.321.074-.333.04-.588.247-.788.5-.26.328-.439.704-.566 1.103-.025-.352-.063-.704-.057-1.052.007-.426.05-.88.137-1.326.278.08.635.032.876-.03.338-.087.69-.265.905-.544zm-.996-.245c.257.039.508.108.762.16-.218.137-.443.246-.706.305-.176.039-.358.062-.539.048-.077-.006-.151-.024-.225-.04.052-.2.113-.395.186-.581.154.077.366.085.522.108zM10.23.547c.226.046.455.069.684.096.143.018.899.052 1.193.162-.09-.033-.638.354-.762.399-.708.255-1.175-.064-1.6-.594.123-.105.251-.111.485-.063zM9.592.79l.004-.005c.173.32.394.595.712.743-.185.292-.277.631-.34.975-.052.282-.124.634-.09.947-.129-.048-.266-.076-.416-.078-.13-.002-.261.009-.395.028-.053-.854.026-1.883.525-2.61zM7.796 2.429c.252-.08.56-.15.829-.27-.065.469-.04.932.143 1.299-.458.11-.914.314-1.302.546-.054-.343-.17-.668-.346-1.02-.055-.108-.117-.232-.187-.36.294-.015.595-.11.863-.195zm-1.723-.225c.298.276.534.783.687 1.103.088.186.219.36.284.554.074.216.064.454.095.678.096.674.392 1.336.537 2.007.17.785.26 1.592.17 2.394-.46-.018-.985.154-1.382.277-.215.067-.42.149-.58.266-.098-.685-.106-1.372-.097-2.067.005-.424.023-.847.042-1.27.008-.18.043-.404-.045-.574-.031-.06-.072-.107-.12-.145.04-.407-.066-.818-.19-1.21-.115-.366-.258-.81-.506-1.136l.024-.009c.301-.147.867-.494 1.081-.868zM5.99 15.769c-.232-.433-.427-.885-.576-1.356-.207-.654-.165-1.363-.38-2-.117-.346-.36-.567-.686-.665-.083-.751-.206-1.491-.213-2.259-.01-.894.117-1.799.06-2.693l.054-.01c.308-.077.911-.386 1.087-.752.063.26-.025.65-.029.92-.015.952-.018 1.924.332 2.82-.051.112-.074.242-.058.4.039.372.197.753.264 1.124.109.601.147 1.212.158 1.821.015.886-.023 1.767-.013 2.65zM4.658 2.257c.325-.103.705-.293 1.033-.249-.225.226-.421.484-.707.666-.504.322-1.022.226-1.56.096.406-.183.808-.376 1.235-.513zm-1.243.775c.394.187.875.246 1.296.139.13.381.32.745.428 1.137.09.33.144.668.224 1-.185-.032-.39-.02-.554-.025-.27-.01-.539-.013-.808-.014.106-.768-.245-1.532-.586-2.237zM3.258 5.78c.531-.082 1.14-.032 1.685 0-.044.053-.084.11-.136.161-.177.179-.406.334-.646.42-.434.154-.83-.17-1.184-.46.075-.06.166-.104.28-.121zm-.66 1.163c.046-.272.083-.592.21-.83.304.33.695.653 1.123.694-.042.97-.138 1.94-.136 2.91 0 .566-.049 1.374.174 1.973-.323-.015-.681.015-1.043.08-.465-.84-.373-2.106-.406-3.035-.021-.597-.022-1.2.078-1.792zM1.016 9.162c-.077-.19-.156-.381-.25-.564-.044-.1-.097-.194-.156-.286l.042-.034c.021-.003.042-.013.062-.032.3-.25.87-.375 1.297-.499-.01.261-.009.523 0 .782.03.977-.049 2.479.623 3.301-.27.06-.534.137-.78.222-.253-.97-.46-1.957-.838-2.89zm5.435 19.22c-.382.124-.77.245-1.144.391-.207.081-.59.369-.793.315-.249-.067-.386-1.5-.455-1.76-.107-.405-.215-.81-.319-1.217.94 1.014 2.343 1.75 3.741 1.971-.346.09-.69.191-1.03.3zm11.105.021c-.718-.044-1.47-.34-2.172-.493-.73-.158-1.467-.277-2.21-.338-.403-.033-.806-.051-1.21-.055.713-.392 1.369-1.058 1.971-1.413.809-.477 1.744-.885 2.702-.906.549-.012 1.1.107 1.602.32.23.096.42.203.646.247-.12.866-.28 2.702-1.329 2.638zm1.404-3.099c-.681-.28-1.34-.544-2.098-.573-.79-.03-1.57.2-2.284.518-.73.325-1.386.777-1.992 1.289-.418.353-.857.76-1.37.99-.893.03-1.784.13-2.66.305l-.076.017c-.903-.13-1.792-.355-2.608-.762-.889-.443-1.581-1.07-2.311-1.697-.05-.204-.098-.408-.144-.612-.093-.413-.184-.826-.275-1.237.833.889 1.864 1.685 3.07 1.846 1.578.21 3.01-.47 4.238-1.383 1.373-1.021 2.565-2.25 4.07-3.098.919-.52 1.928-.895 2.969-1.098.536-.105 1.09-.182 1.638-.158.264.011.522.063.78.06-.314 1.864-.618 3.731-.947 5.593zm2.025-11.394c-.2.793-.341 1.606-.488 2.41-.187 1.024-.364 2.05-.538 3.077-.407.029-.842-.067-1.245-.049-.367.017-.734.066-1.096.128-.861.149-1.704.414-2.504.758-1.539.661-2.811 1.6-4.088 2.65-1.227 1.01-2.575 2.06-4.257 2.08-.962.012-1.775-.33-2.516-.913-.417-.328-.798-.73-1.231-1.048-.243-1.085-.496-2.164-.808-3.241-.484-1.672-.723-3.352-1.01-5.062-.028-.166-.076-.357-.12-.555-.016-.418.023-.877.158-1.101.292-.49 1.45-.587 1.953-.643.278-.031.888-.16 1.1.052.133.132.129.384.146.555.058.578.137 1.13.298 1.692.626 2.184 2.093 4.05 4.288 4.864 1.89.701 4.163.544 5.9-.484 2.068-1.224 2.59-3.488 3.146-5.637.124-.48.17-1.085.668-1.36.49-.273 1.22.053 1.709.206.355.111.715.272.743.692.021.305-.134.638-.208.929z" transform="translate(218 22)"/>
            </g>
        </g>
    </g>
</svg>
