<svg xmlns="http://www.w3.org/2000/svg" width="139" height="95" viewBox="0 0 139 95">
    <path fill="#fff" fill-rule="evenodd" d="M79.533.147c34.032-2.663 55.701 31.364 59.022 61.957.45 1.403.542 2.888.353 4.41.067 1.333.098 2.656.093 3.965-.004.789-.942.97-1.373.545-2.732 6.41-8.946 12.691-13.049 15.646-15.229 10.97-33.83 9.21-50.393 2.576-.327-.13-.185-.666.147-.536 2.616 1.032 5.31 1.921 8.05 2.637-1.123-1.55-2.284-3.084-3.346-4.674-.151-.226.21-.406.37-.206 1.234 1.542 2.372 3.156 3.545 4.736.08.108.054.214-.018.286 9.749 2.459 20.077 2.717 29.693-.535 6.076-2.054 11.8-5.612 16.234-10.262 4.445-4.662 12.179-15.838 5.477-21.632-.877-.758.399-2.026 1.27-1.272.357.308.682.625.977.951C133.07 34.2 118.44 9.56 93.432 3.053c-15.07-3.92-28.338 1.422-41.115 9.124-4.708 2.84-9.23 6.208-14.152 8.656-1.612.8-2.871 1.206-4.53 1.902-2.007.842-6.504 2.546-9.536 5.101l-.037.031.042-.046c2.268-2.45 5.378-4.506 7.92-5.69l.195-.09C48.02 14.877 61.494 1.559 79.533.147zM3.12 38.992c.937.089 1.874.176 2.81.262l.123-.123c.154-.152.357-.003.346.166 30.741 2.81 61.428 4.165 92.307 2.761.394-.018.392.594 0 .612-30.84 1.403-61.886.88-92.536-3.036C-.629 47.784.157 57.092 4.06 65.643c-.758-5.59-1.064-11.193-.9-16.848l-.003.083c-.446 3.692-.676 7.387-.6 11.146.005.342-.523.34-.53 0-.139-5.694.333-11.352 1.743-16.88.038-.15.252-.084.228.062-.32 1.85-.6 3.693-.825 5.537.05-.092.217-.074.215.052-.112 6.466.374 12.854 1.494 19.224l-.173-1.017c.593 1.19 1.243 2.362 1.938 3.513-.883-3.751-1.752-7.505-2.642-11.254-.037-.158.232-.224.272-.066 1.227 4.802 2.487 9.598 3.716 14.4l-.407-1.579c.97 1.5 2.01 2.956 3.09 4.357-1.196-2.393-2.076-4.92-2.67-7.531-.022-.098.043-.168.12-.19l-.045-.075c-4.647-8.173-5.78-17.98-.995-28.083.065-.136.301-.038.245.104-5.426 13.57-1.58 25.757 6.802 34.487l-.125-.581c-.055-.246.252-.35.309-.106l.266 1.147.039.04c7.875-10.649 15.786-21.265 23.295-32.171l-.894 1.29c-9.83-.08-19.644-.594-28.946-4.023-.131-.048-.077-.256.058-.21 9.333 3.11 19.374 3.564 29.355 3.559l.427-.616c.413-.598 1.4-.032.984.57l-.03.043 2.102-.014.178-.206c.291-.334.698-.127.817.196 3.042-.028 6.07-.068 9.059-.058.064-.123.247-.17.34-.015l.01.016c.42.002.839.005 1.256.01l1.655.016-.271-.539c-.072-.144.134-.268.218-.128l.405.668c14.607.148 29.214.25 43.82.36.723.006.721 1.124 0 1.112l.036-.002c.857 4.028 1.67 8.065 2.499 12.097.078.384-.542.544-.611.164-.8-4.29-1.617-8.578-2.38-12.872l.11.608c-16.488-.244-32.976-.486-49.466-.693l6.511.084c6.693 11.078 13.07 22.342 19.752 33.424.404.672-.648 1.284-1.049.614C66.93 67.237 60.07 55.551 54.016 43.433l.703 1.394-1.21-.016c6.494 10.73 12.378 21.917 17.63 33.334l.832 1.822c.155.344-.342.648-.507.3-5.748-12.11-11.894-23.9-18.438-35.582l.066.121-1.212-.017c6.675 11.207 12.626 22.945 18.786 34.462l1.266 2.36c.292.541-.42 1.033-.795.679.055.123.11.245.168.368 3.193-1.764 6.173-3.87 8.902-6.273l-.2-1.07c-.048-.257.217-.35.28-.109.079.299.156.599.233.9 2.396-2.142 4.595-4.515 6.569-7.085l-.077-.197c-.076-.196.262-.278.34-.086l-.021-.034c.68-.899 1.331-1.82 1.955-2.765l-.04-.256c-.088-.557-.168-1.114-.244-1.672-.026-.19.301-.23.336-.044.085.492.176.981.273 1.468.753-1.164 1.46-2.36 2.122-3.588-.22-.879-.46-1.756-.726-2.63-.045-.15.157-.21.206-.066.25.761.495 1.53.729 2.304 2.206-4.17 3.897-8.687 4.989-13.455.022-.098.063-.176.116-.236L97 47.179c-.018-.25.47-.246.495 0 .014.149.03.297.045.445.28.06.525.31.444.666-.076.338-.155.676-.238 1.011.519 3.798 1.421 7.51 2.597 11.218 1.552-5.304 1.67-11.23-.131-17.75-.24-.868 1.105-1.234 1.348-.37 4.145 14.776-1.053 26.617-10.562 35.228.009.14-.13.235-.278.247-3.493 3.116-7.554 5.801-11.937 8.043l.196.476c.142.338-.492.496-.62.15l-.126-.348c-.37.185-.741.367-1.115.546.873.68 1.514 1.674 1.868 2.91.098.344-.36.496-.453.152-.33-1.224-.985-2.199-1.873-2.848-10.916 5.12-23.515 7.59-34.275 7.21-15.519-.551-26.458-7.827-34.68-20.23-.132.013-.266-.044-.3-.194l-.1-.415c-.301-.466-.6-.94-.894-1.421C.018 61.477-3.713 49.199 5.624 39.563c-.845-.108-1.69-.22-2.536-.335-.137-.018-.103-.25.032-.236zM39.765 89.39c1.073 1.122 2.13 2.26 3.192 3.394l-.128-.136c1.468.05 2.954.045 4.454-.01-.922-1.182-1.912-2.134-3.209-2.896l.192.118c-1.581-.095-3.174-.263-4.776-.508zm-5.302-1.115l2.128 2.22 1.732 1.817c1.34.157 2.698.263 4.071.32-1.127-1.246-2.26-2.488-3.368-3.752l.411.464c-1.672-.259-3.334-.617-4.974-1.07zm10.545 1.624l.087.05c1.142.705 2.165 1.68 2.874 2.869l-.127-.203c.549-.024 1.1-.055 1.652-.093.682-.046 1.37-.103 2.062-.171l-.014-.013c-.848-.798-1.654-1.634-2.475-2.454l.035.035c-1.354.048-2.719.042-4.094-.02zm23.926-4.824l-.061.03c-1.265.597-2.556 1.144-3.87 1.638.603.537.934 1.31.996 2.158.024.346-.524.346-.54 0-.038-.827-.384-1.464-.963-1.972-1.555.565-3.142 1.056-4.758 1.467.38.382.758.766 1.114 1.171.188.216-.126.534-.316.318-.5-.572-.952-1.18-1.416-1.78l.288.374c-1.447.358-2.917.654-4.405.884.325.607.642 1.221.963 1.833.17.322-.328.61-.478.284-.315-.683-.633-1.365-.941-2.051-1.581.23-3.183.386-4.803.464.733.686 1.472 1.37 2.18 2.081.11.11.09.246.013.337 5.767-.602 11.856-1.979 17.718-4.099-.014-.035-.021-.075-.017-.123.09-1.109-.186-2.17-.704-3.014zm14.09.673c-.1-.176.15-.334.251-.162 1.236 2.124 2.525 4.226 3.697 6.394.125.23-.191.428-.325.21-1.265-2.104-2.42-4.296-3.624-6.442zm2.998-2.383c-.109-.208.234-.394.345-.184 1.543 2.91 3.15 5.802 4.61 8.746.128.256-.284.484-.427.226-1.583-2.896-3.027-5.858-4.528-8.788zM8.43 69.178l.077.28c.994 3.482 2.502 6.71 4.452 9.806l-.165-.267.205.242c6.717 7.886 15.243 11.767 24.705 12.997l-1.366-1.49-2.3-2.516c-.024-.027-.036-.057-.037-.086-1.329-.38-2.642-.823-3.934-1.324.617 1.441 1.587 2.7 2.836 3.772.288.248-.124.64-.41.412-1.446-1.155-2.46-2.7-3.015-4.417l-.602-.247c-1.138-.477-2.257-.999-3.352-1.563.298 1.519 1.11 2.901 2.382 3.956.285.234-.137.648-.411.398-1.384-1.251-2.229-2.856-2.441-4.598-.485-.257-.966-.523-1.443-.797.465 1.173.92 2.35 1.371 3.526.133.34-.49.484-.622.146-.549-1.393-1.096-2.79-1.629-4.19-1.345-.814-2.646-1.693-3.893-2.633.574 1.463 1.29 2.88 2.127 4.29.151.254-.221.464-.384.23-1.08-1.566-1.898-3.287-2.485-5.091-.706-.556-1.394-1.131-2.06-1.726l-.652.7c.208.906.413 1.813.61 2.721.064.294-.3.416-.367.124-.386-1.646-.746-3.303-1.104-4.96l-.159-.157c-.187.1-.469-.148-.323-.346l-.008.014c-2.168-2.202-4.062-4.619-5.603-7.206zm80.584 11.693c-.085-.194.26-.274.346-.086 1.581 3.47 3.56 6.672 5.608 9.932.146.228-.232.42-.391.202-2.3-3.118-4.05-6.578-5.563-10.048zm3.002-2.315c-.104-.262.364-.372.468-.114 1.719 4.202 3.979 8.056 6.478 11.922.17.262-.267.482-.453.234-2.77-3.72-4.834-7.848-6.493-12.042zm5.01.07c-.12-.24.224-.451.346-.211 1.874 3.69 3.763 7.371 5.601 11.083.132.262-.245.498-.38.234-.942-1.843-1.872-3.693-2.797-5.545zm-48.38-33.879c-2.302-.028-4.614-.027-6.929-.028-1.276 1.571-2.536 3.15-3.779 4.738.073.099.092.23.005.367-4.422 6.976-9.256 13.663-14.512 20.028-1.663 2.606-3.272 5.253-4.825 7.945-.208.362-.762.042-.563-.322.684-1.251 1.38-2.496 2.086-3.734-.812.934-1.635 1.86-2.469 2.78.146.774.333 1.53.557 2.272 1.236.978 2.533 1.894 3.883 2.745-.375-1.017-.74-2.035-1.09-3.056-.076-.222.305-.302.398-.094.53 1.214 1.04 2.437 1.535 3.665.677.41 1.368.8 2.071 1.175.014-.261.043-.523.086-.787.03-.196.384-.148.357.046-.042.315-.063.629-.063.94 1.216.633 2.463 1.216 3.737 1.745-.063-.363-.106-.73-.13-1.1-.014-.23.332-.222.354 0 .046.44.12.866.222 1.28 5.682 2.296 11.869 3.536 18.024 3.488 2.203-.018 4.367-.176 6.486-.466l-.071-.164c-.079-.184.167-.344.27-.16.052.09.103.181.153.272 4.873-.7 9.503-2.103 13.803-4.105-.065-.064-.132-.124-.2-.18-.094-.076-.01-.262.086-.19.113.085.221.175.324.27.814-.382 1.616-.787 2.406-1.213-.05-.098-.105-.188-.164-.268-.293-.404.097-.384-.56-.32-.583.056-.748.51-.835 1.018-.033.196-.323.11-.297-.08.126-.908.721-1.408 1.564-1.714.048-.019.095-.019.138-.005-6.618-12.396-13.648-24.703-19.68-37.4l.31.647zm50.372 28.177c-.084-.174.168-.326.256-.152 2.569 5.098 5.198 10.17 7.697 15.303.147.3-.29.562-.44.262-2.57-5.102-5.015-10.275-7.513-15.413zM71.28 83.887l-.344.184c-.588.31-1.182.61-1.782.899.544.858.822 1.937.846 3.119.994-.368 1.982-.755 2.96-1.163-.556-.837-1.045-1.72-1.494-2.614-.065-.13-.126-.274-.186-.425zm32.724-10.973c-.046-.248.303-.356.353-.106 1.059 5.214 3.313 9.644 6.575 13.618.215.264-.131.644-.359.388-3.408-3.852-5.586-8.698-6.57-13.9zM76.29 80.806c-1.455 1.014-2.962 1.952-4.515 2.81.54 1.046 1.141 2.054 1.778 3.058 1.408-.6 2.795-1.246 4.153-1.937-.572-1.572-1.137-3.145-1.697-4.72zm31.741-3.843c-.137-.208.225-.39.368-.188 1.85 2.67 3.7 5.34 5.553 8.007.218.316-.358.61-.57.29zm-27.594.636l-.576.487c-1.06.883-2.155 1.722-3.281 2.517.807 1.926 1.608 3.856 2.4 5.79l-.786-1.907c1.133-.588 2.246-1.207 3.332-1.858-.399-1.655-.758-3.34-1.089-5.03zm32.572-1.496c-.07-.268.335-.378.413-.114.84 2.862 2.37 5.268 4.487 7.352.281.278-.146.704-.436.434-2.224-2.068-3.715-4.734-4.464-7.672zm3.021-.672c-.136-.222.235-.42.376-.2 1.517 2.382 3.034 4.762 4.55 7.146.205.324-.353.62-.551.292-1.46-2.412-2.917-4.824-4.375-7.238zm-31.802-1.414c-1.091 1.138-2.23 2.225-3.414 3.258.427 1.707.826 3.437 1.176 5.165l-.017-.082c1.19-.726 2.348-1.49 3.466-2.29-.51-2.379-.957-4.787-1.435-7.178zm3.322-3.81c-.997 1.26-2.048 2.47-3.147 3.627.54 2.32 1.099 4.635 1.59 6.974l-.215-.985c1.459-1.062 2.849-2.187 4.156-3.375-.952-2.55-1.933-5.086-2.922-7.624zm35.423 9.004c.143.358-.305.672-.484.314l.242-.157zm-2.947-4.582c-.116-.232.197-.436.322-.208l1.226 2.237c-.084.091-.124.222-.07.359.327.836.654 1.674.985 2.508l-1.232-2.45zm1.582 1.997c.117-.092.28-.091.355.095.338.83.676 1.66 1.01 2.49l-1.4-2.553zM15 77.334l.167.716.123.53.476-.534c-.259-.234-.514-.472-.766-.712zm2.318-.438l-.009.01c-.195.215-.39.428-.587.642.292.256.59.508.892.757-.113-.467-.21-.937-.296-1.41zm36.693.037c-.076-.254.303-.426.407-.182.216.496.734.746 1.223.556.352-.14.52.478.155.598-.799.27-1.537-.134-1.785-.972zm-15.617-32.22l-.863 1.245C30.212 56.475 22.641 66.81 14.43 76.666l.577-.7c.463.453.938.896 1.425 1.328.27-.304.536-.608.802-.913-.102-.642-.179-1.287-.231-1.934-.02-.238.34-.234.362 0 .05.526.118 1.042.202 1.55 1.36-1.564 2.695-3.144 4.006-4.741 5.7-9.687 12.16-18.934 19.578-27.45l-.787.912c-.656 0-1.312-.002-1.969-.005zm51.158 22.794l-.255.368c-.48.678-.975 1.345-1.485 1.998 1.038 2.563 2.087 5.12 3.168 7.669l-.622-1.484c.404-.377.801-.761 1.189-1.15-.07-.033-.129-.092-.16-.183-.805-2.35-1.39-4.773-1.835-7.218zm39.835-5.05c.04-.386.662-.378.61 0-.112.83-.227 1.66-.338 2.49.362-.06.767.096.92.545 1.392 4.086-.75 9.388-5.162 10.336-.366.08-.583-.412-.256-.616.12-.075.24-.152.356-.23-.384.088-.766-.09-1.095-.407-.303-.292-.47-.656-.663-1.038-.077-.154-.148-.32-.243-.462-.144-.394-.378-.536-.7-.424-.38-.086-.501.122-.363.628.162.118.018.4-.153.292-.594-.386-.209-1.24.333-1.46.391-.16.755.044 1.036.35.214.23.366.518.517.798.083.15.151.314.243.46.196.304.834.764 1.174.592.232-.118.435.115.392.325.601-.462 1.143-.989 1.609-1.566l-.13.005c-.685 0-2.862-2.498-3.223-1.726-.063.134-.297.036-.242-.102.43-1.046 1.379-.394 2.055.006.11.138.211.282.305.432 1.41.484 2.087.224 2.038-.784.27-.588.212-1.59.296-2.222.123-.93.231-1.861.332-2.793-.067-.23-.033-.426.06-.58.101-.949.195-1.899.292-2.849zm-97.38 9.601c-.05-.152.225-.214.282-.064.563 1.496 1.836 2.62 3.581 3.196.23.078.132.396-.105.32-1.872-.606-3.205-1.838-3.758-3.452zm63.192-14.93l-.17.412c-.786 1.872-1.67 3.685-2.645 5.435.753 2.704 1.347 5.477 1.615 8.286.028.298-.407.36-.454.072-.428-2.668-.856-5.286-1.433-7.877-.684 1.197-1.41 2.363-2.176 3.495.571 2.562 1.288 5.08 2.05 7.612l-.023-.08c2.043-2.113 3.828-4.402 5.285-6.864-.95-3.441-1.633-6.923-2.05-10.49zm34.154 10.221l-.16 1.394c-.047.445-.056.979-.095 1.52.275-.925.373-1.907.255-2.914zM97.36 50.784l-.187.676c-.498 1.729-1.076 3.42-1.73 5.067.487 3.536 1.218 6.997 2.207 10.389.9-1.605 1.66-3.283 2.264-5.032-1.263-3.638-2.076-7.354-2.554-11.1zm-63.707 4.288l-.764 1.027c-1.902 2.579-3.756 5.187-5.558 7.832 2.183-2.898 4.29-5.85 6.322-8.86zm-21.609 7.42c-.103-.092-.003-.312.099-.218.537.498 1.158.538 1.732.068.094-.076.177.11.087.188-.618.52-1.311.508-1.918-.038zm33.214-5.563c.072-.232.432-.134.366.102-.07.24-.174.528-.166.782-.13.502.18.802.93.896v-.338c-.226-.202.112-.542.334-.334.574.536-.078 1.314-.742 1.32-1.238.014-.944-1.708-.722-2.428zM23.369 54.09c.414-.018.412.656 0 .64-.292-.014-.576-.04-.868-.082-.238-.032-.238-.446 0-.478.292-.04.576-.068.868-.08zm56.632.095c.288 0 .288.448 0 .448s-.288-.448 0-.448zm-68.38-4.946c.895-.216 1.84 1.324 1.133 2.334-.644.92-1.844-.074-1.748-1.194.002-.026.034-.028.032 0-.073 1.066.883 1.672 1.437.994.286-.35.332-.708.125-1.158-.189-.412-.52-.674-.892-.562-.207.062-.29-.366-.087-.414zm83.426-41.47c-.131-.106.043-.328.18-.232 7.535 5.294 13.64 12.174 18.249 20.001-2.99-5.622-6.472-10.96-10.45-16.11-.082-.104.058-.252.143-.148 7.927 9.618 13.862 20.655 17.818 32.571.099.298-.36.426-.457.128-1.08-3.227-2.291-6.355-3.633-9.396-.103.08-.256.084-.325-.066-4.939-10.702-12.284-19.424-21.525-26.748zm-73.97 25.522v.015c.063 1.896 1.207 4.03 4.029 6.403.257.214-.084.65-.354.462-3.097-2.136-4.039-4.518-3.679-6.857l.004-.023zm-5.03 3.742c-.191-.368.263-.658.467-.332.483.77.96 1.54 1.423 2.328.26.438-.347.876-.598.426-.443-.798-.87-1.61-1.292-2.422zm-2.64 1.18c.724-.463 1.53.293 1.28 1.067-.192.594-1.056.23-.786-.33-.088-.068-.178-.132-.266-.196-.332.084-.506-.36-.228-.54zm10.655-10.346l-.13.143c-1.426 1.583-2.49 3.322-2.822 5.092l-.033.189-.003-.211c.024-1.952 1.191-3.646 2.833-5.08l.155-.133z"/>
</svg>
