<svg xmlns="http://www.w3.org/2000/svg" width="350" viewBox="0 0 30 23">
    <defs>
        <filter id="607u7khmza">
            <feColorMatrix in="SourceGraphic" values="255 255 255 255 0.000000 255 255 255 255 255.000000 255 255 255 255 255.000000 0 0 0 0.10000 0"/>
        </filter>
    </defs>
    <g fill="none" fill-rule="evenodd">
        <g filter="url(#607u7khmza)" transform="translate(-34 -26)">
            <g fill="#000" fill-rule="nonzero">
                <path d="M29.456 3.35c-.772-1.003-2.047-1.702-3.158-2.253-1.234-.61-2.637-1.15-4.035-1.061-1.52.094-2.982.818-4.304 1.535-3.263 1.772-6.34 3.835-9.322 6.058-.362.243-.725.486-1.081.735-1.357.949-2.702 1.968-3.872 3.142-.702.705-1.357 1.494-1.97 2.306C.601 15.146-.516 16.965.373 18.72c1.281 2.531 4.62 3.77 7.217 4.132 1.444.201 2.953.184 4.333-.356 1.333-.522 2.444-1.488 3.491-2.448 2.538-2.324 5.123-4.6 7.638-6.947 1.234-1.15 2.444-2.324 3.608-3.551.924-.972 1.965-1.933 2.743-3.035.719-1.02.847-2.14.052-3.166zM9.187 22.234c-1.093-.041-2.199-.083-3.257-.361-1.374-.362-2.632-1.12-3.72-2.051-.473-.403-.923-.848-1.257-1.376-.17-.266-.321-.586-.403-.907-.047-.19-.217-.693.011-.752.024-.006.053-.006.082-.006.24.03.474.415.638.563.263.237.567.439.871.616 2.398 1.393 5.023 2.561 7.626 3.486.327.118.666.231.947.433.053.45-1.292.367-1.538.355zm8.105-5.056c-1.052.948-2.076 1.938-3.146 2.863-.532.462-1.1.895-1.707 1.25-.386.226-.58.137-.977.042-.439-.106-.871-.225-1.304-.367-.877-.285-1.725-.64-2.55-1.061-.397-.202-.783-.421-1.175-.635-.842-.456-1.702-.871-2.58-1.256-.847-.368-1.596-.925-2.368-1.44-.11-.078-.228-.155-.304-.268-.321-.474.661-1.434.918-1.796 1.059-.942 2.299-1.683 3.562-2.288 1.924-.925 3.988-1.6 6.082-1.986 2.1-.39 4.286-.48 6.392-.077 1.742.338 3.163 1.073 4.42 2.27-1.725 1.607-3.502 3.166-5.263 4.749zm12.024-12.3c-.059 1.102-1.246 2.033-1.948 2.756-1.064 1.097-2.099 2.223-3.198 3.284-.357.344-.72.688-1.082 1.026-2.035-2.188-5.45-2.668-8.263-2.561-3.416.13-6.901 1.162-9.901 2.798-.784.427-1.532.907-2.21 1.47.344-.498.69-.99 1.081-1.453 1.182-1.055 2.45-2.02 3.731-2.94 2.45-1.766 4.895-3.527 7.486-5.086 1.298-.782 2.614-1.565 3.965-2.252C20.24 1.28 21.655.688 23.094.854c1.333.154 2.614.717 3.771 1.375.919.527 2.51 1.381 2.45 2.65z" transform="translate(34 26)"/>
                <path d="M21.012 6.805c-1.825.006-3.685-.041-5.48.308-1.795.35-3.514.937-5.21 1.636-.088.036-.053.178.04.143 1.626-.64 3.346-1.073 5.06-1.393 1.859-.35 3.718-.208 5.596-.326.228-.012.228-.368-.006-.368zM22.93 5.027c-2.994-.154-6.065.083-8.942.978-.082.024-.052.154.035.136 2.936-.723 5.907-.693 8.901-.853.175-.006.175-.255.006-.261zM25.678 3.254c-2.555-.646-5.497-.302-7.959.57-.093.035-.058.177.041.148 2.597-.7 5.228-.724 7.883-.457.146.018.176-.225.035-.26zM16.269 11.56c-1.579-.184-3.251.13-4.79.468-1.497.326-3.105.61-4.514 1.238-.094.042-.03.214.07.172 1.392-.557 2.965-.776 4.433-1.073 1.596-.326 3.181-.45 4.807-.55.158-.019.152-.238-.006-.256zM14.573 13.978c-1.515.006-3.152.035-4.59.557-.088.03-.053.166.04.142 1.503-.415 3.076-.142 4.585-.48.117-.03.088-.22-.035-.22zM13.608 16.2c-.854-.076-1.778-.141-2.626.179-.052.017-.04.124.012.112.877-.237 1.743.054 2.614-.118.07-.012.07-.16 0-.172z" transform="translate(34 26)"/>
            </g>
        </g>
    </g>
</svg>
