<svg xmlns="http://www.w3.org/2000/svg" width="240" viewBox="0 0 30 26">
    <defs>
        <filter id="56txeuwi0a">
            <feColorMatrix in="SourceGraphic" values="0 0 0 0 0.000000 0 0 0 0 0.000000 0 0 0 0 0.000000 0 0 0 0.040000 0"/>
        </filter>
    </defs>
    <g fill="none" fill-rule="evenodd">
        <g filter="url(#56txeuwi0a)" transform="translate(-304 -25)">
            <g>
                <path fill="#000" fill-rule="nonzero" d="M29.014 12.25c-.565-.347-1.16-.621-1.795-.797.884-1.17.609-3.093.252-4.389-.702-2.548-2.373-4.373-4.75-5.456-1.542-.702-3.174-1.13-4.839-1.32C16.82.09 15.734.004 14.663.007 12.696.01 10.725.363 8.958 1.26c-1.843.937-3.223 2.42-4.245 4.207-.609 1.065-1.1 2.187-1.419 3.375-.23.857-.495 2.057.078 2.84-.156-.009-.312-.02-.455-.009-.364.03-.72.08-1.07.187-.58.178-1.167.513-1.567.98-.275.323-.424.786-.08 1.117.407.392 1.085.352 1.597.285.605-.08 1.44-.42 2.03-.158-.797.263-1.457 1.165-1.11 1.996.076.182.196.328.343.456.11.094.424.233.461.302.092.173.017.449.132.651.045.078.099.147.16.208-.249.115-.463.299-.577.531-.258.52-.118 1.264.34 1.62-.245.08-.462.21-.617.444-.407.61-.283 1.542-.036 2.192.35.919 1.184 1.431 2.084 1.706 1.241.38 2.576.53 3.864.638 1.4.119 2.797.139 4.2.113 1.418-.027 2.826.03 4.242.048 1.462.018 2.921-.07 4.382-.107 1.207-.03 2.461.015 3.601-.448 1.037-.421 2.068-1.249 2.495-2.316.286-.715.386-2.062-.251-2.667.158-.223.253-.51.263-.867.02-.657-.37-1.063-.892-1.248.124-.117.236-.251.33-.406.092-.15.143-.322.267-.452.129-.135.323-.211.46-.34.2-.187.325-.423.411-.681.104-.311.157-.673.082-.994.134.002.273-.007.419-.032.478-.08 1.05-.31 1.114-.863.071-.612-.525-1.038-.98-1.318zM3.88 9.72c.19-1.11.597-2.19 1.105-3.19C5.873 4.787 7.02 3.3 8.71 2.283c.675-.407 1.424-.784 2.185-.997.817-.228 1.604-.476 2.454-.543.521-.042 1.018-.026 1.534-.08.855-.088 1.669.015 2.519.091 1.322.224 2.552.528 3.806 1.008 2.038.78 3.938 1.945 4.933 3.966.676 1.373 1.193 3.315.621 4.813-.411 1.079-1.463.94-2.426.912-1.326-.038-2.644-.025-3.97-.003-2.632.043-5.266-.066-7.897.05-2.39.107-4.86.518-7.25.204-.374-.049-.875-.122-1.15-.412-.366-.385-.269-1.097-.188-1.57zm-.23 8.924c.06-.307.372-.557.7-.637.26.08.545.088.817.046-.044.494-.089 1.036.02 1.513-.19-.004-.38-.007-.571-.014-.296-.01-.702.026-.883-.264-.109-.175-.122-.445-.083-.644zm23.19 3.666c-.555.82-1.437 1.41-2.386 1.656-1.034.268-2.135.199-3.194.236-1.127.04-2.255.096-3.383.102-1.12.007-2.237-.074-3.357-.065-1.114.008-2.228.058-3.342.04-1.097-.019-2.198-.089-3.288-.216-1.06-.124-2.259-.242-3.243-.687-.84-.38-1.404-1.162-1.418-2.103-.008-.576.215-.926.8-1.035.186-.034.37-.063.555-.092.16.012.318.019.464.029.645.043 1.292.045 1.938.037 1.317-.015 2.636.002 3.953-.048 1.325-.05 2.627-.197 3.955-.178l.303.001c-.025.584.103 1.236.694 1.448.342.122.75.033.975-.257.081-.104.246-.582.354-.467.086.091.009.527.005.645-.015.44.023.934.371 1.25.325.296.824.335 1.205.125.985-.544.347-1.9.272-2.802 1.188.01 2.375.03 3.562.032 1.181.001 2.366.087 3.544.08.323-.001.615-.06.86-.176.224.236.204.701.217 1.008.022.53-.119 1-.415 1.437zM6.99 19.575c-.502.002-1.004.003-1.506-.003-.052-.52-.086-1.035-.12-1.557.05-.012.1-.026.148-.042.181-.058.336-.145.498-.243.133-.08.244-.22.409-.147.104.046.296.368.388.446.042.035.086.066.13.095-.042.469-.108 1.017.053 1.451zm1.576.001c-.31-.002-.62-.004-.931-.003l-.334.001c.002-.257-.078-.528-.106-.782-.021-.188-.05-.378-.073-.568.387.168.824.121 1.23-.045.06-.024.117-.053.173-.082-.058.481-.197 1.112.041 1.479zm1.753-.003c-.472.008-.944.008-1.417.005v-.005c-.05-.327-.121-.615-.123-.955-.001-.216-.003-.427-.037-.637.23-.119.124-.14.309-.033.204.12.31.322.553.418.224.09.455.123.685.116-.046.362-.175.901.03 1.09zm1.44-.082c-.39.034-.78.064-1.172.076.042-.09.025-.153.003-.258-.032-.152-.032-.296-.03-.45 0-.138-.003-.27-.025-.4.316-.05.625-.17.906-.33.091-.053.198-.15.303-.223.044.245.028.502.01.748-.015.237-.094.596.005.837zm1.732-.133l-.232.01c-.358.02-.714.05-1.07.084.078-.317.022-.742.003-1.044-.013-.199-.035-.41-.115-.59l.065.046c.316.204.559.449.935.546.147.038.296.058.446.06-.009.138-.014.276-.02.414-.007.16-.024.319-.012.474zm1.627-.012c-.44-.003-.881-.007-1.322.002.01-.152-.005-.308-.012-.464-.006-.141-.012-.283-.02-.424.36-.038.71-.176 1.001-.4.1-.078.262-.282.371-.314.05-.014.093-.014.133-.007.036.342-.032.694-.08 1.03-.027.179-.078.385-.07.577zm4.096-.075l-.364-.002c-.192-.001-.383.002-.575.006.05-.235-.009-.52 0-.75.01-.26-.065-.496-.11-.74.384.206.756.363 1.157.415-.024.339-.152.753-.108 1.07zm-.587.656c-.142.754.614 1.723.04 2.287-.344.339-.834.139-.988-.288-.072-.2-.067-.43-.07-.64-.004-.258.026-.56-.086-.801-.23-.5-.675-.187-.88.144-.568.914-1.01.063-1.147-.642 1.044-.007 2.086-.062 3.131-.06zm-.882-1.368c-.04.215-.104.513-.02.731-.544.019-1.086.044-1.63.054-.212.003-.424.004-.636.003.041-.233.029-.491.035-.713.009-.284 0-.553-.069-.82.07.052.134.12.207.165.294.185.642.272.989.258.29-.011.58-.095.82-.259.248-.169.325-.306.505-.278-.128.263-.147.57-.201.859zm1.847-.341c.14 0 .285-.012.437-.041.317-.061.57-.2.847-.36.089-.05.156-.093.215-.124.161.446-.13 1.118-.008 1.59l-1.49-.01c-.014-.064-.026-.128-.028-.196-.004-.177.025-.352.035-.528.007-.11.007-.223-.008-.331zm1.647-.58c.097-.016.207.007.399.086.126.051.235.14.367.187.362.129.757.123 1.12.014.026.359.003.727-.04 1.08-.012.095-.026.191-.033.286-.53 0-1.06-.003-1.59-.006-.028-.107-.055-.212-.058-.334-.005-.174.02-.348.022-.523.005-.287-.037-.549-.187-.79zm3.852 1.685c-.19-.02-.372-.034-.535-.034-.379.002-.758.002-1.137.002.016-.482-.01-.957-.123-1.427.124-.05.243-.113.353-.188.426-.287.582-.056 1.01.086.138.046.279.079.422.099-.038.21-.063.424-.07.639-.008.23-.05.599.08.823zm2.003-1c.047.348-.037.812-.388.958-.371.153-.866.118-1.34.07.086-.244-.052-.602-.071-.851-.016-.206-.026-.414-.02-.62.158.01.317.005.475-.015.249-.033.482-.101.694-.205.329.09.601.295.65.662zm.327-2.588c-.157.135-.332.23-.46.398-.184.24-.248.531-.48.743-.504.458-1.317.459-1.89.157-.433-.228-.718-.295-1.15-.01-.6.394-.996.431-1.657.112-.462-.223-.795-.084-1.223.14-.618.32-1.322.469-1.964.1-.388-.222-.603-.529-1.079-.27-.224.122-.387.331-.632.423-.392.147-.752.046-1.081-.174-.405-.272-.695-.372-1.13-.084-.575.38-1.128.755-1.819.35-.367-.216-.663-.626-1.113-.463-.611.221-1.043.805-1.776.639-.409-.094-.576-.606-1.016-.616-.484-.01-.831.52-1.325.558-.602.046-.732-.624-1.266-.676-.427-.042-.852.3-1.29.33-.219.014-.497.036-.689-.084-.272-.17-.196-.382-.292-.64-.163-.436-.702-.38-.91-.783-.356-.691.355-1.29.967-1.564l.032.036c.38.477.864.703 1.48.59.328-.06.637-.196.929-.356.148-.082.29-.184.443-.254.173-.08.308-.084.445-.048-.105.38-.11.857.176 1.102.226.194.394.057.635.057.131 0 .116-.004.156.176.025.113.018.23.038.344.025.141.063.257.14.38.29.466 1.058.884 1.507.394.223-.242.245-.571.201-.883-.058-.418-.176-.79-.195-1.205.654-.305 1.27-.78 1.996-.359.518.3.92.713 1.555.73.681.018 1.218-.426 1.805-.702.748-.352 1.22.172 1.94.28.304.046.583-.008.853-.098.008.134.048.263.142.374.296.35.607.107.94-.008.237-.081.196-.006.155.225-.03.164-.08.323-.115.485-.061.278-.084.54.03.811.232.552.919.767 1.402.397.803-.616.215-1.745.287-2.56.26.02.521.012.783-.03.436-.069.854-.28 1.295-.303.465-.024.897.219 1.356.272.819.096 1.643-.359 2.432-.076.229.082.443.162.655.227.016.028.035.055.063.08.368.34.019 1.076-.286 1.336zM7.705 14.378l.106.053c.625.32 1.204.562 1.88.387.001.322.127.654.184.967.076.422-.05.944-.584.623-.312-.187-.389-.401-.44-.739-.05-.33-.2-.738-.607-.63-.149.04-.226.19-.404.056-.084-.063-.114-.276-.126-.368-.015-.114-.018-.232-.01-.349zM20.7 16.242c-.198.342-.634.369-.845.02-.143-.236-.067-.495-.015-.743.059-.282.223-.772-.007-1.02-.097-.104-.223-.125-.36-.105-.118.017-.204.09-.313.126-.312.106-.54.076-.612-.115.296-.12.589-.262.9-.342.458-.117.864.047 1.31.124-.327.666.312 1.418-.058 2.055zm8.181-2.514c-.477.115-.907.02-1.355-.159-.651-.26-1.11-.306-1.796-.175-.355.067-.711.148-1.074.122-.39-.028-.735-.217-1.118-.271-.735-.103-1.387.32-2.113.343-.68.021-1.303-.314-1.984-.205-.666.106-1.346.631-2.03.476-.488-.11-.886-.443-1.409-.435-.587.01-1.082.368-1.583.627-.605.311-1.032.263-1.608-.093-.476-.294-.93-.536-1.506-.484-.615.054-1.1.437-1.68.604-.836.241-1.29-.366-2.042-.525-.555-.118-.97.24-1.423.488-.282.154-.587.285-.914.28-.51-.008-.657-.439-1.046-.656-.457-.254-1.04-.144-1.53-.063-.332.055-2.176.456-2-.174.06-.216.429-.435.602-.552.338-.228.703-.379 1.095-.485.416-.113.979-.125 1.396-.33.599.413 1.438.451 2.133.462 1.414.021 2.828-.06 4.239-.155 1.53-.102 3.05-.19 4.586-.178 1.506.011 3.01.072 4.517.078 1.48.005 2.958-.051 4.44-.007.965.028 2.166.258 3.022-.31.603.233 1.2.427 1.765.752.404.232 1.325.807.416 1.025z" transform="translate(304 25)"/>
            </g>
        </g>
    </g>
</svg>
