<svg xmlns="http://www.w3.org/2000/svg" width="200" viewBox="0 0 30 18">
    <defs>
        <filter id="t128wofpva">
            <feColorMatrix in="SourceGraphic" values="255 0 0 0 0.000000 255 0 0 0 0.000000 255 0 0 0 0.000000 0 0 0 1.000000 0"/>
        </filter>
    </defs>
    <g fill="none" fill-rule="evenodd">
        <g filter="url(#t128wofpva)" transform="translate(-394 -28)">
            <g fill="#fff" fill-rule="nonzero">
                <path d="M29.152 9.838c.067-.224.095-.458.107-.696.14-.45.22-.92.261-1.368.108-1.172-.574-2.23-1.24-3.137-.738-1.008-1.648-1.824-2.53-2.699-.865-.857-1.656-1.399-2.895-1.504-2.835-.24-5.682-.43-8.528-.403-1.453.013-2.906.07-4.356.156C8.74.261 7.534.334 6.368.773c-2.123.798-3.882 2.352-5.334 4.055-.684.803-1.07 1.638-.907 2.71.122.796.255 1.723.72 2.41-.317.085-.615.22-.771.535-.178.358-.03.727.31.92.343.195.719.09 1.082.063-.18.478-.095 1.121.365 1.355-.402.17-.727.45-.59.838.079.22.27.334.508.388-.192.1-.36.225-.46.449-.202.45-.072.982.028 1.44.18.82.56 1.373 1.423 1.55 1.033.213 2.178.16 3.227.206 1.39.06 2.767.035 4.155-.01 1.389-.045 2.761.053 4.146.142 1.38.088 2.747.05 4.128.051 2.586 0 5.264.283 7.832-.119 1.007-.157 1.661-.68 1.99-1.646.269-.792.31-1.694-.516-2.094.12-.311.034-.693-.308-1.063-.005-.006-.012-.011-.018-.016.156-.26.24-.665.173-.96.246.055.455.14.724.117.437-.035.985-.217 1.334-.481.79-.599.251-1.452-.457-1.775zM.896 6.354c.314-.931 1.262-1.742 1.96-2.403.775-.734 1.623-1.393 2.56-1.91C7.495.899 9.837.915 12.151.824c2.577-.1 5.15-.049 7.722.149.66.05 1.32.096 1.979.143.626.044 1.339.012 1.931.243.593.23 1.063.729 1.507 1.165.44.431.906.834 1.336 1.275.807.828 1.765 1.914 2.118 3.06-.807.206-1.683.21-2.507.28-.968.082-1.937.153-2.907.21-1.905.114-3.813.177-5.721.185-1.886.008-3.767-.144-5.651-.132-1.825.011-3.644.168-5.47.164-1.961-.004-3.823-.192-5.677-.818.016-.136.043-.268.085-.393zm-.103.6c1.413.7 3.064.894 4.618.953 1.87.072 3.731-.03 5.6-.097 1.949-.07 3.89.133 5.838.151 1.981.019 3.964-.038 5.943-.144 1.077-.057 2.154-.13 3.23-.218.911-.075 1.931-.05 2.823-.309.02.118.034.24.042.367-.183.637-.136 1.324-.382 1.95-.181.462-.508.588-.986.639-.635.068-1.275.113-1.91.17-2.548.231-5.13.195-7.684.146-2.513-.048-5.025-.16-7.54-.149-1.277.007-2.554.023-3.831.019-.996-.003-1.998.037-2.99-.071-.531-.058-1.1-.15-1.593-.365-.447-.196-.656-.586-.804-1.031-.195-.586-.402-1.338-.374-2.01zm.894 4.51c.114.007.225.03.333.082.234.113.398.331.646.43.222.09.453.097.69.076.245-.022.493-.108.74-.106.363.004.671.251 1.026.318.636.12 1.146-.241 1.756-.24.546 0 1.022.305 1.583.237.286-.034.553-.134.828-.213.463-.133.854-.085 1.316.017.516.113.96.139 1.47.05-.14.226-.255.404-.603.434-.5.043-1.008.003-1.513.05-1.08.1-2.143.102-3.229.074-.588-.014-1.178-.038-1.761-.126-.46-.069-.917-.185-1.384-.198-.458-.012-.915.196-1.364.161-.528-.041-.594-.616-.534-1.046zm21.999 1.791c.622.262 1.366.096 2.017.092.417-.003.978.081 1.376-.128.146.224.373.509.158.77-.146.178-.497.234-.711.253-.458.04-.923-.044-1.373-.121-.933-.16-1.844-.159-2.789-.116-1.08.05-2.138.02-3.217.001-.806-.013-1.628.063-2.434-.01.19-.165.331-.4.398-.731.003-.016.005-.03.005-.045.108-.002.216-.003.325 0 1.437.046 2.884-.094 4.319-.007.417.025.916.106 1.31-.077.115-.054.19-.118.24-.188.061.121.179.225.376.307zm-.203-.953c.006-.02.012-.039.02-.058.231-.02.463-.069.724-.151.293-.092.58-.192.891-.184.396.009.772.165 1.17.16.275-.005.535-.09.802-.12 0 .4.08.815-.417.944-.363.095-.77.022-1.142.042-.403.021-.806.073-1.21.052-.201-.01-.535-.013-.702-.158-.15-.132-.123-.341-.136-.527zm-.746.482c-.323.1-.742.007-1.073-.01-1.138-.057-2.273.09-3.41.061-.535-.013-1.06-.056-1.596-.024-.533.033-1.066.112-1.602.096-.592-.017-1.182-.12-1.767-.206-.403-.06-.73-.095-.779-.445.023-.057.043-.12.061-.186.56.007 1.088.2 1.665.192.704-.01 1.371-.266 2.08-.174.653.085 1.27.267 1.934.186.366-.045.723-.142 1.095-.112.39.03.764.171 1.152.222.744.097 1.398-.34 2.13-.198.157.03.302.05.441.06-.043.229-.047.45-.331.538zm-9.487.322c.666.105 1.338.234 2.014.228.472-.004.94-.06 1.41-.092-.322.698-.969.744-1.696.7-.7-.041-1.335-.093-2.034.01-.608.09-1.208.207-1.826.175-.592-.03-1.17-.166-1.75-.281l-.103-.021c.299-.117.533-.329.625-.673.01-.042.008-.08-.004-.113.226-.02.453-.038.68-.048.667-.03 1.323.05 1.719-.368.139.279.515.412.965.483zm-11.399.108c.143-.112.326-.212.513-.294.528-.002 1.066-.2 1.604-.14.72.08 1.423.216 2.15.255.742.04 1.486.053 2.228.081.383.015.762-.01 1.14-.042-.485.692-1.565.397-2.323.553-.663.137-1.282.348-1.964.201-.426-.092-.844-.284-1.283-.306-.591-.029-1.182.153-1.776.136-.371-.01-.72-.107-.289-.444zm.21.872c.459.018.985-.094 1.26-.126.583-.069 1.012.049 1.582.2.726.194 1.352.093 2.074-.068.377-.084.745-.098 1.115-.113.792.085 1.539.298 2.349.443 1.17.211 2.22-.138 3.38-.14.776-.003 1.968.263 2.696-.148.898.267 1.864.166 2.802.227.742.049 1.468.108 2.214.087.727-.02 1.454-.066 2.182-.05.651.014 1.321.192 1.985.267-1.004.108-2.027.076-3.042.066-1.789-.018-3.585-.11-5.373-.053-.876.029-1.746.126-2.621.164-.92.04-1.823-.009-2.742-.04-.895-.029-1.79.008-2.685-.057-.844-.061-1.691-.18-2.54-.12-.454.032-.905.104-1.36.128-.528.028-.96-.115-1.46-.244-.709-.183-1.446-.218-2.158-.058.079-.143.201-.256.342-.365zm25.52.543c.387.483.009 1.382-.32 1.83-.477.652-1.437.631-2.165.68-2.231.15-4.465.02-6.698.024-1.095.002-2.186.053-3.28.003-1.094-.05-2.184-.155-3.278-.193-1.108-.039-2.214.042-3.322.067-1.096.024-2.194-.023-3.289-.08-.515-.027-1.029-.057-1.544-.077-.368-.014-.768-.016-1.114-.16-.481-.2-.6-.645-.75-1.1-.082-.247-.172-.51-.187-.77-.006-.095.004-.18.024-.255.826-.068 1.63-.01 2.429.237.753.232 1.427.2 2.207.116.854-.092 1.686-.02 2.537.068.924.096 1.84.092 2.767.101.884.01 1.761.075 2.647.042.908-.033 1.816-.086 2.725-.104 1.824-.038 3.65.047 5.473.069 1.654.02 3.59.217 5.138-.498zm1.68-3.317c-.346.251-.978.396-1.388.3-.48-.113-.783-.114-1.267-.03-.569.1-1.088-.152-1.653-.121-.46.025-.871.242-1.316.337-.562.121-1.088-.167-1.653-.08-.238.036-.458.128-.69.185-.396.099-.731.055-1.121-.023-.501-.101-.934-.192-1.448-.12-.693.099-1.25.11-1.942-.025-.502-.098-.95-.135-1.46-.063-.655.092-1.232.178-1.89.043-.414-.084-.8-.158-1.224-.083-.632.11-1.109.077-1.732-.05-.467-.096-.845-.094-1.306.038-.61.175-1.054.233-1.679.066-.415-.112-.754-.125-1.171-.01-.322.087-.63.201-.973.172-.344-.03-.607-.233-.931-.31-.496-.12-.98.186-1.47.083-.464-.098-.707-.559-1.214-.567-.293-.005-.645.167-.923.075-.84-.279-.205-.744.215-.952.61.671 1.685.804 2.539.895 1.2.127 2.422.074 3.628.075 2.894.002 5.78.005 8.674.085 3.237.088 6.513.201 9.743-.096.723-.067 1.467-.097 2.185-.207.463-.071.888-.238 1.152-.642.014-.021.025-.043.038-.064.446.239.825.692.278 1.09z" transform="translate(394 28)"/>
                <path d="M8.728 3.719c.934-.294 1.858-.618 2.793-.91.877-.274 1.776-.5 2.618-.871.124-.055.036-.257-.092-.217-1.902.596-3.816 1.152-5.718 1.751-.948.299-1.9.585-2.849.878-.8.246-1.723.422-2.452.846-.117.068-.015.227.103.176.82-.352 1.788-.5 2.645-.751.988-.29 1.97-.594 2.952-.902zM12.968 4.515c2.338-.763 4.765-1.432 7.003-2.46.09-.04.026-.178-.065-.155-2.414.611-4.781 1.49-7.144 2.271-1.144.378-2.287.761-3.435 1.129-.6.192-1.212.365-1.8.589-.582.22-1.14.49-1.741.658-.077.021-.044.13.032.117 1.18-.196 2.358-.644 3.503-.988 1.223-.366 2.434-.764 3.647-1.16zM12.689 6.482c-.06.029-.018.128.044.106 1.762-.617 3.615-.931 5.392-1.502 1.84-.592 3.746-1.136 5.512-1.926.14-.063.039-.276-.102-.24-1.935.489-3.818 1.25-5.715 1.87-1.71.56-3.509.893-5.131 1.692zM18.693 6.637c-.097.035-.06.186.043.157 1.202-.342 2.44-.532 3.645-.863 1.057-.29 2.287-.459 3.25-.997.143-.08.047-.326-.113-.268-1.084.39-2.23.626-3.335.952-1.165.344-2.347.602-3.49 1.019z" transform="translate(394 28)"/>
            </g>
        </g>
    </g>
</svg>
