<svg xmlns="http://www.w3.org/2000/svg" xmlns:xlink="http://www.w3.org/1999/xlink" width="34" height="26" viewBox="0 0 34 26">
    <defs>
        <filter id="j45abj9sya">
            <feColorMatrix in="SourceGraphic" values="0 0 0 0 0.984314 0 0 0 0 0.984314 0 0 0 0 0.984314 0 0 0 1.000000 0"/>
        </filter>
        <path id="mz7fwigf2b" d="M0 0.011L33.993 0.011 33.993 24.384 0 24.384z"/>
    </defs>
    <g fill="none" fill-rule="evenodd">
        <g filter="url(#j45abj9sya)" transform="translate(-148 -12)">
            <g>
                <g transform="translate(148 12) translate(0 .241)">
                    <mask id="gjieqm4fnc" fill="#fff">
                        <use xlink:href="#mz7fwigf2b"/>
                    </mask>
                    <path fill="#000" d="M32.861 22.128c0 .318-.135.623-.375.847v.002c-.24.225-.567.35-.906.35H2.413c-.354 0-.674-.135-.906-.352-.232-.216-.375-.516-.375-.847V2.267c0-.331.143-.631.375-.848.232-.216.552-.35.906-.35H31.58c.34 0 .666.126.906.35v-.001c.24.225.376.53.375.849v19.861zm1.132-19.86c0-.599-.254-1.172-.707-1.594V.672c-.437-.408-1.04-.66-1.706-.66V.01H2.413c-.666 0-1.27.252-1.706.66C.27 1.08 0 1.645 0 2.268v19.861c0 .599.254 1.173.707 1.595.452.424 1.066.662 1.706.661H31.58c.64 0 1.254-.238 1.706-.663v.002c.453-.422.707-.996.707-1.595V2.268z" mask="url(#gjieqm4fnc)"/>
                </g>
                <path fill="#000" d="M31 7.595c0-1.351-1.253-2.448-2.799-2.45H18v4.903h10.201v-.002C29.747 10.043 31 8.947 31 7.596M31 12.499c0-1.352-1.253-2.448-2.799-2.45H18v4.903h10.201v-.003C29.747 14.946 31 13.85 31 12.499M9.49 10.183v-.346H17v-.481c0-2.868-2.29-5.192-5.113-5.192H7.114C4.29 4.164 2 6.488 2 9.356v1.385c0 2.867 2.29 5.191 5.114 5.191h4.773c2.824 0 5.113-2.324 5.113-5.191v-.558H9.49zM14.923 19.867c-.145-.675-.593-1.112-1.139-1.112-.575 0-1.053.457-1.156 1.112h2.295zm-2.307.378c.03.65.557 1.18 1.168 1.18.43 0 .878-.333 1.036-.769h.418c-.212.669-.818 1.145-1.454 1.145-.871 0-1.567-.754-1.567-1.708s.69-1.716 1.556-1.716c.569 0 1.095.352 1.368.908.127.258.175.503.188.96h-2.713zm17.978-.378c-.145-.675-.593-1.112-1.138-1.112-.575 0-1.053.457-1.156 1.112h2.294zm-2.306.378c.03.65.557 1.18 1.168 1.18.43 0 .878-.333 1.035-.769h.418c-.212.669-.818 1.145-1.453 1.145-.872 0-1.568-.754-1.568-1.708s.69-1.716 1.556-1.716c.57 0 1.096.352 1.368.908.128.258.176.503.188.96h-2.712zm-3.765-.378c-.145-.675-.593-1.112-1.139-1.112-.574 0-1.053.457-1.156 1.112h2.295zm-2.307.378c.03.65.557 1.18 1.168 1.18.43 0 .878-.333 1.036-.769h.418c-.212.669-.818 1.145-1.454 1.145-.871 0-1.567-.754-1.567-1.708s.69-1.716 1.555-1.716c.57 0 1.096.352 1.369.908.127.258.175.503.187.96h-2.712zm-1.013 1.477h.381v-3.828h-.381v3.828zm-2.963-1.61c0 .729.54 1.312 1.212 1.312.66 0 1.192-.602 1.192-1.338 0-.742-.527-1.331-1.18-1.331-.715 0-1.224.57-1.224 1.358zm-.375-2.218h.406v1.126c.26-.424.66-.643 1.168-.643.866 0 1.587.769 1.587 1.696 0 .954-.708 1.729-1.58 1.729-.503 0-.933-.232-1.2-.643v.564h-.38v-3.83zm-8.53.563h.381v.47c.123-.247.417-.458.878-.49v.384c-.26.027-.381.073-.545.226-.23.204-.308.41-.308.774v1.901h-.406v-3.265zm-1.052 1.49h-.012c-.051.096-.228.127-.335.145-.677.12-1.519.114-1.519.75 0 .396.355.642.728.642.607 0 1.145-.385 1.139-1.02v-.516zm-2.125-.477c.038-.761.576-1.089 1.322-1.089.576 0 1.202.177 1.202 1.045v1.723c0 .152.076.24.234.24.044 0 .095-.013.127-.025v.333c-.086.019-.173.027-.26.025-.405 0-.468-.226-.468-.566h-.013c-.278.422-.563.66-1.189.66-.6 0-1.094-.295-1.094-.95 0-.912.892-.943 1.752-1.044.33-.037.513-.081.513-.44 0-.535-.386-.667-.855-.667-.493 0-.86.226-.873.755h-.398zm-.38 1.291c-.293.696-.724 1.04-1.307 1.04-.828 0-1.471-.748-1.471-1.708 0-.954.648-1.716 1.455-1.716.594 0 1.111.417 1.324 1.067h-.403c-.207-.43-.556-.69-.927-.69-.62 0-1.106.584-1.106 1.332 0 .748.48 1.338 1.09 1.338.392 0 .665-.192.943-.663h.403z" transform="translate(148 12)"/>
                <path fill="#000" d="M26.616 18.468v1.804c0 .725-.344 1.162-.924 1.166-.58-.004-.925-.44-.925-1.166v-1.804h-.384v1.804c0 .98.457 1.545 1.255 1.545.019 0 .035-.003.054-.004.018 0 .034.004.053.004.798 0 1.255-.564 1.255-1.545v-1.804h-.384zm-16.109-.022h1.046v.37h-1.046v2.058c0 .286.039.454.328.475.116 0 .602-.007.718-.02v.377c-.122 0-.608.014-.73.014-.541 0-.727-.196-.72-.811v-2.092H10v-.371h.102v-.552h.405v.552z" transform="translate(148 12)"/>
            </g>
        </g>
    </g>
</svg>
