<svg xmlns="http://www.w3.org/2000/svg" width="250" viewBox="0 0 30 21">
    <defs>
        <filter id="yelg6isvja">
            <feColorMatrix in="SourceGraphic" values="0 0 0 0 0.000000 0 0 0 0 0.000000 0 0 0 0 0.000000 0 0 0 0.040000 0"/>
        </filter>
    </defs>
    <g fill="none" fill-rule="evenodd">
        <g filter="url(#yelg6isvja)" transform="translate(-484 -27)">
            <g>
                <path fill="#000" fill-rule="nonzero" d="M29.996 13.226c-.044-.712-.481-1.33-.98-1.798-.56-.524-1.227-.937-1.923-1.24-.116-.05-.233-.097-.35-.14-.227-.093-.457-.178-.684-.258-.347-.122-.703-.218-1.062-.292l-.024-.004c-.062-.014-.124-.026-.187-.035l-.166-.03c.008-.19-.062-.442-.11-.578-.064-.176-.164-.324-.294-.443.06-.1.13-.196.183-.3.093-.185.15-.402.156-.61.006-.21-.048-.388-.18-.545-.152-.179-.204-.088-.1-.303.173-.36.367-.654.304-1.076-.046-.299-.208-.517-.411-.71.038-.093.067-.186.088-.28.035-.064.067-.13.095-.2.36-.9-.434-1.77-1.21-2.074-.994-.387-1.917-.906-2.87-1.398-1.003-.518-2.249-.574-3.339-.741-.55-.085-1.111-.12-1.663-.138-.997-.03-1.993.024-2.978.186-1.026.17-2.036.442-3.016.796-.808.292-1.712.574-2.41 1.096-.681.51-1.152 1.323-1.146 2.199.001.207.042.407.063.612.02.202-.063.344-.125.53-.142.428-.054.75.114 1.145.068.159.081.257.005.412-.091.185-.2.355-.245.56-.042.188-.034.385.026.568.052.159.188.318.204.487.013.142-.09.262-.146.388-.086.191-.124.39-.114.601.004.081.028.161.031.241v.007c-.15.124-.382.188-.563.243-.484.147-.971.244-1.442.439-.526.217-1.034.476-1.527.762-.408.237-.81.494-1.155.822-.07.068-.135.137-.193.208-.488.502-.8 1.14-.581 1.885.375 1.283 1.834 1.979 2.933 2.454.197.085.395.166.594.245l.031.035c.167.378.461.702.744.99.387.396.82.738 1.276 1.047.94.637 1.978 1.14 3.086 1.374 1.211.256 2.462.311 3.692.423 1.318.12 2.652.24 3.976.163.745-.043 1.49-.135 2.227-.25.724-.115 1.52-.204 2.21-.461l.028-.014c.517-.127 1.03-.29 1.538-.509.806-.345 1.597-.73 2.293-1.276.365-.286.66-.612.952-.972.181-.224.375-.425.486-.68 1.085-.408 2.228-.822 3.048-1.675.475-.494.856-1.175.811-1.888zm-6.205-6.994c-.031.054-.062.107-.09.162-.321.48-1.02.849-1.418 1.043-.058.029-.117.055-.175.082-.116-.39-.248-.824-.152-1.202.015-.03.03-.06.048-.088.527-.23 1.15-.514 1.642-.922.035.048.068.097.098.148.163.279.155.54.047.777zm-1.56 1.753c.472-.213.992-.47 1.415-.822.035.048.068.097.099.148.092.158.128.31.124.455-.095.229-.29.453-.353.667-.005.018-.008.036-.01.054-.356.364-.89.644-1.221.806.081-.43.037-.881-.055-1.308zm-.386-5.519c.021-.086.029-.174.024-.258.098.05.195.103.291.157.408.23.894.478 1.257.827.305.484.422 1.037.11 1.56-.225.239-.53.442-.807.6.175-.267.288-.58.154-.886-.031-.07-.073-.13-.122-.182-.024-.039-.052-.077-.084-.114-.28-.313-.685-.316-1.065-.376-.175-.027-.408-.072-.495-.256-.061-.128.013-.179.11-.271.248-.237.54-.443.627-.8zm-13.937-.06c.06-.09.13-.171.184-.227.228-.107.463-.202.693-.299.915-.381 1.847-.706 2.809-.937.586-.141 1.182-.248 1.78-.324.558-.047 1.113-.072 1.677-.051 1.087.04 2.176.127 3.243.345.557.114 1.101.36 1.654.46.768.138 1.917.59.998 1.415-.22.196-.44.424-.398.748.048.37.38.643.711.742.273.082.935.005 1.07.327.12.288-.32.704-.474.901-.26.335-.419.639-.416 1.082l.002.062c-.035.438.099.894.221 1.308.075.255.141.504.175.752.02.418-.048.864-.342 1.143-.124.119-.16.066-.24-.072-.09-.158-.14-.35-.165-.53-.035-.24.005-.486.017-.726.022-.429.143-1.405-.372-1.604-.302-.117-.502.115-.639.399-.109.16-.159.35-.202.544l-.015.044c-.08.235-.15.568-.323.756-.017.019-.028.029-.036.036-.042 0-.07-.07-.097-.208-.042-.22-.06-.444-.071-.668-.004-.19-.002-.38-.007-.563l-.008-.348c0-.149 0-.297-.004-.446-.01-.406-.008-.955-.326-1.255l-.027-.022c-.135-.157-.322-.246-.564-.181-.103.027-.199.074-.286.135-.051.025-.1.055-.146.088-.211.154-.277.344-.413.553-.07.107-.129.208-.243.226-.131-.012-.27-.147-.39-.188-.77-.268-1.068.633-1.19 1.213-.033.154-.063.41-.143.609-.278.368-.643.148-1.043 0-.115-.044-.226-.063-.329-.057l-.019.001c-.562.027-.765.746-.766 1.332 0 .429.029.855.022 1.284-.008.437-.005.952-.23 1.34-.125.217-.334.304-.474.043-.12-.225-.083-.542-.067-.787.03-.466.146-.896.243-1.35.088-.408.161-.88-.045-1.264-.111-.208-.257-.288-.418-.28-.217-.097-.407.14-.584.272-.083.036-.163.036-.233-.06-.096-.13-.16-.271-.266-.391-.04-.107-.109-.195-.26-.226-.111-.023-.21-.01-.3.028-.064.02-.126.056-.184.11-.119.112-.201.26-.268.417-.09.193-.16.414-.22.626-.074.208-.157.41-.268.606-.1.176-.254.425-.446.512-.128-.185-.172-.428-.19-.661v-.012c.049-.778-.038-1.537-.046-2.313-.005-.54.257-.843.603-1.208.133-.14.308-.307.332-.513.009-.07.003-.13-.014-.184-.007-.076-.037-.15-.099-.218-.22-.243-.57-.134-.823-.02-.323.145-.618.333-.954.447-.095.031-.352.14-.398.006-.046-.175.234-.407.35-.496.24-.183.514-.304.778-.442.217-.114 1.074-.498 1.338-.887.036-.042.07-.088.098-.14.055-.099.022-.225-.072-.284-.479-.299-1.124-.11-1.637-.02-.216.039-.53.113-.746.047-.193-.058-.153-.285-.062-.497zm6.003 7.93c.004-.202 0-.405-.003-.606-.003-.123-.011-.251-.02-.38 1.721.111 3.498.016 5.202-.344.096.132.243.215.411.213.26-.004.437-.22.553-.434l.009-.015c.183-.052.365-.106.546-.164-.049.428-.088.865.06 1.27-.57.153-1.151.27-1.721.374-1.543.28-3.102.444-4.67.414-.121-.002-.243-.008-.365-.012l.001-.098c0-.073 0-.146-.003-.218zm4.957-3.14c0 .091.002.183.004.274.006.282-.011.618.026.932-1.527.276-3.07.436-4.62.406-.133-.003-.266-.008-.399-.013.008-.069.019-.137.033-.206.026-.13.055-.296.123-.41.018-.03.036-.055.054-.077.157-.123.375-.001.605.115.287.146.612.286.923.126.33-.17.456-.483.536-.825.911-.041 1.822-.147 2.715-.323zm-2.583-.308c.03-.126.07-.247.123-.355.061-.124.157-.245.305-.243.17.003.33.178.5.218.44.104.706-.3.916-.622.086-.133.171-.261.31-.34.069-.038.141-.055.141-.055.021.004.033.009.067.064.048.078.073.166.095.255.062.241.092.492.107.745-.85.152-1.706.266-2.564.333zm4.294.637c.02.016.035.035.048.056.028.145.033.294.033.441-.11.03-.22.058-.331.085.022-.066.043-.131.066-.196.042-.12.08-.244.133-.36l.024-.043c.009.004.016.01.023.015-.019.08-.01.053.004.002zM12.311 9.19l.207.027c-.023.225-.066.45-.103.672-.04.163-.077.326-.097.491l-.018.15c-.776-.09-1.548-.225-2.309-.41.202-.208.28-.495.34-.787.015-.028.03-.054.042-.08.066-.129.118-.263.166-.4.587.139 1.178.254 1.772.337zm-1.62-.775c.047-.132.103-.333.209-.43.126-.113.206.03.29.155l.03.045c.01.034.022.067.035.1.05.124.126.216.215.273-.261-.042-.52-.09-.78-.143zm1.23.208l.03-.007c.17-.05.306-.206.468-.25.017-.005.031-.006.044-.007.04.089.05.222.06.337-.201-.02-.402-.046-.603-.073zM6.748 3.241c.197-.305.451-.537.735-.726-.14.406-.053.812.545.846.248.015.495-.035.738-.102l.205-.033c.272-.044.624-.136.922-.084-.101.07-.22.12-.329.168-.216.096-.423.202-.632.312-.386.202-.807.401-1.105.733-.2.223-.453.564-.37.89.088.34.442.392.728.325.346-.08.676-.261.99-.424.093-.049.422-.257.525-.188.079.053-.18.304-.245.37-.228.238-.417.488-.54.784-.496-.151-.986-.323-1.462-.528-.353-.151-.739-.353-.983-.646-.009-.17-.034-.345-.044-.538-.02-.426.093-.803.322-1.159zm-.372 2.317c.018-.042.032-.084.044-.124.244.197.531.345.803.466.514.228 1.04.43 1.572.608-.09.45-.054.916-.015 1.37l.004.05c-.45-.141-.897-.3-1.331-.488-.345-.148-.722-.344-.967-.627.001-.094-.012-.194-.046-.302-.047-.151-.14-.287-.183-.438-.052-.183.05-.349.12-.515zm-.119 2.14c.035-.146.091-.282.16-.41.244.198.533.347.806.468.517.23 1.045.432 1.58.61.007.25.01.498.035.746l.018.163c-.012.177-.017.365.014.538-.48-.148-.955-.318-1.417-.516-.383-.165-.806-.388-1.044-.725-.002-.026-.006-.053-.012-.08-.037-.173-.12-.312-.174-.453-.005-.106.005-.22.034-.342zm0 1.855c.035-.144.092-.28.161-.408.244.198.532.346.805.467 1.603.713 3.311 1.18 5.033 1.426-.004.174.007.346.047.508.063.373.238.672.64.724.625.081.85-.498.928-1.064 2.376.157 4.86-.083 7.11-.866.153.136.343.217.548.17.278-.064.451-.336.562-.607.507-.224 1.09-.498 1.554-.884.035.048.068.097.098.148.547.935-.83 1.675-1.461 1.983-1.042.508-2.212.751-3.335.956-1.543.281-3.102.444-4.67.414-1.565-.03-3.128-.23-4.646-.633-.738-.195-1.473-.431-2.178-.734-.647-.278-1.408-.724-1.196-1.6zm16.996 2.87c-.34.168-.646.396-.973.584-1.042.507-2.21.75-3.333.955-1.543.281-3.102.444-4.67.414l-.12-.003c-1-.046-1.999-.163-2.985-.344-.629-.115-1.25-.262-1.875-.398l-.304-.068c-.522-.157-1.039-.338-1.54-.554-.217-.093-.446-.205-.647-.345-.222-.186-.408-.41-.514-.677-.04-.1-.061-.2-.07-.3 0-.087.012-.18.035-.277.036-.145.092-.281.161-.41.244.199.532.347.805.468 1.62.72 3.347 1.19 5.087 1.435 3.172.447 6.693.208 9.676-1.098.53-.232 1.162-.517 1.659-.93.035.048.069.097.099.149.322.55-.024 1.033-.491 1.4zm-22.612.972c.029-.079.065-.153.105-.225.455-.563 1.035-.97 1.67-1.316.438-.239.879-.477 1.34-.667.423-.174.862-.268 1.299-.395.276-.08.612-.181.856-.37-.01.14-.017.28-.027.424-.023.336-.116.645-.07.985.075.574.461 1.025.906 1.352.94.69 2.178.859 3.28 1.115l.086.02c.734.189 1.478.335 2.224.44 2.78.393 5.827.257 8.546-.66.293-.083.584-.173.87-.274.363-.13.712-.275 1.023-.511l.025-.02c.657-.341 1.302-.797 1.576-1.483.212-.531.049-.991-.274-1.38.095-.125.177-.26.242-.405.058.014.118.024.175.034.347.06.69.134 1.029.234.587.173 1.155.423 1.718.665l.188.08c.296.17.58.363.842.58.37.308.749.692.937 1.154-.007.254-.078.49-.191.708-.125.127-.258.246-.403.354-.34.253-.711.459-1.075.674-.877.518-1.774.941-2.748 1.233-2.04.612-4.13 1.05-6.245 1.282-4.213.465-8.474.09-12.616-.785-1.069-.227-2.176-.453-3.147-.985-.492-.27-.981-.6-1.413-.963-.3-.25-.491-.584-.734-.878l.006-.017zm21.69 5.674c-.737.325-1.492.601-2.287.73-.872.14-1.758.206-2.637.288-1.609.149-3.216.144-4.826.008-1.553-.132-3.167-.229-4.67-.677-1.022-.305-1.98-.846-2.863-1.493l-.18-.146c-.238-.196-.455-.419-.676-.635 1.425.525 2.903.92 4.388 1.192 3.841.702 7.77.456 11.616-.07 1.686-.23 3.35-.548 4.959-1.11-.742.873-1.815 1.467-2.824 1.913zm6.29-4.35c-.853.827-2.066 1.18-3.14 1.6-1.555.608-3.177.966-4.82 1.214-3.348.506-6.777.791-10.154.451-1.696-.171-3.367-.536-5.001-1.03-.797-.24-1.583-.511-2.36-.81-.608-.233-1.249-.453-1.781-.845-.473-.348-.83-.866-.814-1.446.486 1.148 1.884 1.78 3.034 2.181.405.148.821.265 1.244.368 2.16.526 4.375.877 6.585 1.095 4.395.432 8.862.006 13.111-1.22.553-.16 1.09-.356 1.61-.588.714-.24 1.422-.522 2.046-.905.305-.187.612-.457.852-.775.068-.056.133-.115.195-.175-.124.337-.355.642-.606.885z" transform="translate(484 27)"/>
            </g>
        </g>
    </g>
</svg>
