<svg xmlns="http://www.w3.org/2000/svg" width="21" height="29" viewBox="0 0 21 29">
    <path fill="#fff" fill-opacity=".85" fill-rule="evenodd" d="M15.05 17.621v5.165c0 1.906-1.567 3.452-3.5 3.452s-3.5-1.546-3.5-3.452V17.62c-1.694 1.119-2.8 3.01-2.8 5.165 0 3.438 2.814 6.214 6.3 6.214 3.486 0 6.3-2.776 6.3-6.214 0-2.155-1.106-4.046-2.8-5.165zM1.274 11.227l6.356 3.121c.238.097.49.152.756.152H9.45v8.286c0 1.146.938 2.071 2.1 2.071 1.162 0 2.1-.925 2.1-2.071V7.954l4.802.995c.112.013.21.041.336.041.434 0 .826-.18 1.106-.456L21 7.43 14.084.608C13.706.235 13.174 0 12.6 0H3.094c-1.05 0-1.862.76-2.016 1.768L.028 9.045C.014 9.142 0 9.24 0 9.321c0 .857.532 1.602 1.274 1.906z"/>
</svg>
