<svg xmlns="http://www.w3.org/2000/svg" width="30" height="30" viewBox="0 0 30 30">
    <defs>
        <filter id="n7i1gchyna">
            <feColorMatrix in="SourceGraphic" values="0 0 0 0 0.000000 0 0 0 0 0.000000 0 0 0 0 0.000000 0 0 0 1.000000 0"/>
        </filter>
    </defs>
    <g fill="none" fill-rule="evenodd">
        <g filter="url(#n7i1gchyna)" transform="translate(-169 -22)">
            <g fill="#000" fill-rule="nonzero">
                <path d="M29.417 11.18c-.51-1.785-1.268-3.537-2.405-5.015-.428-.558-.911-1.076-1.455-1.543-.972-.834-1.683-1.774-2.782-2.482C20.967.975 19.173.37 17.025.125 13.105-.323 9.29.405 6.11 2.782 3.751 4.544 2.027 6.958 1.051 9.71.04 12.562-.36 15.76.401 18.714c.762 2.955 2.6 5.716 5.013 7.61 2.514 1.975 5.66 3.094 8.822 3.51 3.102.408 6.5.126 9.201-1.562 5.537-3.46 7.703-11.05 5.98-17.091zm-.624 7.93c-.67 2.757-1.981 5.327-4.11 7.264-4.525 4.119-11.862 3.429-16.92.627-2.644-1.465-4.753-3.78-5.98-6.521-1.228-2.743-1.266-5.704-.632-8.6.664-3.028 2.082-5.973 4.396-8.108.896-.827 1.782-1.194 2.887-1.714C9.365 1.62 10.37 1.21 11.385 1c3.498-.72 6.73-.504 9.943 1.155 1.463.757 2.65 1.8 3.782 2.976 1.184 1.228 2.195 2.463 2.844 4.047.644 1.574 1.137 3.193 1.311 4.888.176 1.71-.069 3.382-.472 5.044z" transform="translate(169 22)"/>
                <path d="M10.036 9.515c.171.092.438-.02.419-.237-.053-.602-.173-2.074.846-1.48.127.075.264 0 .312-.125.149-.383.366-.753.674-1.032.49-.445.899-.335 1.45-.061.11.055.263-.063.183-.181-.848-1.253-2.124-.02-2.611.93-1.032-.457-1.361.622-1.408 1.548-1.096-.237-1.466 1.364-.83 2.24-.557.263-1.04.63-1.093 1.316-.046.607.273 1.264.896 1.423.185.047.25-.213.077-.278-.532-.202-.685-.934-.464-1.394.212-.441.671-.644 1.142-.71.205-.028.271-.335.123-.461-.46-.392-.7-2.024.284-1.498zM12.625 10.41c.066.176.348.106.29-.08-.09-.28-.046-.575.04-.853.065-.213.439-1.09.771-.535.1.166.404.152.444-.057.09-.466.346-1.262 1.036-.898.155.081.38.016.421-.17.186-.834.954-1.08 1.67-.702.141.074.305-.077.222-.22-.588-1.007-1.935-.374-2.346.487-.7-.154-1.322.351-1.456 1.053-.871-.256-1.397 1.16-1.092 1.975zM12.665 15.719c.405.264.813.415 1.299.11.404-.255.539-.651.609-1.077.235.076.473.061.694-.13.146-.126.226-.307.31-.474.146-.288.13-.336.458-.324.595.021 1.085-.204 1.365-.788.286-.596.025-1.164-.324-1.666-.088-.126-.292-.05-.254.106.14.577.345 1.277-.244 1.703-.416.301-.606-.041-.986.142-.462.223-.488 1.197-1.094.848-.126-.073-.34-.013-.366.147-.045.273-.078.664-.276.869-.384.399-.813.208-1.192-.04-.138-.091-.3.007-.35.14-.059.156-.09.39-.192.522-.475.623-.975.062-.886-.492.013-.084-.101-.118-.13-.035-.17.47-.003 1.13.547 1.264.591.143.841-.36 1.012-.825zM14.718 10.75c-.143-.091-.31.03-.32.18-.014.266-.069.53-.19.77-.23.452-.542.24-.77-.135-.081-.134-.27-.017-.208.12.176.388.498.877.99.617.352-.185.507-.608.569-1.005.234.14.482.241.77.192.375-.064.666-.36.83-.681.223-.442.29-1.426-.468-1.329-.118.015-.209.155-.105.251.259.241.232.556.086.858-.27.557-.747.439-1.184.162zM9.383 15.646c-.973-.092-1.577.88-1.485 1.737-.613-.03-1.333.314-1.313.86-.615-.134-1.292.29-.973 1.018.053.122.262.035.217-.09-.245-.685.58-.802.94-.462.153.145.369-.037.283-.216-.318-.659.714-.8 1.057-.57.18.12.43-.08.367-.279-.285-.888.292-1.278 1.014-1.608.21-.096.079-.372-.107-.39zM11.507 12.933c-.249-.604-.994-.254-1.26.135-.27.394-.345 1.027.142 1.289.144.077.316-.119.182-.234-.242-.208-.147-.574.02-.8.079-.107.187-.207.319-.24.145-.036.302.032.449.042.091.007.184-.103.148-.192z" transform="translate(169 22)"/>
                <path d="M27.575 14.927c-.368.218-.788.44-1.212.679.364-.505.677-1.043.924-1.615.263-.61.586-1.322.261-1.969-.203-.405-.702-.907-1.166-1.003-.546-.114-.924.39-1.233.75-.242.281-.475.571-.704.865-.068-.203-.216-.38-.456-.508.899-.514 1.627-2.096 1.51-2.998-.113-.861-1.085-1.878-1.992-1.324-.846.517-1.039 1.697-1.51 2.488-.269.45-.633.86-1.02 1.244.195-.664.144-1.321-.093-2.043-.343-1.04.154-2.135-.104-3.226-.224-.949-.786-1.829-1.479-2.513-.361-.356-.798-.69-1.282-.864-.527-.19-1.082-.081-1.63-.15-.817-.103-1.536-.098-2.233.124-.128.03-.257.07-.385.12-.223.086-.404.2-.57.336-.04.026-.078.05-.118.078-.045.03-.073.069-.088.109-.05.049-.1.1-.15.153-.428.456-.653.477-1.236.499-.86.032-1.668.321-2.348.84-.344.262-.633.566-.91.894-.335.396-.657.577-1.1.833-.873.503-1.128 1.167-1.455 2.065-.337.928-.886 1.673-.756 2.712.06.482.24.94.54 1.327.092.118.223.215.307.334.22.311.133.513.03.84-.21.664.028 1.297.312 1.896-.276.027-.574-.003-.83.018-.331.028-.656.107-.976.19-.586.15-1.802.629-2.108 1.198-.205.379.09.974.297 1.289.655.994 1.554 1.815 2.526 2.5.762.537 1.591.966 2.445 1.339.598.26 1.253.575 1.924.495.465-.056.8-.245 1.035-.517.053.108.12.208.188.291.146.178.401.374.65.404.096.485.394.935.846 1.132.01.005.02.008.03.01-.086.18-.12.39-.07.645.155.796.958 1.198 1.723 1.193.738-.005 1.502-.347 2.187-.756.055.568.21 1.185.78 1.424.688.289 1.564-.017 2.228-.225 2.1-.657 4.06-1.688 5.772-3.06.798-.641 2.425-1.938 2.293-3.137-.167-1.521-2.268-.3-3.051.233.119-.101.238-.201.36-.298.823-.647 1.686-1.243 2.49-1.914 1.073-.897 2.081-2.16.89-3.391-.071-.073-.196-.088-.283-.036zm-.624.876c-.148.259-.241.569-.257.865-.975.737-1.98 1.44-2.951 2.186.038-.192.053-.383.027-.564l.527-.479c.387-.348.764-.705 1.122-1.08.174-.12.349-.238.527-.346.33-.201.667-.393 1.005-.582zm-.146-3.77c.209.237.29.55.226.873-.253 1.27-1.2 2.5-2.08 3.414-.902.938-1.965 1.69-2.924 2.559.054-.36.025-.806-.12-1.185.475-.213.86-.552 1.267-.884.622-.51 1.193-1.043 1.724-1.646.742-.843 1.764-1.952 1.907-3.13zm-5.386 9.305c.233-.531.507-1.129.552-1.72.038-.003.076-.013.114-.034.363-.202.703-.454 1.03-.723-.015.082-.033.165-.057.247-.117.403-.28.8-.46 1.18-.257.543-.68 1.102-.683 1.722l-.763.452c-.142.084-.284.166-.428.247.286-.428.5-.926.695-1.37zm-1.229 1.657c-.298.15-.603.288-.918.403-.283.104-.57.171-.858.23.558-.488 1.088-1.007 1.595-1.544.473-.5.993-1.07 1.392-1.694-.128.335-.243.676-.384.988-.247.548-.593 1.065-.827 1.617zm4.319-9.517c.39-.473.777-.944 1.186-1.402.22-.246.412-.402.667-.338-.24.492-.393 1.013-.684 1.486-.36.587-.802 1.125-1.246 1.65-.735.872-1.638 1.948-2.655 2.55-.144-.237-.35-.423-.63-.504-.076-.021-.15-.032-.223-.037.241-.2.495-.39.727-.595.31-.275.614-.556.916-.84.733-.56 1.36-1.264 1.942-1.97zm-4.54 2.396c-.53.674-1.015 1.385-1.45 2.123-.381.644-.898 1.392-1.075 2.14-.27-.354-.843-.496-1.297-.393.093-.292.263-.57.444-.827.068-.035.1-.09.105-.146l.078-.106c.506-.683 1.067-1.34 1.616-1.99 1.04-1.232 2.213-2.439 3.51-3.416.307-.23 1.193-.88 1.706-.687-1.41.873-2.616 2.003-3.637 3.302zm3.89-3.07c.194.43-.575 1.111-.829 1.368-.516.522-1.043 1.034-1.573 1.543-.445.427-1.057.856-1.328 1.432-.562.392-1.026 1.123-1.356 1.53-.215.266-.433.525-.654.779.179-.338.341-.688.526-1.002.43-.733.892-1.449 1.405-2.128 1.05-1.393 2.312-2.607 3.81-3.522zm-6.717 7.72c-.231.24-.465.477-.705.708-.207-.369-.385-.733-.358-1.15.19.024.389.008.575.056.237.06.348.233.488.387zM16.06 18.65c-.477.18-.903.46-1.397.604-.39.113-.824.126-1.155-.133-.27-.212-.34-.452-.363-.725l.042.003c.21.011.413.016.622-.013.499-.068.964-.27 1.372-.56.296-.209.54-.466.736-.769.22-.342.344-.875.704-1.085.01.148.043.29.066.357.101.29.296.62.584.764-.42.498-.861 1.007-1.21 1.557zm-.518 1.203c-.046.326.003.63.13.918-.471.251-.922.568-1.347.88-.372.274-.865.593-1.202.942l-.035-.033c-.278-.234-.6-.33-.941-.37.35-.36 1.009-.618 1.382-.846.688-.419 1.453-.88 2.013-1.49zm-1.33 2.258c.512-.391 1.058-.73 1.606-1.067.097.152.213.3.352.443-.115.107-.23.215-.348.321-.728.517-1.477.991-2.222 1.421l-.078.044c-.031-.172-.138-.36-.248-.508.35-.124.655-.437.939-.654zm1.595.367c1.748-1.268 3.417-2.774 4.468-4.671.2-.18.43-.309.667-.245-.322.577-.577 1.188-.913 1.758-.463.785-1.115 1.399-1.81 1.982-.624.524-1.282 1.006-1.922 1.51-.613.482-1.144.987-1.847 1.315l-.05-.037c-.299-.199-.594-.207-.893-.154.785-.461 1.56-.92 2.3-1.458zm7.638-10.544c-.01.014-.013.028-.019.042-.268-.012-.538.053-.796.155.652-.655 1.23-1.386 1.478-2.2.167.155.375.27.588.285-.322.633-.917 1.21-1.251 1.718zm1.426-2.901c.069.253.059.5-.003.74-.121-.011-.242-.025-.348-.082-.16-.087-.272-.252-.35-.411-.15-.304-.191-.63-.207-.961.393-.117.783.257.908.714zm-3.221 2.605c.642-.64 1.016-1.288 1.398-2.09.166-.348.34-.747.61-1.03-.053.365.03.768.189 1.075.009.018.02.035.031.052-.621 1.172-1.452 2.116-2.3 3.101-.49.366-.933.792-1.385 1.2-.913.825-1.74 1.716-2.52 2.663l-.028-.01c-.264-.069-.436-.305-.548-.54-.039-.082-.063-.163-.082-.246.3-.092.603-.15.888-.346.343-.236.594-.544.815-.891.283-.446.492-.771.923-1.101.251-.192.477-.425.674-.679.471-.36.924-.75 1.335-1.158zm-11.325 7.038c-.252.013-.46.243-.383.498.288.973.514 3.229-1.141 2.778-1.033-.282-2.066-.823-2.968-1.385-.72-.448-1.402-.975-1.953-1.619-.397-.463-.845-.91-.359-1.465.412-.469 1.12-.55 1.706-.621.634-.078 1.308.068 1.878-.289.211-.132.291-.401.165-.62-.212-.368-.476-.748-.564-1.168-.097-.459.184-.756.243-1.182.102-.747-.722-1.114-.978-1.735-.413-.998.162-1.765.489-2.668.175-.484.235-1.046.604-1.438.29-.309.7-.468 1.06-.677.634-.37.997-1 1.577-1.438.693-.524 1.451-.668 2.306-.687.7-.016.963-.377 1.37-.895.399-.511.98-.726 1.598-.782.18-.003.363.012.548.053.478.103.918.273 1.41.31.703.05 1.174.289 1.683.786.389.379.719.829.957 1.315.244.496.37 1.039.364 1.59-.008.592-.256 1.154-.191 1.748.057.52.331.994.35 1.521.025.644-.286 1.28-.678 1.778-.332.422-.805.67-1.102 1.124-.239.363-.401.789-.718 1.097-.43.417-1.002.377-1.485.672-.342.209-.513.58-.704.913-.227.395-.452.744-.84 1.002-.304.203-.669.355-1.04.369-.237.009-.457-.09-.691-.06-.367.045-.538.289-.786.527-.436.418-1.13.62-1.727.648zm2.623.612c-.37.278-.691.632-1.08.89-.256.169-.521.327-.8.454l-.043.018c-.013-.43-.085-.862-.182-1.24.69-.11 1.302-.4 1.853-.853-.002.247.098.508.252.731zm-1.162 2.443c-.224.193-.356.455-.41.737-.091-.036-.18-.078-.257-.15-.123-.117-.195-.266-.28-.406.093-.233.147-.491.172-.76.39-.058.847-.332 1.078-.466.383-.22.985-.56 1.257-.992.062.044.127.082.192.112.457.206.894.176 1.315.035-.334.246-.674.483-1.034.7-.648.392-1.459.697-2.033 1.19zm.746 2.16c-.301-.412-.819-.877-.57-1.439.005-.013.013-.026.02-.039.284.082.577.227.79.413.123.11.22.241.263.4.028.103.026.2.057.283-.202.114-.4.236-.56.382zm1.739 1.592c-.857.21-1.853-.463-1.357-1.106.314.015.66-.106.959 0 .525.188.446.65.607 1.048-.07.021-.14.04-.209.058zm.697-.24c.034-.288-.088-.613-.272-.86.51-.12.966-.496 1.358-.812.727-.584 1.49-1.122 2.22-1.704.71-.568 1.418-1.169 1.941-1.917.444-.635.766-1.35 1.099-2.05.142.314.122.76.046 1.05-.274 1.05-1.156 1.995-1.885 2.763-.735.773-1.514 1.515-2.36 2.17-.63.49-1.371 1.025-2.147 1.36zm2.159 1.007c-.442-.158-.638-.61-.765-1.083.257-.163.5-.331.722-.488.146-.103.288-.21.43-.318.18.274.287.551.195.912-.097.385-.369.658-.582.977zm9.436-5.927c.118.238-.194.68-.307.862-.975 1.567-2.78 2.703-4.374 3.563-.983.53-2.012.947-3.079 1.278-.372.116-.775.254-1.172.28.256-.277.434-.652.487-1.025.628.086 1.283-.201 1.852-.428.807-.322 1.62-.646 2.389-1.05 1.604-.84 2.964-2.178 4.008-3.64.085.026.154.075.196.16zm-1.377.172c.111-.063.341-.183.585-.265-1.014 1.227-2.094 2.38-3.524 3.154-1.27.688-2.694 1.313-4.114 1.63-.009-.27-.093-.527-.273-.73 1.822.05 3.685-1.433 5.122-2.3.76-.46 1.435-1.05 2.204-1.49zm.179-1.566c-.912.691-1.791 1.407-2.601 2.204.214-.382.412-.774.58-1.163.076-.177.164-.376.242-.585.608-.395 1.161-.89 1.756-1.3.472-.323.99-.644 1.373-1.077.044.239.153.447.345.583-.557.543-1.267 1.013-1.695 1.338zm1.918-1.568c-.11-.352-.266-.615-.194-1.021.067-.379.272-.642.524-.906l.024-.013c.489.66.19 1.336-.354 1.94z" transform="translate(169 22)"/>
            </g>
        </g>
    </g>
</svg>
