<svg xmlns="http://www.w3.org/2000/svg" width="14" height="14" viewBox="0 0 14 14">
    <path fill="#ffffff" fill-opacity=".85" fill-rule="evenodd" d="M4.109.086c-1.14.051-2.127.33-2.925 1.124C.384 2.008.109 3 .057 4.128c-.032.703-.22 6.02.324 7.415.366.941 1.088 1.664 2.037 2.032.443.172.949.289 1.69.323 6.203.28 8.503.128 9.472-2.355.172-.442.29-.947.323-1.687.284-6.218-.046-7.566-1.127-8.646C11.92.355 10.91-.227 4.11.086M4.783 11.9c-.65-.03-1.003-.138-1.239-.229-.592-.23-1.037-.672-1.265-1.26-.396-1.012-.265-5.82-.23-6.599.035-.762.19-1.458.729-1.996.666-.664 1.528-.99 7.395-.725.765.034 1.465.188 2.005.725.667.664.997 1.53.728 7.363-.03.647-.138.998-.23 1.233-.603 1.544-1.991 1.758-7.893 1.488M10 4c0 .552.447 1 1 1 .552 0 1-.448 1-1s-.448-1-1-1c-.553 0-1 .448-1 1M3 6.5C3 8.433 4.567 10 6.5 10S10 8.433 10 6.5C10 4.566 8.433 3 6.5 3S3 4.566 3 6.5m1 0C4 5.12 5.12 4 6.5 4S9 5.12 9 6.5 7.88 9 6.5 9 4 7.88 4 6.5"/>
</svg>
