<svg xmlns="http://www.w3.org/2000/svg" width="230" viewBox="0 0 30 28">
    <defs>
        <filter id="z0r8tgkhla">
            <feColorMatrix in="SourceGraphic" values="0 0 0 0 0.000000 0 0 0 0 0.000000 0 0 0 0 0.000000 0 0 0 0.040000 0"/>
        </filter>
    </defs>
    <g fill="none" fill-rule="evenodd">
        <g filter="url(#z0r8tgkhla)" transform="translate(-79 -23)">
            <g>
                <path fill="#1D1D1B" fill-rule="nonzero" d="M27.6 6.895C23.917.98 16.442-1.161 10.07 1.55c-.028-.04-.074-.068-.143-.06C3.542 2.174-.127 8.01.003 14.008c.138 6.345 3.558 11.978 10.058 13.43 5.456 1.218 12.73.244 16.714-3.962 4.002-4.223 3.761-11.866.825-16.582zm-6.984 19.669c-6.327 1.91-14.8 1.182-18.279-5.126C-1.534 14.417.483 3.16 9.704 1.883c.03.044.075.075.134.051 6.864-2.8 14.867-.338 18.11 6.46 1.557 3.263 1.792 7.5.728 10.951-1.163 3.775-4.357 6.1-8.06 7.219z" transform="translate(79 23)"/>
                <path fill="#1D1D1B" fill-rule="nonzero" d="M10.079 8.169c-.215-.163-.522.064-.435.313.014.043.074.025.068-.018-.024-.157.165-.294.317-.211.058.03.099-.047.05-.084zM10.433 8.39c-.072-.016-.098.083-.03.107l-.086.053c-.004-.065-.097-.064-.102 0-.012.162.175.32.328.203.147-.112.046-.328-.11-.363zM11.18 8.645c-.184.008-.258-.084-.224-.274.02-.034-.028-.074-.057-.043-.188.208.066.561.322.413.054-.03.017-.108-.042-.096zM9.114 9.23c-.038.048.027.117.07.07.147-.168.335-.026.403.13.015.035.074.024.08-.01.063-.295-.392-.392-.553-.19zM9.903 9.688c-.138.128-.39.094-.42-.12-.009-.054-.096-.04-.096.012.006.307.46.476.634.197.045-.072-.057-.146-.118-.089zM19.464 9.995c-.007.023 0 .05.018.066.076.07.125.085.233.075.047-.004.046-.066 0-.071-.1-.077-.09-.115.029-.114.073 0 .123.034.151.1.039.07.134.02.122-.05-.048-.283-.48-.261-.553-.006zM20.368 9.99c-.043-.066-.136-.023-.123.05.033.187-.05.366-.268.354-.058-.003-.073.091-.014.102.272.051.576-.246.405-.507zM20.32 9.805c-.029.006-.028.049 0 .056.25.061.304.213.376.426.02.059.096.055.118 0 .112-.281-.23-.54-.494-.482zM19.605 11.241c-.096.114-.053.324.114.323.04 0 .052-.063.01-.07l-.053-.052c-.005-.104.04-.124.14-.06.132.031.131.05.22.137.042.041.134 0 .108-.062-.075-.18-.358-.429-.539-.216zM20.518 11.637c-.046.156-.195.24-.346.15-.064-.037-.136.05-.08.102.203.184.575.052.564-.234-.003-.078-.116-.095-.138-.018zM16.03 4.457c-.032 0-.032.05 0 .05.033 0 .033-.05 0-.05zM16.243 5.24c-.085-.141-.305-.335-.46-.159-.088.102-.064.255.065.298.053.017.088-.065.038-.089.122-.09.217-.09.284.005.037.036.1-.01.073-.055zM16.472 5.347c-.016.145-.091.189-.226.132-.059-.046-.143.03-.085.084.182.167.48.029.472-.215-.004-.104-.173-.1-.161 0zM16.247 6.263c-.145.052-.173.229-.08.334.031.035.093-.011.067-.051.09-.169.16-.173.213-.015.018.047.04.093.068.135.023.042.09.022.09-.024 0-.162-.15-.455-.358-.38z" transform="translate(79 23)"/>
                <path fill="#1D1D1B" fill-rule="nonzero" d="M16.145 6.116c-.016-.063-.11-.048-.112.015-.006.154-.157.316-.337.222-.054-.028-.098.047-.048.08.227.152.568-.04.497-.317zM22.63 10.874c-.232-.37-.8-.012-.748.355.004.025.043.018.044-.006.012-.334.393-.388.633-.279.044.02.1-.022.07-.07zM22.805 10.936c-.043-.052-.109.007-.1.058.01.162-.07.22-.238.176-.052-.037-.115.046-.069.088.211.191.603-.083.407-.322zM22.781 10.678c-.053.02-.033.104.024.086.228-.072.348.065.46.23.044.063.133.021.122-.052-.043-.267-.38-.35-.606-.264zM22.565 12.3c.026.026.072.005.073-.03l.149-.078c.037.055.14.022.115-.047-.125-.332-.548-.066-.337.154zM23.06 12.24c-.063.22-.302.35-.514.237-.07-.038-.125.06-.062.103.28.197.689.017.715-.32.007-.081-.118-.094-.14-.02zM17.397 13.433c-.204.181-.504-.08-.365-.291.037-.058-.053-.107-.093-.054-.275.37.245.791.537.422.043-.054-.024-.125-.079-.077z" transform="translate(79 23)"/>
                <path fill="#1D1D1B" fill-rule="nonzero" d="M17.535 13.21c-.05-.038-.12.03-.07.07.138.112.156.295.04.435-.035.043.02.101.063.062.174-.163.154-.422-.033-.567zM16.948 14.09c-.178.112-.266.027-.264-.255.033-.051-.045-.112-.086-.066-.274.308.133.714.436.43.06-.054-.016-.15-.086-.11zM17.728 14.474c-.032.075.075.141.114.065.113-.074.196-.07.249.01.042.047.105-.007.097-.057-.036-.233-.377-.207-.46-.018zM19.219 18.172c-.129.117-.164.056-.104-.184.053-.01.04-.095-.013-.093-.197.01-.362.213-.234.396.116.167.367.129.454-.041.032-.062-.05-.135-.103-.078zM19.456 18.042c-.042-.01-.059.05-.018.063.283.092.327.368.207.597-.05.098.086.176.149.086.197-.282-.023-.676-.338-.746zM19.702 19.033c-.085.052-.158.123-.26.141-.09.047-.165.018-.228-.087-.025-.078.005-.14.091-.183.061-.008.066-.094 0-.096-.218-.008-.319.261-.218.433.164.28.6.133.72-.103.034-.065-.036-.148-.105-.105zM21.062 19.016c.01.063.114.047.112-.015.164-.196.274-.215.332-.055.033.073.132.017.121-.05-.064-.398-.634-.274-.565.12zM21.423 19.597l-.142-.007c-.013-.074-.131-.054-.132.018-.001.331.477.321.439-.01-.012-.106-.151-.105-.165-.001zM20.743 19.738c-.05.033-.007.101.045.077l.076.104c-.017.064.064.113.113.065.144-.145-.076-.352-.234-.246zM11.004 15.996c-.115.064-.178-.012-.19-.228.049-.04-.015-.122-.068-.087-.368.24.067.72.315.412.031-.04.004-.12-.057-.097zM11.118 15.775c-.043 0-.042.064 0 .065.305.013.268.292.204.473-.027.075.074.118.126.072.258-.224-.05-.61-.33-.61zM11.582 16.801c-.043.137-.153.122-.33-.048.001-.052-.084-.066-.094-.012-.074.392.506.519.57.121.014-.08-.105-.15-.146-.061zM10.24 16.452c-.036-.003-.045.058-.008.064.147.07.182.16.103.27-.036.065.057.145.11.083.141-.17.006-.402-.204-.417zM3.677 12.359c.047-.026.015-.106-.037-.087-.146.054-.373.183-.389.36-.013.146.125.23.253.197.071-.018.059-.107 0-.13-.2-.08.12-.312.173-.34zM4.147 12.614c-.002-.03-.023-.054-.055-.055l-.254-.006c-.063-.002-.06.09 0 .095l.2.017c.001.1.002.2.017.3.009.06.098.04.101-.014.009-.114 0-.224-.009-.337zM4.364 13.252c-.055.007-.06.09 0 .087.176.056.237.148.183.276-.025.07.087.117.121.05.11-.21-.066-.444-.304-.413z" transform="translate(79 23)"/>
                <path fill="#1D1D1B" fill-rule="nonzero" d="M26.897 12.806c.397-.91.225-2.123-.258-3.01-.293-.54-.695-.982-1.157-1.331.09.016.195-.08.139-.185-2.771-5.123-9.143-7.027-14.54-4.903-.03.012-.034.043-.021.064-.803-.076-1.614.048-2.364.399-.61.285-1.306.757-1.575 1.387-.12-.498-1.206.353-1.332.533-.527.756-.347 1.798.366 2.37.02.401.123.818.286 1.21-1.834-.888-1.549-4.673.83-4.473.088.008.108-.133.022-.152-1.554-.328-2.362 1.194-2.3 2.64-.015-.057-.068-.105-.144-.085-2.241.568-3.489 2.892-2.59 4.972-.796.634-.882 1.743-.642 2.676.194.753.597 1.803 1.503 1.828.005.045.004.089.01.134.045.314.16.726.348 1.09-.164.062-.236.346-.263.512-.076.464.046.952.318 1.337.458.648 1.555 1.034 2.278.577.247.015.507-.02.764-.118.34-.13.622-.352.81-.628-.563 1.557-2.527 1.813-3.784.728-1.076-.928-1.18-2.342-.525-3.535.033-.061-.055-.137-.102-.078-1.075 1.357-.56 3.279.912 4.134.223.13.48.216.746.278.378 1.36 1.927 2.358 3.113 3.023 1.485.834 3.16 1.296 4.865 1.352.166.005.162-.238 0-.252-.743-.062-1.563-.201-2.39-.42.338.048.649.074.895.071.049 0 .083-.02.106-.05.573.286 1.208.408 1.835.368.015.027.03.052.047.078.116.293.35.49.643.613.82.484 2.029.512 2.823.18.427-.18.769-.472 1.02-.822.794.205 1.696.009 2.345-.48.009.017.023.031.047.039 1.855.626 3.706-.936 3.468-2.828.723.469 1.832.47 2.339-.296.01-.005.02-.006.028-.017.189-.24-.038-.534-.313-.552-.043-.003-.06.046-.046.078-.276.15-.489.335-.82.4-.36.07-.721.007-1.042-.16.681.03 1.344-.265 1.957-1.013.92-1.123 1.137-2.675.548-3.993-.016-.036-.047-.048-.08-.051.012-.042.028-.082.038-.124.672-.094 1.167-.87 1.32-1.468.187-.736-.022-1.46-.48-2.047zm-.749-3.318c.962 1.382 1.087 3.414-.582 4.234.07-.248.104-.5.098-.748 1.065-.606.887-2.307.421-3.234-.688-1.37-2.23-2-3.69-1.492-.02.006-.027.02-.037.031-.08-.035-.156-.073-.239-.1-.024-.085-.056-.163-.088-.242 1.584-.368 3.178.2 4.117 1.55zM21.771 22.99c.187-.073.366-.163.537-.266-.112.499-.114.937-.518 1.332-.395.387-.942.519-1.477.432.116-.136.222-.281.3-.444.341.065.674-.057.908-.313.158-.176.314-.491.25-.74zm-2.067-.129c-1.45-.399-2.08-1.952-1.426-3.257.085.107.18.207.294.287-.109.987.48 1.937 1.465 2.238.896.275 2.079-.046 2.462-.929.224.116.447.195.67.247-.676 1.16-2.139 1.778-3.465 1.414zm-4.253 1.923c-.016-.056-.09-.075-.13-.034-.198.197-.26.436-.542.567-.07.032-.144.055-.22.07-.001-.021-.03-.03-.038-.007-.002.005 0 .007 0 .012-.055.009-.109.017-.163.016-.062 0-.612-.111-.474-.243.014-.014.016-.03.013-.044.132-.042.263-.09.39-.15.014-.005.016-.018.025-.027.361.038.736-.042 1.032-.255.343-.247.53-.642.562-1.05.092.019.185.019.277.023-.006.415-.084.801-.34 1.149-.131.177-.288.33-.478.447-.01.006-.062.03-.132.061.167-.145.275-.327.218-.535zm-9.739-7.445c-.03.022-.045.06-.009.09.03.024.063.042.094.062l.016.026c-.043.014-.087.022-.128.041-.021.01-.031.024-.038.04-.09-.015-.175-.006-.256.02 0-.006.004-.01.002-.016-.174-.728.019-1.284.49-1.81.102.383.399.74.722 1.028-.182.14-.43.174-.6-.035-.008-.01-.02-.012-.03-.015.061-.087.14-.157.209-.252.05-.069-.033-.138-.1-.128-.24.036-.388.336-.42.55-.023.143-.003.276.048.4zm-.467.324c.003.009.011.01.017.015-.124.074-.231.192-.324.33-.07-.15-.116-.428-.165-.585-.075-.234-.134-.478-.139-.725-.01-.55.198-1.075.657-1.408.016-.012.019-.028.027-.043.172.067.349.122.53.16-.005.034.002.07.001.104-.696.424-.937 1.442-.604 2.152zm-.643 1.663c-.313-.064-.58-.285-.505-.637.153.089.324.139.516.129l.007.002c-.031.159-.048.309-.036.423.003.03.013.054.018.083zm.17-4.368c.112.07.226.135.343.191-.402.285-.657.69-.726 1.183-.041.292-.013.591.057.877.04.162.094.323.164.475.118.256.132.128.268.37.007.011.017.006.027.007-.112.183-.197.396-.253.602-.986-1.173-.899-2.6.12-3.705zm-.886-1.38c-.161.085-.135.304.006.402.042.03.086.038.13.043-.063.011-.126.022-.19.024-.662.02-1.184-.297-1.173-.99 0-.044.007-.088.013-.132.035-.051.063-.106.103-.155.053-.065.024-.14-.028-.179.145-.41.462-.77.898-.844.009.05.046.096.106.096.602.003 1.177.313 1.268.945.081.564-.284 1.004-.774 1.177.08-.05.15-.117.193-.19.038-.065-.037-.132-.1-.1-.043.022-.084.044-.124.07-.078.076-.16.055-.247-.064.06-.05-.017-.137-.081-.103zm-.04.758c-.175.21-.317.437-.431.676-.002 0-.001-.003-.003-.004-.279-.205-.214-.48-.078-.724.162.037.333.057.512.052zm.272-3.825c.014.16.047.316.089.47-.166-.052-.34.03-.455.152-.133.139-.14.266-.115.434-.175.011-.336.064-.482.144-.081-.602.31-1.093.88-1.28.094-.031.087-.192-.024-.181-.735.074-1.225.879-1.056 1.564.002.011.012.014.018.023-.082.065-.154.143-.22.225-.106-1.11.458-2.088 1.48-2.586.11-.054.032-.245-.085-.198-.802.32-1.357 1.045-1.523 1.856.096-1.195.701-2.214 1.99-2.653-.329.661-.516 1.796-.497 2.03zm.12.582c.076.238.181.467.317.678-.222-.111-.471-.17-.725-.148-.008-.033-.03-.062-.075-.065.05-.242.26-.357.468-.45.008-.004.01-.01.015-.015zm.983 1.393c.152.11.32.197.495.267-.064.198-.19.351-.417.388.014-.098.018-.2.01-.305-.01-.122-.044-.238-.088-.35zm.049.771c.266-.004.546-.19.604-.443.09.028.183.048.277.064-.06.162-.14.301-.301.42-.195.144-.421.207-.658.188.032-.074.06-.15.078-.229zm1.097-.356c.056.004.11.013.166.012.049.126.107.249.173.368-.42.63-1.08.738-1.778.586.073-.078.14-.16.194-.252.489.126 1.15-.206 1.245-.714zm.725-2.563c.065.068.125.143.196.205-.825 1.295-.187 3.594 1.587 3.679.001.112.017.223.029.334-1.339-.219-2.115-1.168-2.249-2.266.02-.014.04-.023.06-.04.068-.06.005-.16-.075-.156-.029-.582.115-1.195.452-1.756zm-.501-.298c-.042-.129-.041-.257-.009-.38l.01.003c.105.2.236.38.379.547-.047.055-.082.113-.123.17-.104-.096-.205-.176-.257-.34zm1.837-.29c-1.084-.825-1.437-3.026.409-3.186.009 0 .012-.007.02-.01-.04.125-.07.251-.083.379-1.321-.012-1.672 1.882-.422 2.346.022.008.038-.002.05-.016.034.162.095.318.181.462-.008.005-.017.008-.022.017-.113.218-.171.438-.205.656-.002-.002-.002-.005-.005-.006-.916-.445-1.486-1.384-1.283-2.405.088-.442.3-.796.584-1.086-.67.847-.401 2.392.694 2.953.064.033.145-.055.082-.103zm2.053-4.932c-.132.061-.26.13-.384.21-.345-.444-1.072-.32-1.25.206-.123 0-.244.017-.364.036.401-.717 1.297-.949 1.998-.452zm-2.199.491c-.226.054-.443.143-.648.253-.165-.649 1.408-1.186 1.814-1.245.64-.093 1.148.07 1.711.288-.137.026-.274.06-.41.109-.84-.713-2.092-.41-2.467.595zm3.509-.515c-.048.18-.079.364-.085.55-.663-.086-1.358.148-1.812.639-.377.407-.73 1.173-.452 1.71-.124.028-.243.074-.354.132-.004-.01-.005-.02-.009-.031.088.003.15-.123.056-.162-.037-.016-.074-.025-.11-.035-.155-.713.216-1.51.732-2.003.592-.565 1.244-.727 2.034-.8zm4.866-.205c2.035-.91 4.139.192 4.472 2.282-.16-.1-.328-.19-.51-.254 0-.004.003-.006.003-.01-.284-1.666-2.008-2.019-3.466-1.703-.186-.165-.415-.281-.675-.311-.005-.015-.012-.028-.021-.04.03-.04.042-.096-.003-.144-.774-.844-2.124-1.062-3.068-.348-.59.447-1.41 1.946-.584 2.523.002.001.006-.002.009 0-.046.078-.08.162-.118.245-1.888-2.448 2.7-4.877 4.32-2.583-.148.059-.295.125-.44.208-.09.051-.01.176.08.135zm7.176 3.01c-.598-.957-1.58-1.589-2.712-1.696-.077-.17-.172-.33-.276-.48 1.77-.174 3.033.867 3.598 2.464-.202-.074-.408-.138-.62-.179.021-.034.03-.077.01-.11zm-.322.057c-.16-.017-.321-.03-.484-.026.011-.016.018-.034.008-.058-.26-.632-1.086-1.037-1.719-1.185-.006-.002-.01.002-.015.002-.034-.125-.075-.247-.123-.365.444.087.87.234 1.26.47.224.135.433.296.622.477.114.11.217.226.315.35.05.058.096.119.137.182.004.017.015.02.022.03-.029.017-.05.047-.039.087.003.016.01.023.016.036zm-3.633 12.939c.228.059.469-.054.591-.238.224.195.536.285.838.274-.253.333-.551.597-1.027.586-.607-.014-1.055-.512-1.11-1.084.106.016.216.023.334.015.024.203.145.388.374.447zm-.232-.47c.216-.037.402-.11.56-.213.003.047.01.093.028.132.023.052.053.1.084.145-.09.137-.227.236-.412.19-.128-.032-.216-.134-.26-.253zm-.043-.322c-.019-.009-.04-.005-.054.013l-.009.002c-.564.074-1.143-.293-1.292-.841-.162-.593.19-1.15.703-1.432.006-.004.007-.01.012-.014.246.002.492-.02.736-.065.505.205.91.64.887 1.211-.022.542-.449 1.024-.983 1.126zm-4.15 2.153c.004-.01.004-.022.003-.033.284.034.57.048.848.049-.027.04-.05.084-.078.129-.067.103-.16.192-.265.257-.147.09-.31.13-.475.122-.112-.102-.24-.195-.39-.264.154-.036.29-.116.356-.26zm-.704.142c-.224-.052-.458-.065-.676-.024.065-.098.124-.201.175-.313.017-.039.015-.075.005-.108.332.12.694.201 1.062.253-.187.122-.346.216-.566.192zm1.31.426c.182-.1.44-.327.416-.553.216-.005.421-.022.62-.046-.08.287-.172.533-.424.758-.235.21-.526.34-.833.367-.045-.142-.106-.28-.194-.402.143-.01.285-.053.415-.124zm-3.224-2.772c.154.007.31.007.466-.006.293 1.68 3.554 2.053 4.461.732.008-.012.004-.023.007-.035h.029c-.07.353-.033.718.08 1.063-1.564.276-4.785.462-5.043-1.754zm1.235-.04c.478.598 1.68 1.014 2.336.436.3.178.648.285 1.043.301-.604.53-1.305.636-2.12.465-.701-.147-1.638-.417-1.86-1.18.198-.025.397-.062.593-.12-.014.03-.018.065.008.097zM9.76 18.02c-.164.048-.332.02-.466-.08.011-.07.023-.14.018-.21.186-.025.37-.065.552-.13.033.097.075.185.115.275-.059.062-.122.116-.219.145zm.335.09c.06.112.128.218.2.32-.018-.007-.037-.011-.057-.005-.2.057-.365.138-.58.132-.2-.005-.379-.068-.543-.168.058-.094.109-.194.142-.298.23.148.616.173.838.02zm1.439-2.803c.012.025.035.047.07.061.822.32.901 1.323.178 1.804-.46.307-1.147.317-1.627.045-1.099-.622.224-2.433 1.379-1.91zm-2.096 1.47c-.37.205-1.265-.1-1.549-.213-.433-.172-1.257-.56-1.335-1.096.09-.002.18-.003.269-.014.473.745 1.78 1.435 2.614.836.011-.008.018-.021.025-.033-.046.174-.056.35-.024.52zm-.049-.66c-.434.027-.795.142-1.24.039-.459-.106-.85-.364-1.143-.722.163-.03.324-.071.481-.13.003.005 0 .01.005.014.352.44 1.248.735 1.727.307.083.161.18.314.299.454-.017.044-.03.09-.043.135.005-.05-.02-.102-.086-.098zm-.391-1.073c.035.131.08.258.132.383-.237.08-.434.184-.705.171-.305-.014-.583-.146-.797-.357.136-.059.272-.121.4-.203.037.035.076.068.11.09.234.164.789.312.86-.084zm-.786-.132c.077-.058.153-.12.225-.189.007-.006.006-.014.01-.02.159.05.323.093.496.12.01.05.025.1.038.15-.027-.025-.068-.037-.098-.016-.262.183-.457.096-.671-.045zm.105-6.83c.118-.23.353-.314.592-.303.018.04.03.082.052.122-.287.189-.497.48-.567.841-.13-.192-.183-.456-.077-.66zm.07 1.095c-.973-.585-.701-1.852.38-2.041.002.144.017.289.058.431-.642.008-1.036.886-.452 1.314-.009.1 0 .199.014.296zm.712-1.097c.029-.001.055-.018.062-.046.235-.16.519-.257.809-.252.01.01.02.021.032.03.036.022.092.023.128 0 .02-.013.033-.025.048-.038.437.088.916.228 1.162.568-.006.019-.007.039.01.059l.063.062c.06.12.097.26.094.429-.005.365-.184.701-.449.953-.04-.003-.075.025-.075.062-.09.077-.191.14-.295.197-.004-.004-.01-.007-.013-.012-.048-.047-.136.015-.098.072-.148.066-.303.11-.46.126-.74.07-1.475-.506-1.497-1.263-.012-.388.187-.722.48-.947zm3.362-.046c0 .042 0 .083.002.126-.419-.052-.786-.185-1.11-.434.09-.228.292-.379.52-.41-.213.333.246.723.588.718zm-.527-.724c.184-.009.38.058.543.228.004.004.01.003.015.006-.015.097-.025.195-.031.294-.16-.025-.297-.075-.395-.219-.063-.094-.077-.205-.124-.305-.002-.003-.006-.002-.008-.004zm.56 1.083c.014.085.034.166.055.247-.16.004-.317.026-.485-.01-.142-.03-.273-.09-.397-.161-.074-.194-.2-.358-.362-.489 0-.021.01-.038.01-.059.32.291.74.478 1.18.472zm9.254-.392l.022-.005c.024.038.054.07.077.11-.2-.042-.404-.062-.608-.054-.63-1.306-2.209-1.346-3.405-.849-.027-.052-.045-.111-.07-.165 1.5-.782 3.043-.455 3.93.85-.05.043-.021.136.054.113zm-2.876.55c.16-.048.311-.052.471-.003.13.04.223.128.34.186-.09.095-.174.2-.251.315-.37-.255-.686-.544-.958-.865.563-.15 1.105-.077 1.613.222-.106.07-.21.148-.306.24-.157-.326-.666-.333-.953-.197-.06.027-.018.121.044.102zm2.17 6.486c.004-.012-.004-.021-.003-.032.154.159.33.285.517.386-.02.006-.04.014-.054.033-1.423 1.833-3.891 1.814-5.126-.161.112-.022.224-.04.338-.08.1.05.205.09.313.124-.03.012-.05.04-.036.074.793 1.941 3.4 1.385 4.05-.344zm-6.043 1.946c-1.035-.495-1.373-1.523-.836-2.459.108.105.216.208.337.295-.472.619-.202 1.626.507 1.954h.006c-.007.069-.01.14-.014.21zm.004.524c-.008-.005-.014-.011-.024-.012-1.558-.172-2.172-2.661-1.463-3.85.132.256.294.496.483.71-.692.963-.267 2.404.956 2.735.014.004.027 0 .038-.005-.005.14 0 .281.01.422zm-.701-3.204c.01-.013.015-.027.025-.04.068-.088-.079-.195-.154-.117l-.008.009c-.203-.229-.37-.488-.498-.764.002-.039-.013-.072-.043-.095-.376-.888-.325-1.932.426-2.7.107.064.216.124.329.178-.54.634-.614 1.505-.266 2.259.294.637 1.213 1.634 2.006 1.701.035.044.07.088.112.128.076.072.165.13.254.189-.844.14-1.62-.191-2.183-.748zm-3.83-3.233c.266.07.652.02.794-.244.216.155.456.286.705.383-.498.227-.984.411-1.563.244-.521-.15-.89-.538-1.042-1.032.135.058.276.104.423.121.041.005.081.002.121.003.085.265.277.45.561.525zm-.43-.522c.241-.015.475-.087.69-.198.112.126.247.247.392.363-.197.103-.358.185-.594.144-.19-.033-.382-.145-.487-.31zm2.226.758c.361.092.728.094 1.056-.042l-.013.041c-.049-.021-.112-.014-.146.043-1.015 1.692-3.966.604-4.178-1.154.046.036.092.072.14.103.201 1.45 2.074 1.892 3.141 1.009zm-.25-.37c-.435-.14-.808-.368-1.144-.662.093-.058.183-.122.265-.196.67.605 1.825.913 2.646.463-.17.181-.294.382-.394.591-.012-.02-.026-.036-.05-.04-.443-.08-.877-.013-1.322-.156zm.363-.844c.268.04.634.018.876-.148.12.133.256.254.397.368-.89.174-1.625.182-2.398-.347.099-.105.188-.218.26-.342.222.252.522.418.865.469zm-.792-.597c.045-.097.08-.197.105-.3.142.138.319.238.52.281.188.04.472.044.648-.073.067.119.144.23.226.338-.207.063-.395.145-.644.129-.328-.02-.616-.161-.855-.375zm2.047-3.89c.03-.305.268-.592.597-.592.236 0 .362.138.526.263-.55.062-1.032.29-1.41.626-.212-1.166 1.161-2.029 2.09-1.18-.204.117-.382.279-.509.478-.08-.317-.538-.458-.83-.396-.378.08-.62.428-.593.8.006.083.12.082.129 0zm1.385 1.177l-.005.004c-.218.347-.122 1.106.397 1.138.005.248.048.494.125.726-1.003-.235-1.375-1.37-.702-2.185.05.112.11.22.185.317zm.089.1c.129.14.28.26.452.345-.04.003-.079.02-.091.073-.035.148-.048.298-.055.447-.113-.096-.227-.168-.297-.316-.085-.182-.092-.37-.009-.55zm-.348-.54c-.99.904-.381 2.445.896 2.587.067.136.144.267.24.387-.047.083-.083.167-.117.252-.764-.173-1.45-.504-1.717-1.306-.267-.802.061-1.6.65-2.158.01-.01.012-.021.013-.033.014.089.03.177.058.262-.008.004-.016.003-.023.01zm.915.941c.086.033.176.059.269.074h.002c-.07 1.512 1.278 2.747 2.807 2.311-.038.04-.068.086-.102.129-.75.125-1.446.215-2.121-.232-.285-.188-.5-.444-.648-.734 0-.034-.015-.066-.04-.092-.194-.427-.25-.917-.153-1.379.007-.03-.002-.055-.014-.077zm3.314 2.182l-.04.032c-.014-.009-.032-.013-.053-.008-1.444.325-2.805-.67-2.752-2.124.133 0 .266-.012.394-.049-.147 1.289 1.233 2.26 2.451 2.149zm-.255-3.069c-.299-.292-.698-.406-1.1-.351.005-.068 0-.135-.005-.203.336-.119.69-.108 1.017.039.156.07.3.164.42.286.091.094.146.195.258.264-.194.011-.388.032-.58.073.02-.033.026-.073-.01-.108zm-.137.135c.005.005.011.003.016.007-.15.038-.3.08-.443.138-.139-.178-.378-.266-.605-.312.023-.058.04-.118.052-.18.364-.03.714.091.98.347zm-.575.207c-.11.05-.216.103-.319.164-.062-.142-.131-.279-.182-.43l.001-.003c.182.073.33.18.5.269zm-.393.592c0 .023.01.045.028.059.383.732.983 1.351 1.707 1.765-.03.05-.064.093-.092.146-.048.005-.097 0-.146.003-.942-.522-1.626-1.337-1.944-2.368.072-.067.135-.142.194-.221.066.213.153.418.253.616zm1.215 1.977c-.52-.022-1.024-.181-1.424-.537-.475-.422-.597-.94-.718-1.514.114-.048.222-.109.322-.18.278.96.936 1.768 1.82 2.231zm1.585 3.065c.001-.01-.005-.02-.007-.03.19-.06.363-.162.52-.286-.2.32-.32.616-.676.814-.402.225-.856.207-1.268.035.117-.047.234-.105.347-.178.356.264 1.015.132 1.084-.355zm-.946.247c.078-.06.157-.112.232-.185.014-.013.011-.027.017-.041.13.02.263.03.398.015.019-.002.035-.008.054-.01-.154.227-.443.36-.701.22zm-.868.383c.067-.012.135-.02.201-.04.004.003.004.008.008.01.447.289 1 .36 1.492.132.327-.151.662-.464.77-.822.054.145.14.276.245.391-.676.868-1.852.958-2.716.33zm2.896-.162c.07.055.145.103.224.146-.315.424-.734.746-1.272.88-.359.091-.723.086-1.082.002-.163-.039-1.088-.314-1.007-.649.021-.089-.103-.118-.136-.037-.003.007-.003.013-.005.02-.014-.053-.028-.106-.036-.163.093.002.186.002.28-.009.88.906 2.248.771 3.034-.19zm-5.592-3.08c.033-.032.042-.082.024-.12.013-.07.023-.141.042-.21.082.089.17.174.268.251.017.013.038.02.054.032-.401 1.752 1.461 3.223 3.12 2.603.009.004.019.005.028.008-1.797 1.526-3.798-.664-3.536-2.564zm.334 2.392c-.12.17-.153.468-.026.651-.122.094-.213.218-.285.352-.327-.513-.294-1.113.005-1.638.224.421.552.792.942 1.062-.192.005-.356.051-.497.122-.069-.155-.12-.283-.026-.484.035-.076-.065-.135-.113-.065zm.188-2.36c.084.052.163.11.256.152-.007.52.217.993.618 1.34.326.282.866.556 1.324.471.128.16.285.297.46.405-1.501.245-2.702-.812-2.658-2.368zm1.88 1.343c.033.134.09.26.156.38-.35-.05-.658-.11-.972-.363-.356-.288-.583-.699-.646-1.145.14.052.286.095.435.121-.027.008-.05.027-.048.06.043.495.54 1.014 1.075.947zm-.966-.996c.125.018.25.03.374.027.102.207.319.425.56.456-.014.102-.017.205-.008.31-.44-.077-.79-.284-.902-.761-.004-.015-.013-.024-.024-.032zm.974.272c-.166-.055-.306-.116-.423-.256.215-.023.423-.08.61-.18-.083.136-.145.283-.187.436zM14.726 5.68c-.021.118-.022.235-.009.35-.016-.025-.049-.041-.08-.02-1.55 1.082-.91 3.788 1.07 3.78-.05.179-.073.36-.075.54-2.687-.238-3.063-3.355-.904-4.657l-.002.007zm1.067 5.5c.013.037.035.071.05.108-.518.566-.464 1.472.028 2.034-.053.146-.072.303-.074.463-.643-.803-1.107-1.75-.354-2.659.115.022.232.04.35.053zm.022 2.843c.024.17.077.335.156.488-1.234-.768-2.574-2.244-1.362-3.627.179.071.363.134.551.182-.852.879-.173 2.273.655 2.957zm.527.455c-.468-.606-.18-1.555.585-1.768.035-.01.049-.04.046-.07.336.216.711.359 1.098.392-.027.523.231.94.615 1.237-.019.016-.033.036-.034.064-.07 1.196-1.83.763-2.31.145zm2.5-.104c.192.125.408.22.63.29-.127.362-.537.548-.89.424.19-.175.301-.417.26-.714zm-.388.813c.443.25 1.07.03 1.22-.465.1.024.2.041.3.052.035.004.068.002.102.005-.404.798-1.344 1.085-2.166.616-.007-.004-.013 0-.02-.002.206-.03.403-.099.564-.206zm.066-1.416c.393.254 1.05.388 1.294.4.884.043 1.66-.39 2.156-1.077.147.054.301.09.458.1.015.002.028 0 .043 0-.427.72-1.076 1.224-1.954 1.308-.06.006-.123.006-.186.007-.033-.013-.068-.014-.101.003-.641-.012-1.316-.26-1.71-.741zm4.679-.724c.223-.103.42-.257.578-.444.223.393.134.884-.235 1.188-.393.324-.934.34-1.418.248.079-.074.154-.153.224-.237.266.094.54.074.736-.156.143-.17.174-.396.115-.6zm-.8.692c.132-.166.253-.343.35-.538.004-.007 0-.013.002-.02.094-.014.186-.038.276-.067.073.357-.226.714-.629.625zm-.419.422c.629.19 1.423.17 1.875-.368.316-.377.406-1.014.06-1.395.074-.12.134-.25.178-.386.57.648.523 1.563-.127 2.197-.69.672-1.708.67-2.546.31.2-.096.388-.215.56-.358zm1.751-4.244c.415.124.712.525.686.96l.001.004c-.17-.099-.356-.183-.557-.246-.012-.004-.02.003-.03.003-.016-.021-.027-.045-.044-.065.006-.013.017-.022.017-.039.003-.22-.028-.423-.073-.617zm.089 2.086c-.248.703-1.038 1.003-1.702.869l.01-.015c.08-.136-.133-.258-.212-.123-.014.025-.033.045-.049.069-.098-.04-.191-.09-.276-.153-.014-.023-.033-.04-.06-.052-.197-.167-.345-.4-.398-.707.284-.302.462-.698.47-1.108.044.017.1.005.12-.054.248-.755 1.25-.567 1.702-.166.413.365.578.92.395 1.44zm-2.047-1.783c.009.016.021.023.034.029-.09.088-.168.191-.217.323-.041-.34-.189-.624-.403-.845.251.054.452.246.586.493zm-.737-.625c-.107-.085-.227-.151-.353-.208.699-.294 1.426-.073 1.8.588-.206.014-.405.07-.567.184-.072-.397-.498-.594-.88-.564zm1.687.39c-.376-.86-1.425-1.198-2.214-.669-.19-.063-.394-.089-.602-.086.446-.347 1.144-.298 1.676-.217.713.11 1.128.417 1.401 1.02-.086-.023-.173-.039-.261-.048zm-2.35-.557c-.002.043.05.086.095.06.005-.004.01-.005.015-.008.1.05.195.108.283.176l-.009.003c-.053.024-.015.112.04.093.021-.007.04-.009.06-.014.224.2.394.454.459.738.172.75-.43 1.575-1.203 1.659-.176.019-.35 0-.517-.045-.015-.014-.034-.018-.057-.019-.497-.16-.904-.582-.981-1.109-.093-.635.281-1.13.796-1.43.03.01.052-.01.059-.035.085-.046.174-.088.265-.123.025.016.058.02.08-.006.023-.026.049-.045.073-.067.183.008.367.053.541.127zm-2-1.367c-.042-.054-.08-.112-.12-.168.707-.385 1.573-.23 2.12.355.004.004.009.002.013.005-.04.018-.08.032-.12.053-.005-.02-.014-.041-.035-.056-.543-.382-1.25-.441-1.857-.189zm-.193-.268c-.1-.144-.183-.3-.268-.454 1.125-.326 2.387-.346 3.062.74-.14.022-.279.052-.413.1.003-.03-.003-.06-.027-.088-.588-.68-1.614-.787-2.354-.298zm1.86-1.32c.006-.017.01-.036.002-.056-.195-.457-.633-.812-1.086-1.011-.38-.167-.973-.333-1.358-.115-.034.02-.027.074.01.084.436.113.858.055 1.285.264.394.192.644.477.904.802-.132-.01-.266-.013-.4-.009.015-.01.028-.026.027-.047-.002-.33-.433-.584-.71-.69-.362-.139-.745-.13-1.102.013-.048-.262-.173-.506-.35-.7.61.049 1.24-.076 1.83.119.672.22 1.105.762 1.275 1.414-.107-.028-.216-.051-.327-.068zm-2.683-.545c.009.644-.612 1.182-1.253 1.16-.02-.01-.04-.013-.062-.01-.597-.06-1.07-.646-1.05-1.225.024-.705.734-1.15 1.394-1.116.023 0 .04-.01.056-.022.486.23.907.648.915 1.213zm-1.674-1.318c-.49-.53-1.334-.683-1.952-.268-.559.375-.734 1.088-.502 1.69-.115.117-.216.246-.308.382-.175-.084-.214-.764-.185-.905.045-.215.126-.435.232-.628.226-.406.599-.758 1.048-.914.8-.279 1.649-.02 2.229.56-.193-.005-.384.018-.562.083zm-.865.801c-.012.03-.03.059-.04.09-.02-.01-.043-.013-.069 0-1.126.544-1.927 1.718-1.698 2.99.213 1.186 1.39 2.197 2.631 2.07.01.116.038.23.066.345-1.36-.204-2.611-.996-2.915-2.4-.32-1.474.622-2.682 2.025-3.095zM12.76 9.2c-.163.024-.32.091-.502.066-.204-.03-.384-.117-.532-.251.01-.11.009-.216-.006-.315.276.166.611.262.898.175.039.114.091.219.142.325zm-4.089.66c.056.074.113.148.18.214-.122 1.251.93 2.078 2.106 2.284.715.126 1.759.073 2.225-.541-.04.267-.034.54.004.812-1.812 1.316-5.34-.39-4.515-2.77zm3.335 7.527c.1-.073.195-.153.276-.25.006.01.01.022.024.03.265.142.607.187.873.024.06.07.123.138.188.202-.422.267-.955.292-1.36-.006zm1.547.174c.118.098.244.184.375.263-.81.468-1.781.464-2.532-.163.172-.043.338-.104.489-.194.443.412 1.196.498 1.668.094zm-1.167-.53c-.007-.002-.012.001-.02 0 .162-.238.236-.519.226-.792.12.286.277.553.461.796-.23.066-.423.1-.667-.003zm-.534-1.834c-.087-.308.143-.584.436-.688-.016.365.014.736.1 1.096-.123-.183-.303-.328-.536-.408zm-.13-.038l-.03-.008c-.148-.134-.31-.212-.476-.247.172-.503.604-.79 1.13-.86-.02.11-.044.219-.054.331-.4-.026-.655.42-.57.784zm.649-1.266c-.01-.003-.014-.01-.025-.01-.6-.025-1.127.46-1.265 1.01-.128-.007-.257.012-.385.048.038-.107.065-.22.115-.321.093-.19.215-.364.362-.516.315-.327.68-.456 1.108-.574.105-.03.086-.189-.024-.19.106-.017.211-.037.311-.067-.09.198-.15.407-.197.62zm-1.855 1.114c-.115.05-.227.117-.333.195-.13-.72.06-1.352.646-1.851.029-.025.033-.056.028-.087.423.1.867.143 1.282.094-.424.047-.838.294-1.121.594-.225.24-.543.691-.502 1.055zm-1.262-2.49c-.046.09-.083.187-.121.283-.118-.224-.223-.415-.235-.64.107.127.225.248.356.357zm.187.142c.056.039.112.079.17.114.043.026.095.046.14.07-.004.004-.009.006-.013.011-.502.655-.497 1.464-.316 2.236.023.1.114.486.251.671-.03.05-.056.102-.082.153-.485-1.095-.645-2.094-.15-3.255zm.112 1.697c-.012-.505.098-.964.408-1.374.007-.01.009-.018.013-.027.212.098.437.187.68.256-.637.464-.93 1.38-.609 2.104-.09.08-.17.17-.245.264-.152-.312-.246-1.166-.247-1.223zm1.692 3.329c0 .016.004.034.019.05.734.803 2.083.941 2.931.229.152.069.314.12.482.161-1.26 1.043-2.824.8-3.83-.416.132.003.266-.002.398-.024zm3.06.066c-.023-.043-.062-.068-.11-.066-1.469-.895-2.163-2.903-1.362-4.502.148-.068.286-.153.41-.26.04.17.101.335.17.497-.955 1.257-.262 4.213 1.567 4.184.013 0 .022-.007.03-.012.013.157.037.314.067.469-.275-.07-.533-.176-.773-.31zm.728-1.136c-.57-.394-.672-1.107-.363-1.684.055.034.108.07.164.1-.213.3-.192.748.092.996.052.047.148-.014.103-.078-.192-.277-.192-.562-.02-.836.165.071.336.13.516.164-.014.008-.03.011-.041.029-.237.378-.383.832-.451 1.31zm.582-1.052c.077.133.159.26.247.38-.795 1.264-.313 3.498 1.091 4.18-1.696-.647-2.18-2.986-1.338-4.56zm-.268 3.338c.085.187.188.36.301.524-.277.088-.546.08-.75-.17.138-.082.273-.173.403-.275.03-.024.043-.051.046-.08zm.437.707c.12.144.252.274.397.386-.304.084-.573.18-.919.135-.419-.053-.776-.243-1.065-.545-.007-.007-.015-.005-.023-.01.195-.065.389-.144.575-.243.185.33.714.514 1.035.277zm2.049.682c-.024 0-.047-.003-.07-.005.026-.044.02-.112-.042-.123-1.75-.316-2.37-2.587-1.696-4.008.008.01.014.021.023.03-.146 1.458.411 3.255 2.098 3.47-.15.2-.251.415-.313.636zm-1.553-3.866c.124.12.253.233.39.333-.397.966.172 2.152 1.262 2.345.036.006.07-.016.086-.045.044.17.114.336.218.483h-.003l-.02.026c-.007-.02-.018-.038-.042-.045-1.476-.415-1.879-1.75-1.891-3.097zm1.003 1.527c.09.331.337.623.683.699-.001.11.013.22.036.33-.005-.004-.005-.01-.011-.012-.908-.394-1.332-1.17-1.134-2.071.161.105.328.2.501.278-.136.222-.137.544-.075.776zm.783.168h.002c-.054.118-.086.242-.102.37-.22-.142-.388-.34-.454-.6-.063-.243-.006-.421.07-.62.095.037.191.072.289.1-.105.246.005.582.195.75zm.025-.69c.186.043.374.077.565.093-.221.11-.383.26-.498.433-.099-.182-.096-.34-.067-.526zm1.573-.245c-.065-.014-.107.019-.131.06-.641.098-1.292.015-1.9-.224-.018-.02-.045-.031-.072-.028-.22-.091-.43-.21-.634-.345.008-.023.01-.045.019-.068.036-.096-.113-.15-.164-.068-.005.007-.006.016-.01.023-.178-.13-.347-.278-.509-.44-.011-.031-.031-.051-.06-.059-.035-.036-.066-.077-.1-.113-.009-.028-.03-.051-.056-.066-.125-.146-.245-.303-.354-.474.004-.031-.002-.058-.021-.08.181.02.369.021.56-.004 1.039 2.139 4.228 2.424 5.446.23.015-.025.014-.048.01-.069.369.17.783.23 1.2.215-.04.455-.462.707-.886.53.085-.096.17-.19.249-.297.08-.109-.104-.25-.191-.145-.651.793-1.47 1.269-2.322 1.447-.025-.009-.047-.02-.074-.025zm1.944-.592c.107-.092.213-.187.312-.292.496.323 1.157-.043 1.132-.63.209-.02.416-.06.617-.12-.157.962-1.23 1.044-2.06 1.042zm2.253-1.107c.098-.036.193-.081.287-.126.105 1.68-1.788 1.864-3.052 1.604.13-.08.255-.166.376-.261.872.104 2.44-.006 2.389-1.217zm-2.896 1.55c.006.016.017.03.039.038.822.29 1.828.386 2.585-.127.563-.38.891-1.025.764-1.692 0-.002-.002-.002-.002-.003.154-.089.299-.19.433-.303.474 1.063.01 2.248-1.113 2.736-1.048.455-2.145.143-3.036-.485.111-.05.222-.104.33-.165zm3.69-2.357l.01.021c-.974.948-2.731 1.038-3.704.04-.046-.048-.136.016-.094.07.021.03.047.053.069.08-.05-.01-.102-.001-.126.052-.7 1.554-2.747 2.001-3.697.39 0 0-.002 0-.002-.002.238.066.486.095.728.068-.038.026-.053.086-.003.121.905.622 2.09.245 2.493-.73.345-.008.674-.083.977-.213.004.008.006.016.016.022.947.646 2.296.464 3.013-.435.598-.748.549-1.812-.19-2.428.027-.272-.026-.539-.133-.783 1.322.566 1.775 2.136.98 3.357-.056.085-.117.165-.182.24-.087-.058-.22.023-.155.13zm-.096-3.707c.043-.012.08-.04.084-.095.03-.56-.393-1.041-.947-1.104-.059-.198-.141-.38-.243-.548.48-.361 1.344.538 1.56.87.32.492.42 1.051.332 1.625-.02.134.18.197.212.057.173-.772-.082-1.587-.63-2.16-.3-.315-1.134-.91-1.54-.486-.211-.314-.495-.561-.814-.743 2.473-.62 4.676 2.32 3.07 4.31-.097-.683-.472-1.317-1.084-1.726zm-1.003-.63c-.112-.091-.232-.175-.365-.237-.011-1.398-2.604-1.792-3.452-.905-.01-.004-.018-.01-.033-.009-.081.007-.16.027-.237.048 1.234-1.665 3.955-1.071 4.087 1.104zm-2.14-3.268c-.002-.027-.008-.052-.01-.079.35.159.622.407.854.722-.097.022-.195.045-.292.074-.14-.287-.33-.525-.553-.717zm-.028-.242c-.012-.096-.033-.188-.052-.28.306.09.592.219.852.402.28.197.463.465.714.688-.154.008-.308.014-.463.04.002-.016.005-.033-.005-.052-.21-.405-.61-.673-1.046-.798zm-8.872.408c.01.007.019.007.028.01l-.002.01c-.45-.396-1.173-.164-1.356.33-.011-.01-.024-.018-.036-.03-.047-.047-.137.017-.096.074.03.042.065.081.099.12-.005.04-.016.075-.014.116-.126-.078-.268-.137-.416-.182.198-.6.845-.966 1.471-.801.095.123.2.243.322.353zm-1.938.411c-.095-.021-.195-.027-.294-.036l.022-.089c.061-.276.113-.495.306-.714.337-.38.79-.491 1.282-.467.035.085.063.172.11.254-.658-.058-1.3.406-1.426 1.052zm.068-1.23c-.178.136-.328.306-.435.5-.03.056-.117.392-.173.565-.041-.01-.083.013-.105.045-.029.042-.036.085-.031.126-.135-.012-.268 0-.398.025.157-.56.135-1.054.575-1.517.435-.458 1.02-.603 1.634-.573.012.18.037.36.09.535-.402-.088-.837.049-1.157.294zm-1.721-.054c-.02-.023-.048-.038-.089-.036-.242.01-.454.06-.639.142.27-.164.569-.293.878-.39-.054.094-.11.186-.15.284zM8.358 11c.007.046.019.09.029.136-.023-.01-.049-.014-.07 0-.328.199-.323.766-.262 1.091.081.434.352.94.778 1.126.091.04.188-.063.111-.141-.251-.26-.485-.471-.605-.823-.053-.154-.084-.315-.09-.478-.004-.105.003-.21.021-.314.007-.118.061-.214.162-.289.071.228.18.445.318.647-.081.348-.02.792.296.991.008.006.016.004.023.006-.052.15-.091.306-.123.465-.412-.226-.76-.39-1.01-.822-.185-.317-.467-1.395.059-1.62.096.033.194.06.296.079.037.007.065-.023.067-.054zm-.83 1.247c.155.601.71 1.317 1.388 1.353-.022.14-.032.283-.038.426-.567-.287-1.078-.5-1.432-1.078-.448-.733-.395-1.562-.054-2.317.142.11.29.21.453.281-.39.23-.417.954-.318 1.335zm-.255 1.758c-.768.64-1.835.692-2.638.098.072-.046.141-.098.205-.155.609.469 1.585.135 1.99-.47.125.19.275.366.443.527zm-2.764.165c.778.767 2.156.78 2.913-.029.232.195.5.354.793.476-.052.032-.106.053-.158.083-.038.002-.072.02-.099.052-1.04.554-2.145.602-3.099.041-.012-.045-.057-.074-.11-.066-.19-.123-.377-.262-.553-.439.11-.03.215-.068.313-.118zm1.382 2.768c.007-.028.02-.049.03-.072.185.241.612.29.811.062.14.115.281.218.41.302l.04.023c-.228.129-.464.206-.704.22-.111-.022-.224-.027-.337-.02-.072-.015-.143-.047-.215-.074-.06-.139-.076-.291-.035-.441zm1.375.364c.171.103.35.186.533.256-.255.095-.473.181-.742.168-.065-.046-.132-.088-.204-.123.16-.064.303-.162.413-.3zm.226-.187c-.495-.276-1.309-.874-1.472-1.507.002-.018-.003-.034-.01-.051-.009-.042-.024-.083-.026-.125.143.022.286.039.43.042.044 1.037 2.388 1.875 3.107 1.548.057.116.149.22.26.317-.782.231-1.56.183-2.289-.224zm1.03.62c.18.023.36.027.542.02-.056.278-.113.53-.342.75-.295.285-.693.343-1.08.268-.005-.094-.02-.19-.047-.287.438.035.886-.297.927-.751zm-.9 1.3c.005-.032.012-.063.014-.096.283.08.58.066.85-.034.51.583 1.72.836 2.282.187.06-.07.005-.212-.101-.172-.343.13-.61.291-.995.288-.385-.004-.74-.144-1.044-.367.069-.036.138-.072.201-.122.073-.057.138-.129.198-.205.365.276.944.393 1.31.079.026-.022.03-.05.026-.078.243.316.541.571.871.77-.02.017-.037.04-.037.07-.006.565-1.54.627-1.878.593-.37-.037-1.681-.355-1.696-.914zm.85.966c-.11.115-.216.22-.384.267-.1.027-.205.031-.305.01-.172-.035-.178-.106-.21-.257-.004-.018-.014-.03-.026-.036.047-.153.08-.315.086-.496.2.202.535.382.84.512zm1.766-2.084c.013-.036.027-.072.028-.117.003-.074-.082-.102-.138-.067-.036-.062-.074-.124-.108-.189l.044-.016c.176.09.367.144.563.17.832 1.606 3.05 1.821 4.304.564.027-.027.034-.057.035-.086.035.004.066.015.101.018.015 0 .025-.005.035-.012.047.21.117.412.196.607-.051-.044-.132-.061-.2-.01-1.7 1.308-3.798.762-4.86-.862zm2.363 1.819c-.07.43-.383.78-.821.835.128-.297.205-.617.21-.954.198.06.403.097.611.119zm.1.453c.035.157.095.299.168.431-.022-.037-.076-.053-.115-.018-.242.225-.413.46-.737.587-.222.086-.454.112-.685.085.146-.174.275-.362.376-.563.396.035.805-.182.993-.522zm.177.484c.004-.016 0-.03-.004-.043.1.176.227.335.382.474-.351.317-.593.642-1.087.797-.489.154-.979.11-1.445-.078.173-.125.338-.259.482-.412.617.144 1.509-.077 1.672-.738zm.528.55c.189.143.412.255.648.355-.018.011-.039.017-.052.042-.34.615-.886 1.02-1.583 1.171-.566.123-2.124.106-2.51-.533.233-.088.457-.2.666-.336.795.51 2.513.341 2.83-.699zm-.8 2.39c.112.103.29.188.445.16.013.12.046.238.091.35-.075.005-.15.01-.228 0-.183-.026-.36-.092-.517-.19-.294-.183-.485-.462-.572-.787h.02c.197 0 .392-.023.583-.058-.036.197.026.384.179.525zm.437-.057c-.095-.007-.184-.013-.276-.075-.144-.097-.214-.25-.193-.42.266-.064.52-.16.75-.294-.173.224-.27.505-.28.789zm-1.407-.415c.04.402.26.75.598.984.26.179.708.352 1.05.26l.002.006c.04.055.089.1.136.148-1.127.275-2.201-.31-2.407-1.463.222.036.44.057.621.065zm2.2-.6c.016-.013.022-.028.023-.044.51-.178 1.048-.23 1.463.25.076.088.13.19.174.297-.063.005-.088.092-.018.111.02.006.043.008.064.013.12.432.003.94-.35 1.228-.491.401-1.34.291-1.687-.246-.342-.532-.123-1.222.33-1.608zm2.064.92c-.003-.089-.001-.178-.02-.266.722-.03 1.512-.575 1.5-1.31.218-.038.42-.085.593-.145.03.068.072.13.109.195-.02.015-.04.032-.048.059-.18.63-.633 1.133-1.213 1.356-.042-.015-.089 0-.105.038-.254.08-.528.113-.816.073zm2.358-1.251c.17.23.38.432.624.594-.027.018-.05.044-.052.085-.025.42-.367.76-.774.814-.013-.132-.034-.264-.07-.395.352-.014.72-.33.587-.702-.035-.096-.174-.08-.18.024-.018.27-.17.507-.456.519-.014-.04-.02-.08-.035-.119-.011-.026-.031-.04-.052-.052.194-.217.34-.475.408-.768zm.799.696c.045.025.089.052.136.074.09.04.18.075.272.107-.017.006-.035.004-.047.022-.085.122-.091.271-.16.404-.085.162-.21.305-.36.413-.253.185-.547.257-.853.244.011-.106.018-.213.015-.32.508-.025.964-.422.997-.944zm-1.034 1.407c.338.084.703.01.995-.187.275-.183.701-.638.558-.997-.003-.008-.012-.007-.017-.014.167.05.338.082.51.104-.196.435-.416.808-.829 1.084-.419.28-.837.316-1.314.376.04-.12.075-.241.097-.366zm1.786-2.535c-.707-.352-1.036-1.055-1.084-1.793.092.049.19.092.297.119-.002.007-.008.01-.007.02.027.623.466 1.213 1.115 1.319.57.093 1.288-.273 1.436-.847l.04-.014c.004.006.003.012.009.017.22.185.44.342.66.475-.466.85-1.573 1.147-2.466.704zm1.482-1.449c-.124.008-.25-.005-.367-.045-.125-.045-.236-.113-.333-.203-.018-.014-.031-.03-.046-.045v-.018c-.006-.029-.027-.041-.05-.046-.043-.074-.054-.159-.026-.257.027.028.08-.01.056-.042-.008-.01-.014-.013-.022-.021.404-.483.452-1.217.134-1.768.323.225.676.41 1.044.544 0 .026.012.053.04.076.43.37.723.986.28 1.482-.178.2-.442.326-.71.343zm.927-.136c.284.302 1.193.13 1.454.004.695-.334 1.015-1.098.882-1.827-.005-.028-.021-.042-.038-.055.183-.094.362-.205.532-.343.18.907.064 2.04-.9 2.481-.735.336-1.39-.087-2.103-.1.061-.049.12-.102.173-.16zm.957-1.523c.169-.006.337-.026.502-.058-.007.013-.018.024-.018.042-.006.576-.565 1.037-1.14.916.014-.126.004-.257-.021-.386.308.074.657-.09.734-.418.011-.05-.019-.085-.057-.096zm.624-.091c.186-.044.367-.107.546-.185-.002.012-.01.021-.008.035.089.556-.117 1.157-.608 1.475-.204.133-.446.216-.689.24-.044.005-.515-.018-.73-.065.082-.117.15-.242.184-.383.65.19 1.42-.349 1.36-1.042-.004-.04-.027-.061-.055-.075zm-.726.144c-.09.25-.355.388-.609.312-.05-.163-.13-.318-.24-.447.308.068.621.094.932.083-.033-.002-.069.01-.083.052zm1.57-.786c-1.476.943-3.173.39-4.446-.578.097-.03.193-.062.287-.1.002.002 0 .004.002.005 1.043.89 2.528 1.23 3.734.427.982-.653 1.308-1.922.736-2.923.068-.07.142-.134.2-.212.138-.186.237-.381.317-.58.016.004.032.012.05.007.011-.003.02-.008.032-.011.59 1.333.423 3.11-.912 3.965zm.758-9.535c-.232-.167-.473-.317-.732-.43.005-.013.014-.023.012-.04-.073-.56-.298-1.05-.624-1.456.49.568.943 1.204 1.344 1.926zm-1.649-2.254c-.777-.725-1.92-1.07-3.018-.878-.576-.74-1.462-1.2-2.41-1.24.02-.034.03-.074.004-.12-.226-.402-.566-.698-.972-.907 2.434.31 4.652 1.298 6.396 3.145zm-8.38-3.256c.167-.002.331.005.496.008.907.064 1.766.384 2.233 1.131-.278.008-.559.044-.838.13-1.56-2.29-5.516-.439-5.26 1.654-.174-1.139.478-2.26 1.802-2.669.467-.144 1.014-.24 1.567-.254zm-5.904.939c.879-.236 1.754-.177 2.608.115.178.06.256-.218.078-.278-.33-.11-.667-.18-1.005-.219.732-.178 1.464-.315 2.191-.41-.095.043-.188.087-.275.134-.597.325-1.006.84-1.21 1.414-.119-.021-.24-.025-.363-.02-.001-.025-.01-.048-.03-.066-.727-.611-1.909-.593-2.753-.248-.427.175-1.504.803-1.21 1.385-.111.068-.215.145-.316.227-.005-1.092 1.377-1.79 2.285-2.034zM6.156 7.808c-.313-.363-.485-.8-.4-1.297.052-.3.183-.561.387-.79.052-.058.797-.726.904-.362.004.012.016.01.024.015-.017.056-.038.111-.048.17-.421.054-.835.662-.456.997l.01.004c-.18.277-.314.58-.38.908-.022.115-.034.234-.041.355zm.875-1.814c-.121.113-.23.238-.33.37-.025-.126-.045-.233.012-.374.054-.136.165-.234.296-.298-.005.09-.01.181.005.277.002.012.011.016.017.025zm-.61 1.808c.102-1.545 1.552-2.444 3.01-2.273.129.015.15-.187.03-.218-.166-.044-.332-.067-.497-.074.222-.355.672-.395.969-.092-.287.212-.544.465-.74.75-.025-.035-.062-.063-.117-.053-2.322.39-3.31 3.803-.778 4.673.016.005.029.002.041-.003-.015.158-.005.313.016.467-.004-.01-.01-.018-.021-.024-.059-.031-.112-.07-.17-.104 0-.002-.002-.002-.004-.004-1.07-.646-1.824-1.768-1.74-3.045zm-.315 1.683c.107.057.22.105.342.14-.054.145-.067.304-.03.462.038.161.146.368.304.466-.075.12-.135.243-.188.366-.158-.23-.35-.38-.436-.66-.08-.262-.056-.516.008-.774zM6 9.425c-.298.49-.164 1.438.44 1.633.015.006.03.003.045 0-.046.127-.078.256-.103.385-.713-.554-.996-1.421-.677-2.253.09.088.188.167.295.234zm-.405-.363c-.495.869-.203 2.14.725 2.611.01.005.016 0 .025.003-.015.146-.008.292.001.437-.65-.07-1.206-.94-1.344-1.464-.124-.469-.103-1.545.367-1.91.067.115.14.225.226.323zm-.282-.434c-.244.083-.387.423-.48.662-.2.518-.208 1.097-.025 1.622.162.464.927 1.529 1.575 1.479.016.093.045.184.071.276-.035-.008-.067-.018-.101-.027-.021-.02-.05-.026-.078-.02-.812-.215-1.477-.669-1.756-1.52-.155-.475-.166-1.027-.064-1.511.065-.297.169-.58.31-.852.076-.204.211-.356.4-.46.042.12.09.24.148.35zm-.398-1.13c.073-.02.094-.085.08-.142.01.219.038.436.088.645-.132.013-.252.126-.36.292-.024-.034-.06-.06-.115-.051-1.86.313-2.465 2.353-2.114 3.95-.013-.029-.035-.05-.064-.056-.648-2.016.295-4.042 2.485-4.638zm-1.802 9.134c-.747-.224-1.068-1.103-1.235-1.785-.225-.92-.09-1.67.484-2.393.02.04.036.082.058.122.011.02.028.03.047.034-.036.1-.06.202-.078.305-.685 1.081-.523 2.55.487 3.408.08.067.192-.04.116-.115-.762-.75-.973-1.852-.587-2.794.05.216.15.397.293.536-.414.476-.127 1.312.373 1.615.089.054.162-.077.08-.135-.25-.18-.391-.457-.412-.759-.014-.223.051-.399.136-.584.075.049.155.093.242.127-.219.262-.08.76.23.905.007.004.012.001.018.002-.205.471-.287.986-.252 1.511zm.242-.147c-.01-.785.251-1.493.741-2.11.15.175.318.33.499.461-1.147 1.006-1.172 2.726-.15 3.822-.77-.232-1.081-1.537-1.09-2.173zm.658 3.49c-.235-.192-.406-.459-.5-.745-.035-.11-.169-1.038.052-1.11.114.19.248.362.408.485-.01.01-.023.017-.03.032-.17.418.22 1 .704.883.117.386.378.643.705.776-.47.058-.915.027-1.339-.32zm2.742-.09c-.623.352-1.45.399-1.788-.33-.134-.287-.125-.615-.032-.915.098-.319.411-.963.84-.914.018.002.029-.007.035-.019.547-.069 1.125.05 1.416.568-.024.02-.031.06.004.084.014.01.028.013.042.02.234.544.001 1.213-.517 1.506zm.486-2.008c.248.004.503-.05.676-.22.014-.014.018-.032.017-.05.124.04.252.069.38.094l-.002.003c-.021.383-.397.645-.763.627-.07-.172-.175-.325-.308-.454zm.222 2.33c.01.078.037.138.139.197.136.08.3.103.456.085.244-.028.527-.172.599-.413.17.065.319.111.405.128.057.01.124.02.194.028-.251.307-.534.541-.932.651-.207.057-1.104.159-1.224-.187.147-.14.273-.3.363-.488zm-.511.612c.163.342.84.392 1.154.361.566-.055 1.146-.371 1.401-.887.008-.016.003-.029.005-.043.27.01.581-.008.876-.065-.281.661-.83 1.05-1.532 1.231-.572.149-1.84.208-2.218-.406.11-.055.217-.118.314-.191zm-.457.25c.581 1.45 4.28.69 4.134-.943.403-.116.742-.32.845-.658.005-.017-.001-.035-.004-.053.105.053.216.093.327.134-.008.01-.02.016-.024.032-.28 1.126-.856 2.06-2.035 2.44-1.096.352-2.842.2-3.494-.866.085-.026.17-.052.25-.086zm3.249 2.523c.026-.005.043-.02.055-.038.067.14.155.275.255.404-.474-.067-.912-.042-1.376-.29-.564-.3-.992-.793-1.235-1.374.254.079.522.131.79.156 0 .004-.004.006-.003.01.086.716.783 1.255 1.514 1.132zm-.083-.451c.014.083.036.165.065.247-.004 0-.007-.004-.01-.004-.623.044-1.2-.32-1.368-.924.175.012.348.016.516.007.035.365.413.8.797.674zm-.659-.68c.152-.013.299-.033.437-.062.103-.02.203-.047.301-.078.008.031.023.06.035.088-.098.19-.135.381-.129.571-.128-.012-.247-.017-.369-.094-.16-.1-.253-.248-.275-.425zm-4.223-1.25c.421.079.864.084 1.275-.008.129.285.333.512.58.692-.227.652-.042 1.187.36 1.62-.941-.601-1.731-1.363-2.215-2.304zm1.977.763c.182.116.378.217.591.29-.012.011-.02.026-.015.048.155.657.563 1.187 1.15 1.537.463.276 1.222.547 1.752.31.18.195.383.359.588.5-1.553-.076-4.367-.811-4.066-2.685zm5.032 2.875c-.904-.294-2.129-1.209-1.915-2.274.204.246.586.39.98.47.071 1.34 1.489 2.296 2.786 1.683.005-.002.004-.007.008-.01.073.046.15.084.23.116-.682.22-1.388.244-2.089.015zm1.479.393c.156-.02.313-.038.466-.078-.044.09.007.21.086.289.165.162.46.208.68.189.044-.004.093-.013.143-.025.035.014.073.024.115.03.33.041.702-.15.951-.341.486-.373.82-1.031.662-1.637.13-.007.26-.022.386-.052.204.873-.147 1.708-1.054 2.058-.689.267-2.022.316-2.435-.433zm3.205.62c-.333.147-.75.218-1.179.22.194-.033.373-.08.523-.138.907-.345 1.66-1.476 1.163-2.388.27-.094.519-.243.728-.433.064.193.091.387.102.579h-.01c-.08-.015-.115.102-.033.122.016.005.032.003.048.007-.002.856-.501 1.658-1.342 2.03zm1.224-.7c.066-.109.129-.22.177-.337.978.335 2.265-.602 2.44-1.547.003-.015-.005-.029-.008-.043.414.022.83-.04 1.227-.164 0 .03.002.06-.002.09-.015.136-.071.265-.15.376-.16.224-.422.366-.699.358.068-.176.114-.365.13-.567.01-.126-.164-.125-.205-.028-.53 1.26-1.447 2.077-2.91 1.862zm5.483-3.137c.14 1.784-1.349 3.03-3.11 2.7.031-.027.066-.05.095-.08.585.152 1.232.062 1.708-.323.433-.351.842-1.081.624-1.636-.01-.027-.034-.043-.06-.054.308-.205.58-.457.8-.751l.03.028c-.05.013-.092.046-.087.116zm2.42-.69c.084.067.078.181.059.292-.006.004-.013.002-.019.007-.685.551-1.625.729-2.335.15.052-.076.1-.156.144-.237.004.004.004.009.008.012.546.413 1.794.525 2.142-.224zm.044-1.439c-.373.621-.868 1.074-1.565 1.309-.556.187-1.05.067-1.518-.168.01-.034.029-.062.037-.098.03-.142-.167-.192-.218-.06-.006.017-.017.03-.024.046-.207-.119-.41-.253-.61-.389.057-.024.112-.051.164-.084.746.488 1.994.589 2.7.022.801-.641.886-1.695.68-2.624-.008-.032-.027-.048-.047-.063.314-.309.545-.668.693-1.058.367 1.058.296 2.186-.292 3.167zm.14-6.004c.134-.053.254-.12.366-.193.257.402.276.898.036 1.317-.04.07.06.124.107.062.33-.449.328-1.035.023-1.491.07-.056.12-.124.18-.187.307.73.182 1.528-.342 2.137 0-.562-.128-1.13-.37-1.645zm1.327.997c-.184.613-.644.903-1.036 1.35.036-.178.06-.36.069-.543.01-.001.02-.002.03-.01.755-.576.954-1.646.485-2.455.05-.066.086-.141.127-.213.372.553.52 1.219.325 1.87z" transform="translate(79 23)"/>
                <path fill="#1D1D1B" fill-rule="nonzero" d="M6.16 18.612c-.062.072-.144.108-.234.116-.013-.078.028-.147.128-.205.049-.023.014-.102-.036-.086-.184.06-.272.217-.225.402.006.025.03.051.056.055.194.033.347-.04.41-.225.019-.055-.06-.101-.098-.057zM6.199 18.28c-.05.017-.03.087.022.078.246-.045.312.137.363.315.019.064.112.063.13 0 .085-.283-.272-.475-.515-.393zM5.426 18.384c-.009.094-.071.141-.188.141.005-.079-.128-.098-.141-.019-.02.116.037.216.167.226.184.015.242-.176.265-.32.011-.066-.083-.095-.103-.028zM5.556 19.374c-.052.026-.015.117.04.095.167-.068.255.084.269.218.006.057.087.092.119.032.132-.248-.212-.453-.428-.345zM14.284 22.912c-.09.083-.285.14-.32-.042-.015-.079-.138-.058-.138.018-.001.326.56.427.595.08.007-.072-.09-.1-.137-.056z" transform="translate(79 23)"/>
                <path fill="#1D1D1B" fill-rule="nonzero" d="M14.546 22.593c-.127-.047-.248-.011-.319.1-.044.07.063.128.11.064.172-.008.263.052.274.18.012.048.02.097.027.146.01.065.107.044.11-.014.013-.18-.004-.402-.202-.476zM14.519 24.028l-.155.05c-.16-.027-.193-.064-.1-.112.048.012.078-.054.034-.078-.145-.079-.29.054-.267.21.04.29.417.192.562.054.053-.05 0-.148-.074-.124zM14.906 23.728c-.04-.021-.07.033-.035.06.047.134.018.219-.087.255-.056.021-.072.114 0 .128.272.055.346-.328.122-.443zM11.02 3.18l-.088.173c-.001.003.003.005.005.002l.088-.172c.001-.003-.003-.006-.005-.003z" transform="translate(79 23)"/>
                <path stroke="#1D1D1B" stroke-linecap="round" stroke-linejoin="round" d="M10.943 3.363c.005 0 .005-.01 0-.01" transform="translate(79 23)"/>
            </g>
        </g>
    </g>
</svg>
