<svg xmlns="http://www.w3.org/2000/svg" width="230" viewBox="0 0 21 30">
    <defs>
        <filter id="mvl3nmt15a">
            <feColorMatrix in="SourceGraphic" values="0 0 0 0 0.000000 0 0 0 0 0.000000 0 0 0 0 0.000000 0 0 0 0.040000 0"/>
        </filter>
    </defs>
    <g fill="none" fill-rule="evenodd">
        <g filter="url(#mvl3nmt15a)" transform="translate(-264 -22)">
            <g fill="#000" fill-rule="nonzero">
                <path d="M20.884 24.532c-.148-.68-.572-1.316-1.234-1.455.065-.28.085-.584.054-.916-.126-1.388-.654-2.694-1.17-3.976-.576-1.43-1.13-2.87-1.666-4.314-.517-1.391-.906-2.825-1.425-4.213-.512-1.37-1.198-2.662-1.86-3.964-.34-.666-.655-1.341-.871-2.057-.201-.668-.28-1.358-.449-2.033C12.111.994 11.722-.38 10.807.1c-.624.329-.972 1.239-1.25 1.835-.435.932-.845 1.88-1.124 2.868-.314.69-.616 1.386-.89 2.093-.545 1.41-.819 2.874-1.244 4.319-.428 1.455-1.14 2.716-1.77 4.084-.635 1.383-.983 2.865-1.486 4.295-.232.662-.536 1.244-.907 1.837-.309.494-.646 1.034-.675 1.633-.012.249.029.478.106.688-.487.023-.915.603-1.14.987-.439.748-.556 1.673-.067 2.425.569.875 1.715 1.322 2.673 1.615 1.229.376 2.497.685 3.762.917 2.663.489 5.353.369 7.99-.222 1.818-.407 4.323-.863 5.546-2.422.56-.714.746-1.639.553-2.52zM2.336 23.025c.125-.558.559-1.068.846-1.552.307-.517.525-1.076.711-1.646.414-1.266.712-2.568 1.22-3.803.558-1.353 1.326-2.577 1.748-3.99.408-1.368.58-2.79.993-4.157.417-1.384.99-2.707 1.514-4.052.375-.962.71-1.959 1.296-2.809.059-.06.119-.118.182-.17.332-.277.325-.08.46.324.157.469.23.964.316 1.449.196 1.101.547 2.127 1.045 3.13.57 1.144 1.198 2.258 1.705 3.432.538 1.248.881 2.568 1.34 3.845.454 1.269.935 2.528 1.406 3.791.45 1.207.98 2.387 1.337 3.626.27.936.751 2.411-.116 3.17-.81.71-1.95 1.066-2.983 1.3-1.17.264-2.36.15-3.535.352-1.277.22-2.422.69-3.735.343-.543-.143-.999-.46-1.51-.678-.485-.208-1.006-.274-1.528-.316-.938-.074-3.04-.117-2.712-1.59zm17.094 3.808c-1.081 1.057-2.896 1.44-4.314 1.793-2.011.5-4.086.763-6.16.611-1.988-.145-4.01-.642-5.901-1.258-.87-.283-2.119-.775-2.322-1.787-.11-.555.253-2.024.995-2.11.342.546.966.917 1.621 1.07.589.137 1.2.127 1.8.17.8.058 1.35.352 2.048.695 1.145.562 2.44.538 3.657.258.684-.158 1.326-.293 2.033-.304.71-.01 1.41.005 2.115-.094 1.165-.165 2.362-.522 3.365-1.146.429-.266.76-.575.987-.936.524.166.71.764.749 1.278.051.67-.19 1.289-.673 1.76z" transform="translate(264 22)"/>
                <path d="M8.583 23.504c1.273-.12 2.3-1.118 2.425-2.383.119-1.2-.531-2.447-1.553-3.083-.6-.373-1.382-.542-2.073-.347-.47.132-.809.407-1.087.745-.812.735-1.249 1.87-.937 2.963.385 1.35 1.842 2.235 3.225 2.105zm-2.58-4.257c.466-.495 1.005-1.017 1.67-1.13.702-.119 1.419.162 1.93.633.874.803 1.288 2.226.628 3.282-.853 1.365-2.811 1.307-3.88.239-.856-.857-.86-2.055-.347-3.024zM9.629 12.619c-.565 1.03-.409 2.185.466 3.006.838.786 2.044.824 2.908.062.798-.704 1.113-1.886.909-2.908-.112-.56-.4-1.152-.874-1.497-.265-.194-.58-.265-.902-.268-1.106-.2-2.014.706-2.507 1.605zm3.364-.737c.333.388.485.911.503 1.414.034.974-.448 2.047-1.412 2.41-1.243.469-2.556-.9-2.439-2.11.067-.684.444-1.534 1.039-1.92.643-.42 1.79-.4 2.31.206zM11.988 17.917c-.253.579-.188 1.302.172 1.822.163.235.537.413.644.67.162.389-.36.837-.49 1.18-.458 1.199 1.816 2.028 2.381.94.08-.154.115-.327.184-.487.116-.268.096-.178.31-.213.348-.056.636.05.983-.101.499-.218.754-.698.832-1.213.206-1.37-.673-3.197-2.177-3.302-1.003-.434-2.356-.4-2.84.704zm4.3.908c.272.567.422 1.382.18 1.985-.158.393-.487.585-.9.611-.215.014-.512-.114-.724-.036-.622.23-.297 1.292-1.19 1.152-.478-.075-1.036-.346-.826-.887.113-.29.375-.502.463-.81.165-.58-.228-.817-.593-1.18-.548-.544-.582-1.628.123-2.072 1.12-.705 2.94.142 3.467 1.237zM7.481 16.262c.259.213.61.201.807-.08.262-.377.163-1.008.133-1.429-.049-.675-.088-1.185.151-1.848.176-.485.42-.968.71-1.395.267-.392.59-.747.798-1.176.177-.363.347-.932-.132-1.139-.518-.223-1.051.227-1.347.594-.924 1.148-1.281 2.472-1.345 3.852-.158.748-.425 2.083.225 2.62zm1.22-5.914c.165-.258.504-.79.858-.796.704-.011.027.893-.134 1.12-.466.657-.876 1.286-1.154 2.05-.192.524-.27 1.002-.23 1.549.03.421.18 1.16-.038 1.546-.348.617-.515-.831-.52-1.053v-.086c.11-1.535.349-2.973 1.218-4.33zM11.14 8.472c.182.605-.019.996-.143 1.584-.028.13-.05.264-.016.392.123.467.704.234.951.028 1.002-.834.24-2.793-.073-3.79-.218-.693-.51-1.63-1.107-2.1-.372-.294-.742-.195-.894.258-.254.76.208 1.587.574 2.222.261.452.555.903.707 1.406zm-.506-3.581c.27.122.456.608.572.856.456.971.783 2.293.786 3.377 0 .276-.017.584-.166.827-.073.118-.184.243-.315.294-.16.064-.107.098-.172-.018-.075-.134.03-.419.09-.65.346-.616-.028-1.555-.31-2.113-.284-.565-.674-1.1-.824-1.723-.063-.262-.193-1.09.339-.85z" transform="translate(264 22)"/>
                <path d="M6.988 20.495c.006.124.102.23.231.23.121 0 .237-.106.231-.23-.005-.125-.101-.23-.23-.23-.121 0-.237.106-.232.23zM7.59 19.504c.038.015.078.02.118.019.122-.006.24-.103.234-.233-.006-.13-.103-.226-.234-.232-.04-.002-.08.004-.118.019-.089.036-.168.109-.163.213.005.106.068.175.163.214zM8.408 20.684c.079.02.154.017.225-.026.11-.067.156-.201.106-.32-.052-.122-.176-.172-.304-.147l-.01.001c-.08.016-.166.1-.18.18-.005.028-.01.056-.012.084-.01.1.08.204.175.228zM7.9 21.658c-.01.004-.02.008-.03.014-.046.026-.097.074-.105.129l-.001.008c-.017.107.013.196.105.258.083.055.183.05.271.013.086-.036.143-.102.188-.182.06-.105.033-.236-.062-.31-.088-.067-.241-.074-.318.019-.015.018-.032.034-.048.05zM9.277 21.163c-.09-.03-.192.012-.247.084-.086.11-.056.272.065.343.113.066.253.023.322-.084.086-.132-.003-.297-.14-.343zM9.148 19.994c.057.02.114.017.171.001.237-.067.237-.41 0-.477-.057-.016-.114-.02-.17.002-.1.036-.187.123-.182.237.005.115.075.198.181.237zM6.906 19.933c.105-.005.167-.078.178-.176l.004-.04c.01-.093-.09-.184-.182-.18-.09.004-.192.08-.181.18l.004.04c.01.091.075.18.177.176zM6.651 21.53c.056.127.235.12.322.041l.02-.018c.07-.063.07-.189 0-.251l-.02-.019c-.087-.08-.266-.085-.322.041-.03.07-.04.117-.008.188l.008.018zM7.885 20.821l-.047.01c-.132.028-.167.204-.078.293.09.088.266.053.294-.078l.01-.046c.024-.112-.067-.202-.18-.179zM9.527 20.76c.243 0 .243-.375 0-.375-.242 0-.243.375 0 .375zM8.958 22.378c.102-.101-.003-.25-.132-.226-.048.009-.086.046-.095.094-.024.127.126.232.227.132zM8.51 19.505c.114 0 .203-.112.171-.223-.022-.076-.084-.146-.17-.146-.087 0-.15.07-.172.146-.032.11.057.223.171.223zM11.282 14.05l-.012-.01c-.092-.075-.223-.113-.332-.043-.093.06-.172.194-.125.306l.006.015c.053.127.132.185.267.202h.008c.119.016.223-.092.257-.193l.003-.01c.028-.084 0-.21-.072-.267zM10.928 13.268c-.005-.11-.095-.205-.204-.226-.149-.03-.3.066-.3.226s.151.256.3.227c.101-.02.209-.117.204-.227zM11.735 13.501c.005.117.095.216.217.216.114 0 .223-.1.217-.216-.005-.117-.095-.215-.217-.215-.113 0-.222.099-.217.215zM11.678 12.505c.22 0 .22-.339 0-.339-.219 0-.22.34 0 .34zM12.422 12.97c.267 0 .267-.413 0-.413-.268 0-.268.412 0 .412zM11.568 12.873c-.08-.098-.241-.048-.285.056-.05.117.037.236.16.242l.02.001c.066.003.13-.044.153-.102.027-.066.01-.128-.034-.181l-.014-.016zM11.882 14.48c-.027.033-.05.061-.063.104l-.004.012-.003.025v-.006.009c-.019.077.012.16.075.208.061.047.164.064.23.016.088-.061.152-.17.108-.278-.027-.068-.068-.121-.143-.142-.065-.018-.154-.002-.2.053zM12.5 13.696c-.014.076.018.157.093.212l-.028-.02c.112.137.34.052.383-.1l.002-.009c.026-.092-.016-.208-.104-.254-.095-.05-.192-.03-.274.035-.037.03-.064.085-.071.136z" transform="translate(264 22)"/>
            </g>
        </g>
    </g>
</svg>
