<svg xmlns="http://www.w3.org/2000/svg" xmlns:xlink="http://www.w3.org/1999/xlink" width="136" height="21" viewBox="0 0 136 21">
    <defs>
        <path id="rfyjjf2s2a" d="M0 0.02L16.815 0.02 16.815 3.074 0 3.074z"/>
    </defs>
    <g fill="none" fill-rule="evenodd">
        <g>
            <g>
                <path fill="#FEFEFE" d="M30.412 17l.118.234c-.47.349-.941.581-1.53.581-1.294 0-1.529-1.048-1.529-1.63.47-.116.823-.234 1.176-.466-.117.35-.117 2.212 1.765 1.281zm-4.117.7h-1.177l.235-1.283h1.176l-.234 1.282zm-4.118 0h-.824S22.529 16.534 23 15.95c-1.412-.115-2 .118-2 .118v-.118c.47-.232.94-.349 1.294-.465.47 0 .824-.116 1.294-.116.236 0 .588.116 1.059.116.235.116.588.116.941.116l.235-1.63-1.293 1.281h-.824l2.589-2.562h.823s-.47 2.679-.47 3.028h.823c.353-1.165 1.294-1.863 2.47-1.863.354 0 .824.116 1.059.232-.117.117-.353.234-.47.35-.235-.116-.47-.233-.589-.233-1.176.117-1.294 1.397-1.294 1.397l-.117.117c-.824.35-1.647.466-2.589.466h-.94l-.59-.116h-.47l-.117-.118-1.647 1.748zM35 13.959c-.267.12-.399.243-.532.363-.267-.12-.533-.243-.666-.243-.533 0-.799.243-1.065.486-.266.364-.4.848-.4 1.333 0 .85.266 1.335 1.065 1.335.267 0 .533 0 .932-.243l.134.243c-1.598 1.09-3.595.606-3.462-1.092 0-1.698 1.597-2.425 2.796-2.425.532 0 .931.121 1.198.243" transform="translate(-202 -15) translate(202 16)"/>
                <path fill="#FEFEFE" d="M34 16.127c0 1.447 1.109 1.688 1.663 1.688 1.552 0 2.438-1.206 2.328-2.412 0-.602-.111-.964-.333-1.205-.332-.362-.776-.482-1.33-.482-.886 0-2.217.723-2.328 2.411m2.882-.603c0 1.689-.665 1.93-.998 1.93-.221 0-.664-.121-.775-1.568.11-1.447.665-1.809 1.108-1.809.443 0 .665.483.665 1.447M39.455 15.893c.12 0 .243.128.363.385l.606.896c.122.256.364.385.485.512.122 0 .243.13.485.13H42c-.242-.257-.485-.514-.727-1.026 0 0-.485-.769-.485-.897-.12 0-.12 0-.242-.127.363 0 1.212-.257 1.212-1.154 0-.64-.485-.896-1.334-.896h-1.818l-.606 4.1h1.092l.363-1.923zm.243-1.792c.12-.13.242-.13.484-.13.485 0 .606.385.606.641 0 .64-.364 1.024-1.09 1.024h-.243l.12-1.024c0-.256.123-.384.123-.511zM49 16.879c-.333.268-.778.402-1 .402-.444 0-.556-.268-.556-.67.667 0 1.556-.4 1.556-1.337 0-.4-.223-.533-.556-.533-1 0-1.444 1.336-1.444 2.005 0 .668.333 1.07.778 1.07.444 0 .778-.135 1.11-.402l.112-.535zm-1.444-.668c0-.401.333-1.07.778-1.07.11 0 .222.133.222.268 0 .535-.667.802-1 .802zM50.632 15.999h.105c.21-.42.632-1.258 1.053-1.258H52l-.105.558h-.21c-.211 0-.421.28-.527.56l-.632.838-.105 1.118H50l.42-3.074h.423l-.211 1.258zM53 14.741L53.381 14.741 53.571 17.256 54.619 14.741 55 14.741 53.666 17.815 53.286 17.815zM55.6 13.716h.4l-.1.546h-.4l.1-.546zm-.2 1.093h.4l-.4 3.006H55l.4-3.006zM58.895 15.274c-.106-.133-.316-.133-.421-.133-.632 0-.948.803-.948 1.604 0 .4.105.669.421.669.21 0 .527-.268.737-.401v.534c-.316.134-.631.268-.842.268-.526 0-.842-.401-.842-1.07 0-.936.631-2.004 1.474-2.004H59l-.105.533zM61 16.879c-.333.268-.777.402-1 .402-.444 0-.556-.268-.556-.67.667 0 1.556-.4 1.556-1.337 0-.4-.222-.533-.556-.533-1 0-1.444 1.336-1.444 2.005 0 .668.333 1.07.778 1.07s.778-.135 1.11-.402l.112-.535zm-1.444-.668c0-.401.333-1.07.778-1.07.11 0 .222.133.222.268 0 .535-.667.802-1 .802zM62.111 17.146c.223.134.444.268.778.268.11 0 .333-.134.333-.4 0-.536-.778-.803-.778-1.472 0-.4.223-.801.778-.801.334 0 .556 0 .778.134l-.112.4c-.222 0-.443-.134-.666-.134-.111 0-.333 0-.333.268 0 .4.777.802.777 1.604 0 .535-.444.802-.888.802-.223 0-.444-.134-.778-.267l.111-.402zM45.111 17.146c.223.134.445.268.778.268.222 0 .333-.134.333-.4 0-.536-.778-.803-.778-1.472 0-.4.223-.801.89-.801.222 0 .444 0 .666.134l-.111.4c-.223 0-.333-.134-.667-.134-.111 0-.333 0-.333.268 0 .4.777.802.777 1.604 0 .535-.444.802-.777.802s-.555-.134-.889-.267l.111-.402zM29.756 2.664c-.121.499-.243.748-.851.748h-2.067L25.5 9.644l-.122.997h-3.04l.243-.997 1.338-6.232H21l.486-1.994H30l-.244 1.246zM32.784 2.54c-.109.623-.217.872-.65.872h-1.728l.216-1.122c.108-.623.324-.872.648-.872H33l-.216 1.122zm-1.297 7.104l-.11.997H29l.216-.997.973-5.11c.108-.624.217-.748.865-.748h1.513l-1.08 5.858zM38.876 4.197l-.5 1.094c-.5-.365-.876-.365-1.376-.365-.625 0-1.124.243-1.625.852-.5.486-.75 1.216-.75 1.824 0 .85.5 1.459 1.5 1.459.5 0 1.375-.244 1.875-.608l-.374 1.338c-.126.242-.126.364-.5.486-.501.243-1.25.364-2 .364-2.001 0-3.126-1.094-3.126-2.796 0-1.216.75-2.554 2-3.405.876-.608 2-.972 3.25-.972 1 0 1.75.242 1.75.485 0 0 0 .122-.124.244M44.143 6.404l1.714 3.116c.343.748.343.748.572.997v.124H44.37c-.571 0-.571-.124-1.028-.872l-1.257-2.867v.25l-.457 2.493-.23.996H39l.228-.996 1.486-7.479c.114-.623.229-.748.915-.748h1.6l-.915 4.362-.114.374.114.125.114-.249 1.6-1.746c.343-.373.572-.497.915-.497H47l-2.857 2.617z" transform="translate(-202 -15) translate(202 16)"/>
                <path fill="#FEFEFE" d="M50.246 4.684c-.689 0-1.378.607-1.607 1.58h2.066c.344 0 .459 0 .459-.608s-.344-.972-.918-.972m2.524 2.553c0 .244-.114.244-.458.244h-3.788c0 .972.574 1.58 1.607 1.58.689 0 1.607-.243 2.525-.608l-.344.972c0 .365-.23.487-.46.73-.573.243-1.606.486-2.41.486-2.065 0-3.442-1.216-3.442-3.04 0-2.188 1.95-4.133 4.246-4.133 1.721 0 2.754.972 2.754 2.675 0 .486-.114.972-.23 1.094M59.4 4.62c-.12.257-.24.385-.6.385h-1.2l-.6 2.69v.769c0 .384.12.512.48.512.48 0 .96-.128 1.56-.384v.128l-.48 1.153c-.12.256-.12.256-.36.384-.36.257-1.08.384-1.8.384-1.32 0-2.04-.64-2.04-1.536 0-.257 0-.257.12-.898l.6-3.202H54l.36-1.153 3.72-2.434.12.128-.36 1.922H60l-.6 1.153zM67.846 3.038h-.462l-.576 2.743c.922 0 1.038 0 1.384-.25.808-.373 1.154-.872 1.154-1.496 0-.623-.462-.997-1.5-.997m1.5 3.366l2.192 3.864.115.25v.123h-2.538c-.461 0-.692-.248-1.038-.872l-1.385-3.116-.577 2.991-.116.997H63l.346-.997 1.615-8.226h3.808c2.077 0 3.231.748 3.231 2.12 0 1.37-1.038 2.492-2.654 2.866M76.246 4.684c-.688 0-1.262.607-1.606 1.58h2.065c.344 0 .459 0 .459-.608s-.344-.972-.918-.972m2.64 2.553c-.115.244-.23.244-.574.244h-3.788c0 .972.574 1.58 1.608 1.58.688 0 1.606-.243 2.524-.608l-.344.972c0 .365-.23.487-.46.73-.573.243-1.606.486-2.41.486-2.065 0-3.442-1.216-3.442-3.04 0-2.188 1.951-4.133 4.36-4.133 1.608 0 2.64.972 2.64 2.675 0 .486-.114.972-.114 1.094M86 4.197l-.25 1.094h-.126c-.5-.243-1.124-.365-1.875-.365-.874 0-1.374.122-1.374.487 0 .243.25.365 1.374.73C85.374 6.75 86 7.236 86 8.087c0 .608-.376 1.216-1 1.703-.625.607-1.625.85-2.876.85-1.124 0-2-.12-2.75-.486-.25 0-.374-.122-.374-.243s0-.121.124-.365l.376-1.094h.124c1 .486 1.625.73 2.5.73.75 0 1.251-.244 1.251-.608 0-.244-.126-.366-.876-.608-1.374-.487-1.749-.608-2-.852-.375-.243-.624-.729-.624-1.216 0-1.338 1.624-2.431 3.625-2.431.75 0 1.374.12 2 .242.375.122.5.243.5.365v.122zM91.4 4.62c-.12.257-.24.385-.48.385H89.6l-.48 2.69c-.12.384-.12.64-.12.769 0 .384.12.512.48.512.48 0 .96-.128 1.56-.384l.12.128-.6 1.153c-.12.256-.12.256-.24.384-.48.257-1.2.384-1.92.384-1.2 0-2.04-.64-2.04-1.536 0-.257 0-.257.12-.898l.72-3.202H86l.48-1.153 3.6-2.434.24.128-.36 1.922H92l-.6 1.153z" transform="translate(-202 -15) translate(202 16)"/>
                <path fill="#FEFEFE" d="M95.824 4.926c-.824 0-1.412.365-1.766 1.216-.352.608-.47 1.338-.47 1.946 0 .73.235.973.824.973.235 0 .706-.244.94-.608.236-.365.472-.973.589-2.067.236-.852.236-.973.471-1.46h-.588zm2 4.5l-.118.972h-1.647c-.235 0-.353-.121-.353-.365l-.118-.608h-.118c-.47.73-1.293 1.216-2.235 1.216-1.294 0-2.235-.972-2.235-2.553 0-1.094.47-2.31 1.294-3.162.823-.851 1.883-1.337 3.176-1.337.354 0 1.06.121 1.647.121.353 0 .589.122.706.122.47 0 .824-.122 1.177-.364l-1.177 5.957zM105.788 9.383l-.243 1.006h-1.454c-.486 0-.486-.125-.606-.377l-.122-.503c-.848.755-1.575 1.132-2.545 1.132-1.09 0-1.818-.755-1.818-1.762 0-.25.12-.629.242-1.258l.727-3.399c.121-.63.242-.754.849-.754h1.818l-.848 4.027c-.122.252-.122.504-.122.755 0 .378.242.503.607.503.363 0 .727-.125 1.212-.503l.848-4.028c.121-.63.243-.754.848-.754H107l-1.212 5.915zM113 4.097l-.444 1.385c-.333-.126-.556-.126-.778-.126-.889 0-1.556.629-1.778 1.888l-.445 2.39-.11 1.007H107l.223-1.006 1-5.16c.11-.63.222-.755.777-.755h1.556l-.222 1.258c.555-1.007 1.111-1.51 2-1.51.443 0 .666.126.666.377v.252zM117.706 4.926c-.706 0-1.294.365-1.765 1.216-.235.608-.47 1.338-.47 1.946 0 .73.235.973.823.973.353 0 .706-.244.941-.608.354-.365.47-.973.706-2.067.117-.852.235-.973.353-1.46h-.588zm1.999 4.5l-.117.972h-1.53c-.235 0-.47-.121-.47-.365l-.118-.608c-.588.73-1.411 1.216-2.234 1.216-1.412 0-2.236-.972-2.236-2.553 0-1.094.47-2.31 1.176-3.162.824-.851 1.883-1.337 3.177-1.337.47 0 1.059.121 1.765.121.234 0 .587.122.706.122.47 0 .705-.122 1.057-.364H121l-1.295 5.957zM127.63 7.243c-.246 1.385-.492 2.518-.492 2.895 0 .126 0 .252.123.503h-1.723c-.492 0-.86-.377-.86-.88 0-.378 0-.63.122-1.133s.122-.252.369-1.51c.123-.63.245-1.008.245-1.259 0-.378-.245-.504-.614-.504-.37 0-.739.126-1.23.504l-.74 3.776-.246 1.006H120l.246-1.006 1.107-5.16c.124-.63.247-.756.862-.756h1.6l-.123 1.007c.739-.881 1.6-1.258 2.585-1.258 1.107 0 1.723.628 1.723 1.636 0 .503 0 .755-.37 2.14M134.51 4.62c-.122.257-.367.385-.613.385h-1.224l-.611 2.69c-.123.384-.123.64-.123.769 0 .384.244.512.49.512.612 0 1.102-.128 1.591-.384l.123.128-.612 1.153c-.123.256-.123.256-.245.384-.49.257-1.224.384-1.837.384-1.346 0-2.203-.64-2.203-1.536 0-.257 0-.257.122-.898l.735-3.202H129l.368-1.153 3.673-2.434.245.128-.368 1.922H135l-.49 1.153zM135.067 9.412h-.133v.137h.133s.132 0 .132-.137h-.132zm.132.273l.135.273h-.267l-.267-.273v.273h-.267l.133-.683h.4c.133 0 .268 0 .268.137s-.135.273-.135.273zm0-.82c-.533 0-.8.41-.933.82v.136c0 .41.267.547.534.547.4 0 .8-.273.934-.683v-.273c0-.274-.267-.547-.535-.547zm-.4 1.776c-.4 0-.799-.273-.799-.82 0-.546.533-1.23 1.2-1.23.4 0 .8.411.8.82 0 .684-.666 1.23-1.2 1.23z" transform="translate(-202 -15) translate(202 16)"/>
                <g transform="translate(-202 -15) translate(202 16) translate(0 15.766)">
                    <mask id="2e4o5zs47b" fill="#fff">
                        <use xlink:href="#rfyjjf2s2a"/>
                    </mask>
                    <path fill="#FEFEFE" d="M13.758.057c-1.465 1.11-3.29 1.776-5.28 1.776-1.948 0-3.754-.68-5.205-1.813C1.284.334 0 .84 0 1.447c0 .888 3.72 1.628 8.333 1.628 4.762 0 8.482-.74 8.482-1.628 0-.583-1.178-1.073-3.057-1.39" mask="url(#2e4o5zs47b)"/>
                </g>
                <path fill="#FEFEFE" d="M17 8.079c0 4.822-3.828 8.711-8.576 8.711C3.828 16.79 0 12.901 0 8.08c0-4.822 3.828-8.71 8.424-8.71C13.172-.632 17 3.256 17 8.078" transform="translate(-202 -15) translate(202 16)"/>
            </g>
        </g>
    </g>
</svg>
