<svg xmlns="http://www.w3.org/2000/svg" width="240" viewBox="0 0 30 30">
    <defs>
        <filter id="c56dsf19ka">
            <feColorMatrix in="SourceGraphic" values="0 0 0 0 0.000000 0 0 0 0 0.000000 0 0 0 0 0.000000 0 0 0 0.040000 0"/>
        </filter>
    </defs>
    <g fill="none" fill-rule="evenodd">
        <g filter="url(#c56dsf19ka)" transform="translate(-574 -22)">
            <g fill="#000" fill-rule="nonzero">
                <path d="M29.944 12.764c-.391-3.632-2.613-7.206-5.376-9.511-1.4-1.168-3.028-1.96-4.763-2.494-.994-.306-1.967-.487-2.947-.567-2.267-.388-4.697-.07-6.854.57-2.824.84-5.094 2.63-6.812 5.005C1.186 8.538.165 11.793.022 15.204c-.073 1.747.02 3.517.574 5.186.508 1.524 1.318 2.908 2.336 4.144 4.234 5.142 12.145 6.826 18.191 4.255 2.838-1.207 5.155-3.372 6.62-6.091.738-1.369 1.232-2.82 1.594-4.328.435-1.813.808-3.735.607-5.606zm-1.92 7.593c-.987 2.707-2.866 4.985-5.266 6.55-5.197 3.392-12.878 2.924-17.6-1.163-2.295-1.986-4.07-5.002-4.314-8.068-.266-3.338.23-6.82 1.747-9.825C4 5.062 6.333 2.998 9.227 1.847c1.433-.57 2.962-.922 4.485-1.148.662-.098 1.351-.172 2.042-.19 1.034.09 2.053.224 3.082.56 1.49.486 3 1.14 4.273 2.07 2.522 1.843 4.4 4.566 5.49 7.481 1.165 3.113.538 6.682-.575 9.737z" transform="translate(574 22)"/>
                <path d="M28.12 11.628c.498-.703-.409-.952-.952-.987-.577-.036-1.142.051-1.657.258-.27-.534-.563-1.056-.86-1.58-.21-.371-.448-.797-.753-1.141.043-.056.083-.114.117-.176.166-.3.247-.678.037-.978-.308-.437-.839-.286-1.257-.15-.335.108-.816.235-.566-.322.15-.333.442-.594.661-.88.208-.27.486-.67.344-1.03-.167-.423-.758-.402-1.122-.32-.686.156-1.302.664-1.766 1.17-.062.066-.12.136-.178.205.064-.263.071-.52-.026-.748-.32-.756-1.588-.885-2.265-1.01-.133-.024-.267-.044-.4-.063l.025-.051c.177-.35.435-.796.254-1.195-.211-.465-.81-.503-1.222-.341-.59.231-1.064.818-1.33 1.38l-.017.042c-.156-.005-.312-.01-.468-.013-.405-.011-.864-.025-1.296.046-1.29-.76-3.07-.641-4.186.416-.783.49-1.457 1.154-1.875 1.961-.213.212-.403.429-.558.593-.032.034-.062.07-.093.104-.325-.2-.708-.328-1.057-.384-.552-.088-1.71-.113-1.951.554-.376 1.039 1.537 1.034 1.695 1.795.203.974-2.42.304-1.926 1.705.103.294.305.45.55.53-.006.049-.01.098-.012.148-.017.548.328.9.76 1.138l-.04.03c-.249.19-.44.426-.332.75.056.167.211.244.31.376.152.2.553.251-.036.645-.127.085-.375.065-.52.079-.89.084-1.991-.014-2.654.713-.497.545-.531 1.35.277 1.543.42.101.844.078 1.27.018-.074.64.257 1.441.425 1.94.34 1.011.833 1.946 1.323 2.89.31.595.683 1.327 1.288 1.673.322.184.643.178.944.07-.109.213-.256.418-.336.544-.273.433-.646.957-.478 1.504.102.334.38.536.727.491.496-.064.65-.54.947-.855.1-.105.513-.512.554-.128.01.1-.085.22-.122.316-.092.237-.198.473-.25.724-.15.734.442 1.343 1.152.868.206-.138.353-.315.468-.514.327.242.784.381 1.203.479-.013.1-.023.201-.024.303-.009.743.642 1.852 1.475 1.23.385-.287.477-.734.51-1.185.606.068 1.215.104 1.827.142.668.042 1.485.099 2.092-.243.728-.41.633-1.309.462-2.01l-.026-.093c.816-.05 1.665-.27 2.218-.823.341.606.78 1.407 1.422 1.497.272.038.538-.053.79-.209.056.215.152.415.328.563.71.601 1.687-.119 1.965-.832.267-.683.057-1.34-.283-1.935.062-.088.124-.175.185-.264.277.488.706.862 1.326.687.84-.235.924-1.26.835-1.986-.058-.473-.212-.905-.534-1.262-.021-.023-.045-.044-.068-.066.064-.187.106-.378.117-.57.257.07.522.117.783.077.567-.088.997-.67.773-1.237-.244-.614-1.065-.911-1.628-1.118-.337-.123-.681-.222-1.026-.318-.215-.06-.495-.098-.696-.197-.189-.093-.275-.397-.126-.556.14-.148.477-.098.651-.068.437.076.825.31 1.231.474.491.198 1.197.437 1.445-.219.114-.3-.034-.568-.2-.814-.095-.139-.444-.459-.284-.631.102-.111.644.02.805.013.731-.03 1.245-.872.74-1.51-.223-.282-1.113-.387-.973-.77.13-.355.88-.567 1.118-.902zm-3.636-1.584c.204.354.396.712.575 1.076-.265.154-.51.345-.728.572-.004-.022-.005-.044-.009-.067-.1-.605-.32-1.812-1.111-1.846-.427-.018-.895.214-1.276.377-.407.176-.805.362-1.215.516l-.06.017c.152-1.303 1.871-1.434 2.853-2.144.41.419.687 1.005.971 1.5zm-6.986 6.563c.017.16.088.307.11.464.026.18-.027.267-.1.38-.1-.017-.204-.02-.312-.004-.142.022-.273.076-.396.15-.166-.285-.4-.43-.745-.355-.156.034-.448.265-.59.243-.269-.043-.124-.337-.067-.515.184-.58.585-1.22.466-1.854-.139-.735-.9-.385-1.288-.077-.359.284-.628.651-.813 1.059-.19-1.163-.847-2.121-1.776-2.753.438-.134.795-.54.688-1.04-.049-.225-.18-.388-.355-.508.362-.182.722-.322 1.086-.414.08.042.144.108.17.234.035.167-.15.422-.224.564-.239.463-.558.981-.3 1.506.205.413.66.629 1.072.396.816-.46 1.033-1.816 1.297-2.685l.147.041c.359.107.74.253 1.108.436l-.082.022c-.637.17-1.024.49-.768 1.182.27.728.793 1.47 1.367 1.984.204.183.428.34.664.477-.118.127-.211.298-.258.425-.074.203-.125.426-.101.642zm-7.026 4.488c-1.636.39-3.596-.64-4.376-2.093-.502-.937-.613-2.074-.357-3.108.496-1.385 1.424-2.639 3.023-2.68 1.933-.048 4.01 1.008 4.252 3.1.197 1.705-.688 4.34-2.542 4.781zM12.6 10.678c.022.137.069.252.14.348-.334.113-.64.307-.915.557-.244-.064-.501-.088-.717-.096.243-.332.469-.683.606-1.034.314-.085.62-.198.91-.345-.042.201-.052.403-.024.57zm3.029.169c.114-.245.26-.483.444-.657.212-.202.477-.423.7.043.073.15-.035.469-.055.621-.016.12-.034.247-.043.372-.34-.158-.693-.286-1.046-.38zm1.287 2.983c-.14-.196-.513-.628-.516-.88.796 1.402 2.45 2.125 4.072 1.86.892-.145 2.285-.758 3.05-1.625-.499 1.72-2.436 2.418-4.098 2.159-1.01-.158-1.911-.675-2.508-1.514zm3.299.722c-.844.09-1.67-.131-2.416-.52-.596-.311-.96-.749-1.353-1.245.158-.253.67-.272.929-.334.959-.23 1.882-.635 2.799-.993.9-.351 1.847-.683 2.716-1.12.213-.03.337.013.479.312.102.216.142.495.185.727.069.375.107.764.082 1.148-.682 1.076-2.273 1.9-3.421 2.025zm-1.35-9.83c.48.149.918.316.73.89-.19.58-.548 1.129-.813 1.677-.098.204-.19.412-.282.621-.282.306-.773.834-1.218.726-.698-.17.373-1.11.602-1.364.252-.28.521-.566.521-.967 0-.35-.184-.662-.56-.678-.225-.01-.422.12-.595.245-.039.027-.271.277-.324.269-.26-.042-.177-.427-.152-.576.069-.415.253-.816.45-1.202.553.078 1.1.19 1.642.359zm-3.205-.786c.148-.297.335-.572.577-.8.288-.272 1.187-.87 1.197-.042.004.404-.466.915-.655 1.246-.245.429-.512.937-.536 1.442-.015.309.07.663.358.825.129.072.245.099.396.065.256-.057.45-.468.666-.495.806-.102-.353 1.078-.481 1.218-.228.25-.544.566-.603.916-.111.672.678.868 1.179.69.81-.288 1.416-1.145 1.915-1.802.647-.85 1.235-1.795 2.252-2.251.095-.043.503-.21.652-.157.37.127.113.349-.026.54-.163.224-.366.418-.53.642-.216.294-.457.67-.354 1.057.115.431.499.513.887.44.214-.04.563-.298.78-.262.983.16-.26 1.04-.556 1.176-1.102.512-2.612.94-2.691 2.401-.002.027 0 .05.005.073l-.219.065-.044.01c-.01.002-.017.007-.024.011-.806.245-1.609.499-2.415.732-.03-.042-.073-.076-.132-.098-.218-.08.051-1.341-.076-1.614-.18-.387-.628-.564-1.02-.404-.782.322-.9 1.1-1.142 1.8-.249.72-.433 1.572-1.002 2.119-.318.305-.587.027-.496-.4.066-.31.29-.585.42-.87.184-.398.268-.864-.117-1.177-.18-.147-.427-.107-.602-.225-.234-.157-.269-.57-.199-.926.388-.249.741-.56 1.042-.93.72-.888 1.07-2.046.856-3.12.187-.643.457-1.329.738-1.895zm-.668.272c-.071.213-.134.429-.194.644-.029.1-.061.2-.094.302-.105-.232-.242-.455-.412-.666-.082-.102-.17-.197-.263-.287.321-.018.65-.004.963.007zM7.53 7.441c.033-1.058.63-2.06 1.479-2.67l.155-.108c.778-.528 1.83-1.021 2.756-.804.824.192 1.62.783 1.992 1.55.847 1.75-.6 3.676-2.26 4.205-1.706.544-4.191.054-4.122-2.173zm3.38 3.16c-.208.328-.424.65-.646.97-.445.069-.903.13-1.254-.036-.624-.295.222-.52.445-.7.101-.08.17-.163.202-.261.417.062.839.069 1.254.027zm-6.326.49c.306 0 .62-.042.87-.05.2-.007.478-.044.671.03.247.094.25-.016.175.291-.062.254-.156.26-.371.361-.189.089-.386.168-.578.255-.42-.188-.757-.459-.767-.886zm-1.889 4.863c-.216.021-.842.115-.998-.088-.39-.513.787-.967 1.098-1.03.724-.143 1.791.071 2.41-.41.24-.185.342-.453.282-.75-.025-.123-.066-.213-.14-.318-.212-.303-.556-.38-.17-.704.497-.416 1.48-.422 1.724-1.12.193-.554-.3-.87-.77-.95-.338-.056-.689-.037-1.03-.025-.149.005-.298.017-.447.016-.061 0-.152.023-.208-.002-.1-.045-.312-.43-.192-.556.083-.088.534-.067.678-.099.189-.041.388-.108.549-.22.242-.168.393-.413.408-.71.019-.38-.202-.701-.489-.932-.23-.186-1.493-.642-1.028-1.014.287-.23 1.076-.115 1.391-.046.511.112.898.337 1.203.695.008 1.227.74 2.362 2.016 2.735.07.02.14.039.21.056-.201.205-.885.392-.94.762-.073.49.398.749.801.834.576.121 1.158.002 1.735-.026.296-.015.607-.002.893.082.728.214.348.68-.084.974-.585-.318-1.255-.519-1.969-.576-1.188-.096-2.421.246-3.217 1.172-.498.58-.875 1.287-1.068 2.034-.89-.206-1.758.13-2.648.216zm3.398 6.333c-.506-.435-.799-1.137-1.106-1.718-.577-1.088-1.063-2.206-1.316-3.418-.062-.3-.11-.59-.006-.796.518-.093 1.038-.18 1.556-.11-.182.764-.177 1.578.051 2.37.221.767.678 1.452 1.273 1.996-.297.239-.542.656-.56.906-.017.255.097.45.318.574.208.116.614.076.784.28-.328.168-.67.195-.994-.084zm5.212 2.758c-.1.287-.212.579-.298.876-.146-.043-.292-.09-.437-.141-.263-.092-.513-.19-.647-.355.206-.66.28-1.41.743-1.904.353-.376.837-.207.919.288.018.113-.022.326-.037.41-.049.283-.15.556-.243.826zm1.154 1.002c-.023.2-.039.388-.06.545-.03.227-.063.424-.175.625-.154.274-.484.497-.77.235-.245-.227-.002-.774.059-1.034.054-.23.1-.46.156-.69.192-.808.746-1.907.161-2.676-.487-.641-1.27-.168-1.657.33-.312.403-.46.903-.596 1.386-.09.316-.382 1.514-.884 1.39-.551-.138.364-1.6.106-2.017-.37-.6-1.07.086-1.363.41-.16.177-.462.676-.695.32-.125-.188.08-.62.177-.79.148-.26.325-.499.454-.77.149-.312.308-.706.195-1.054-.138-.423-.463-.398-.805-.548-.349-.154-.307-.31-.081-.597.022-.027.11-.14.19-.227.912.702 2.07 1.099 3.196 1.019 2.233-.16 3.498-2.468 3.72-4.527.224-.768.544-1.878 1.326-2.13.3-.097.28-.06.27.23-.003.11-.045.227-.075.334-.067.238-.17.46-.262.687-.146.358-.413.943-.152 1.312.42.596 1.212-.354 1.53.08l.013.016c-.1.112-.192.235-.275.366-1.109 1.173-2.176 2.686-2.267 4.246-.073 1.242.93 1.85 2.002 2.032-.011.721-.762 1.352-1.331.673-.267-.318-.407-.679-.869-.749-.958-.144-1.148.796-1.238 1.573zm3.744.302c-.634.21-1.384.1-2.038.064-.433-.023-.864-.059-1.29-.112v-.036c.016-.298.016-.592.157-.865.505-.982 1.13.295 1.504.547.891.6 1.863-.455 1.913-1.34.073.004.148.007.224.008.175.704.252 1.493-.47 1.734zm2.977-3.572c-.256.706-.97.925-1.645 1.031-.976.155-2.934.22-3.035-1.142-.127-1.703 1.328-3.065 2.188-4.454l.009-.007c.54-.346.964.073 1.277.502.404.551.65 1.231.921 1.854.291.667.546 1.497.285 2.216zm1.382 1.687c-.3-.35-.537-.773-.778-1.18.013-.025.028-.048.04-.074.335-.726.272-1.522.04-2.293.66-.366.794-.853.508-1.607-.057-.15-.259-.548-.206-.7.1-.291.226-.086.325.08.207.346.261.818.326 1.21.052.31.079.625.129.936.096.594.34 1.145.473 1.73.139.618.103 1.233.134 1.857-.325.272-.648.44-.991.041zm2.79-2.062l-.113-.16c-.148-.206-.309-.406-.444-.621-.045-.072-.237-.32-.225-.414.048-.389.33-.2.475-.097.301.215.422.597.547.948-.078.116-.16.23-.24.344zm3.244-9.32c.357.356 1.47.296.962 1.014-.246.348-.412.232-.786.214-.15-.008-.323-.024-.47.022-.234.074-.393.239-.415.49-.027.313.2.556.363.795.281.41.168.573-.48.395-.263-.073-.514-.232-.775-.32-.558-.186-1.803-.4-2.05.397-.213.686.614.96 1.106 1.104.653.191 1.333.35 1.935.68.286.159.782.444.594.84-.22.461-.93.149-1.274.038-.613-.196-1.391-.534-1.85.106-.052.072-.053.208 0 .28.616.839 1.807.914 2.018 2.1.074.417.125 1.091-.207 1.418-.542.535-.969-.2-1.147-.627-.246-.585-.423-1.27-1.092-1.503-.492-.172-1.026.072-.973.647.087.94 1.177 1.625 1.424 2.544.09.333.085.702-.082 1.014-.246.458-1.062.875-1.283.189-.18-.559-.04-1.246-.099-1.824-.098-.959-.5-1.848-.626-2.805-.083-.631-.154-1.347-.484-1.906-.238-.403-.86-.708-1.163-.178-.475.83.82 1.623-.045 2.223-.215-.556-.494-1.089-.745-1.56-.21-.394-.536-.918-.96-1.21.163-.22.134-.555.03-.847-.088-.248-.146-.93.143-1.11 1.19.564 2.65.597 3.86.113 1.585-.636 2.447-2.101 2.344-3.75.893-.599 1.82-1.07 2.933-.93.215.027.473.014.396.263-.046.146-.405.312-.527.395-.257.177-.601.378-.716.686-.084.225-.028.435.141.604zm-1.671 6.539c-.292-.182-.602-.345-.834-.577.224-.05.573.076.814.167.039.12.048.255.02.41z" transform="translate(574 22)"/>
                <path d="M10.037 13.746c-.586-.2-1.14-.172-1.66.01-.378.078-.717.23-1.053.527-.53.47-.86 1.15-1.044 1.825-.384 1.422-.018 2.937 1.198 3.834 1.321.975 3.1 1.045 4.134-.335.918-1.224 1.278-2.91.442-4.273-.455-.742-1.2-1.308-2.017-1.588zm-.132.39c.137.046.274.103.411.174.506.26.963.637 1.29 1.104-.722.292-1.392.79-2.04 1.259.097-.533.174-1.07.27-1.602.055-.3.14-.636.069-.934zm-.172-.05c-.127.386-.16.833-.244 1.226-.1.469-.168.944-.256 1.415l-.067-.097c-.52-.755-1.007-1.517-1.367-2.36.634-.263 1.283-.355 1.934-.185zm-2.142.277l.024-.01c-.064.604.762 1.626 1.015 2.017.109.167.216.34.323.516-.802-.176-1.626-.438-2.447-.403.118-.811.491-1.594 1.085-2.12zm-1.117 2.924c-.014-.201-.01-.405.009-.608.776.183 1.568.355 2.357.507-.666.468-1.3.966-1.941 1.467-.24-.408-.393-.872-.425-1.366zm2.044 2.743c-.617-.238-1.148-.666-1.515-1.21.743-.344 1.414-.96 2.085-1.416-.13.569-.256 1.139-.39 1.707-.068.28-.21.62-.18.92zm1.173.208c-.314.006-.619-.037-.91-.12.157-.314.188-.737.266-1.075.112-.483.226-.968.332-1.454.464.77.95 1.545 1.538 2.173-.346.286-.759.467-1.226.476zm1.46-.696c-.518-.726-1.009-1.467-1.506-2.206.788.148 1.6.343 2.402.275l.012-.003c-.117.712-.432 1.428-.908 1.934zm.945-2.235c-.015-.005-.03-.009-.05-.008-.799.03-1.607-.119-2.397-.274.696-.468 1.394-.937 2.107-1.375.093.164.172.337.23.519.11.34.143.733.11 1.138zM10.056 7.154l.003.002c.036.072.088.142.16.208.42.39 1.182.315 1.474-.197.213-.373.154-.894-.224-1.133-.345-.217-.778-.168-1.12.027-.405.232-.568.696-.293 1.093zm.583-.95c.237-.05.53-.028.716.105.393.284.11.885-.28 1.004-.289.088-.759.008-.857-.33-.089-.307.164-.602.421-.778zM10.645 5.48c.034.08.156.12.204.026.072-.142.012-.27-.094-.374-.067-.065-.211 0-.17.099.034.08.027.168.06.248zM10.026 5.723c.05.038.11.055.167.022.05-.03.083-.1.063-.157-.048-.137-.154-.23-.255-.33-.098-.099-.266.027-.193.149.065.108.117.236.218.316zM9.157 6.18c.124.058.245.118.372.17.138.058.236-.176.102-.243-.125-.063-.25-.103-.386-.137-.12-.03-.211.155-.088.21zM9.067 7.13c.069-.018.137-.026.207-.037.078-.012.133-.04.193-.091.062-.053.03-.167-.049-.184-.087-.02-.153-.01-.235.027-.066.03-.13.065-.195.095-.11.05-.03.216.08.19zM9.809 7.414c-.116.016-.197.048-.284.127-.07.063-.131.134-.189.207-.041.053-.051.125 0 .177.047.047.13.05.176 0 .1-.105.2-.178.334-.233.065-.026.113-.08.101-.155-.009-.062-.068-.132-.138-.123zM10.251 7.824c-.122.098-.184.25-.225.397-.019.066.017.138.08.163.067.028.13 0 .171-.056.064-.088.14-.193.208-.269.06-.066.066-.169 0-.235-.069-.07-.163-.055-.234 0zM11.12 8.165c-.03-.056-.043-.12-.055-.181-.022-.118-.215-.092-.209.028.004.077.018.151.028.227.012.081.025.162.087.22.078.073.247.03.233-.096-.01-.08-.046-.13-.083-.198zM11.627 7.732c-.088-.069-.204.014-.155.12.072.152.124.32.288.398.068.032.149.025.197-.04.04-.055.048-.153-.012-.2-.11-.088-.207-.19-.318-.278zM12.505 7.17c-.146-.039-.31.025-.458.028-.144.004-.144.22 0 .224.148.004.313.067.458.028.137-.037.137-.242 0-.28zM12.236 6.4c-.054.045-.116.076-.179.106-.12.057-.035.26.091.216.161-.056.35-.116.462-.25.127-.151-.069-.355-.218-.22-.053.05-.102.102-.156.148zM11.977 6.034c.22-.053.427-.245.48-.468.04-.162-.166-.3-.287-.168-.063.067-.109.143-.166.214-.061.075-.119.15-.177.227-.075.098.048.22.15.195zM11.736 5.38c.014-.14.04-.282.04-.422 0-.237-.367-.237-.367 0 0 .14.025.282.039.421.018.186.27.187.288 0zM19.542 12.206l-.005.021c-.052.054-.094.124-.127.184-.074.136-.122.286-.108.442.012.147.153.238.289.166.238-.125.522-.605.352-.866-.1-.154-.351-.137-.401.053zM20.435 12.204c-.154.023-.281.185-.213.34.006.015.015.028.024.04.002.029.006.056.011.08.012.057.034.11.066.157.026.076.064.143.108.217.06.103.187.13.29.076.184-.095.213-.362.16-.541-.056-.194-.222-.401-.446-.369zM20.858 11.628c-.082.045-.116.124-.112.204-.005.018-.005.041.005.07.008.027.027.052.051.076.016.02.034.039.056.054.018.012.036.02.054.029l.09.054c.221.141.567.23.759-.009.082-.103.086-.22 0-.323-.222-.268-.605-.317-.903-.155z" transform="translate(574 22)"/>
            </g>
        </g>
    </g>
</svg>
